<?xml version="1.0" standalone="no"?><!DOCTYPE svg PUBLIC "-//W3C//DTD SVG 1.1//EN" "http://www.w3.org/Graphics/SVG/1.1/DTD/svg11.dtd"><svg t="1698374536775" class="icon" viewBox="0 0 2171 1024" version="1.1" xmlns="http://www.w3.org/2000/svg" p-id="3858" xmlns:xlink="http://www.w3.org/1999/xlink" width="424.0234375" height="200"><path d="M2067.33424 0.015257h-550.428475a29.927348 29.927348 0 0 0 0 58.681074h550.428475a43.423995 43.423995 0 0 1 43.423995 42.837184v669.551056a43.423995 43.423995 0 0 1-43.423995 43.423994H969.411344a29.927348 29.927348 0 0 0 0 58.681075h752.878181v104.452311a46.944859 46.944859 0 0 0 46.358048 46.358049h117.362148a46.358049 46.358049 0 0 0 46.358049-46.358049v-104.452311h135.553281A102.105069 102.105069 0 0 0 2171.199741 771.084571V101.533515A102.105069 102.105069 0 0 0 2067.33424 0.015257z m-194.234355 965.303669h-92.129286v-92.129286h92.129286zM310.422882 268.774576a46.358049 46.358049 0 0 0-46.358049 46.358049v205.97057a46.358049 46.358049 0 0 0 46.358049 46.358049H516.393452a46.358049 46.358049 0 0 0 46.358049-46.358049V315.132625a46.358049 46.358049 0 0 0-46.358049-46.358049z m193.647544 240.005593H322.745908V327.455651h181.324518zM1003.446367 521.103195V315.132625a46.358049 46.358049 0 0 0-46.358049-46.358049H751.117748a46.358049 46.358049 0 0 0-46.358048 46.358049v205.97057a46.358049 46.358049 0 0 0 46.358048 46.358049h205.97057a46.358049 46.358049 0 0 0 46.358049-46.358049z m-58.681074-12.323026H762.853963V327.455651h181.91133z" fill="#333333" p-id="3859"></path><path d="M1145.454566 315.132625v205.97057a46.358049 46.358049 0 0 0 46.358049 46.358049h205.97057a46.358049 46.358049 0 0 0 46.358048-46.358049V315.132625a46.358049 46.358049 0 0 0-46.358048-46.358049h-205.97057a46.358049 46.358049 0 0 0-46.358049 46.358049z m58.681074 12.323026h181.324519v181.324518h-181.324519zM1838.478051 567.461244a46.358049 46.358049 0 0 0 46.94486-46.358049V315.132625a46.358049 46.358049 0 0 0-46.94486-46.358049h-205.97057a46.358049 46.358049 0 0 0-46.358048 46.358049v205.97057a46.358049 46.358049 0 0 0 46.358048 46.358049zM1643.070075 327.455651h181.911329v181.324518H1643.070075zM1365.508594 58.696331a28.753726 28.753726 0 0 0 28.753726-29.340537 29.340537 29.340537 0 1 0-28.753726 29.340537z" fill="#333333" p-id="3860"></path><path d="M843.833845 843.262292m-29.340537 0a29.340537 29.340537 0 1 0 58.681075 0 29.340537 29.340537 0 1 0-58.681075 0Z" fill="#333333" p-id="3861"></path><path d="M684.221324 813.921755H101.518258a43.423995 43.423995 0 0 1-42.837184-42.837184V101.533515A42.837184 42.837184 0 0 1 101.518258 58.696331h1114.940408a29.927348 29.927348 0 0 0 0-58.681074h-1114.940408A102.105069 102.105069 0 0 0 0 101.533515v669.551056a102.105069 102.105069 0 0 0 101.518258 102.105069h163.720197v104.452311a46.944859 46.944859 0 0 0 46.358048 46.358049h117.362149a46.358049 46.358049 0 0 0 46.358048-46.358049v-104.452311h209.491435a29.927348 29.927348 0 0 0 0-58.681075z m-268.172509 151.397171H323.919529v-92.129286h92.129286z" fill="#333333" p-id="3862"></path></svg>