<svg class="icon" viewBox="0 0 2171 1024" xmlns="http://www.w3.org/2000/svg" width="424.023" height="200"><path d="M2067.334.015h-550.428a29.927 29.927 0 0 0 0 58.681h550.428a43.424 43.424 0 0 1 43.424 42.838v669.55a43.424 43.424 0 0 1-43.424 43.425H969.411a29.927 29.927 0 0 0 0 58.68h752.879v104.453a46.945 46.945 0 0 0 46.358 46.358h117.362a46.358 46.358 0 0 0 46.358-46.358V873.19h135.553A102.105 102.105 0 0 0 2171.2 771.085V101.534A102.105 102.105 0 0 0 2067.334.015zM1873.1 965.32h-92.13v-92.13h92.13zM310.423 268.775a46.358 46.358 0 0 0-46.358 46.358v205.97a46.358 46.358 0 0 0 46.358 46.358h205.97a46.358 46.358 0 0 0 46.359-46.358v-205.97a46.358 46.358 0 0 0-46.359-46.358zM504.07 508.78H322.746V327.456H504.07zm499.376 12.323v-205.97a46.358 46.358 0 0 0-46.358-46.358h-205.97a46.358 46.358 0 0 0-46.358 46.358v205.97a46.358 46.358 0 0 0 46.358 46.358h205.97a46.358 46.358 0 0 0 46.358-46.358zm-58.68-12.323H762.853V327.456h181.911z" fill="#333"/><path d="M1145.455 315.133v205.97a46.358 46.358 0 0 0 46.358 46.358h205.97a46.358 46.358 0 0 0 46.358-46.358v-205.97a46.358 46.358 0 0 0-46.358-46.358h-205.97a46.358 46.358 0 0 0-46.358 46.358zm58.68 12.323h181.325V508.78h-181.324zm634.343 240.005a46.358 46.358 0 0 0 46.945-46.358v-205.97a46.358 46.358 0 0 0-46.945-46.358h-205.97a46.358 46.358 0 0 0-46.359 46.358v205.97a46.358 46.358 0 0 0 46.358 46.358zM1643.07 327.456h181.911V508.78h-181.91zM1365.51 58.696a28.754 28.754 0 0 0 28.753-29.34 29.34 29.34 0 1 0-28.753 29.34zM814.4939999999999 843.262a29.34 29.34 0 1 0 58.68 0 29.34 29.34 0 1 0-58.68 0ZM684.221 813.922H101.518a43.424 43.424 0 0 1-42.837-42.837V101.534a42.837 42.837 0 0 1 42.837-42.838h1114.94a29.927 29.927 0 0 0 0-58.68H101.519A102.105 102.105 0 0 0 0 101.533v669.55A102.105 102.105 0 0 0 101.518 873.19h163.72v104.452A46.945 46.945 0 0 0 311.597 1024h117.362a46.358 46.358 0 0 0 46.358-46.358V873.19h209.491a29.927 29.927 0 0 0 0-58.681zM416.05 965.319h-92.13v-92.13h92.13z" fill="#333"/></svg>