<svg class="icon" viewBox="0 0 1024 1024" xmlns="http://www.w3.org/2000/svg" width="200" height="200"><path d="M832 192H170.667v-53.333c0-17.067-14.934-32-32-32s-32 14.933-32 32v746.666c0 17.067 14.933 32 32 32s32-14.933 32-32V768h106.666v42.667c0 23.466 19.2 42.666 42.667 42.666h426.667c23.466 0 42.666-19.2 42.666-42.666V768H832c46.933 0 85.333-38.4 85.333-85.333V277.333C917.333 230.4 878.933 192 832 192zM405.333 746.667c0 17.066-14.933 32-32 32s-32-14.934-32-32V704c0-17.067 14.934-32 32-32s32 14.933 32 32v42.667zm106.667 0c0 17.066-14.933 32-32 32s-32-14.934-32-32V704c0-17.067 14.933-32 32-32s32 14.933 32 32v42.667zM512 576c-17.067 0-32-14.933-32-32 0-12.8 8.533-23.467 19.2-29.867 2.133 0 4.267-2.133 4.267-2.133h12.8c2.133 0 4.266 0 4.266 2.133 10.667 4.267 19.2 17.067 19.2 29.867C544 561.067 529.067 576 512 576zm106.667 170.667c0 17.066-14.934 32-32 32s-32-14.934-32-32V704c0-17.067 14.933-32 32-32s32 14.933 32 32v42.667zm-32-245.334c-8.534 0-17.067-4.266-23.467-8.533-12.8-12.8-32-21.333-53.333-21.333s-38.4 8.533-53.334 23.466c-6.4 6.4-12.8 8.534-23.466 8.534-17.067 0-32-14.934-32-32 0-8.534 4.266-17.067 8.533-23.467 25.6-25.6 59.733-40.533 98.133-40.533S580.267 422.4 605.867 448c6.4 6.4 8.533 12.8 8.533 21.333 4.267 17.067-10.667 32-27.733 32zM640 416c-32-32-78.933-53.333-128-53.333S416 384 384 416c-6.4 6.4-14.933 10.667-23.467 10.667-17.066 0-32-14.934-32-32 0-8.534 4.267-17.067 10.667-23.467 44.8-44.8 104.533-72.533 172.8-72.533 66.133 0 125.867 25.6 168.533 68.266l2.134 2.134c4.266 6.4 8.533 12.8 8.533 21.333 0 17.067-14.933 32-32 32-6.4 2.133-12.8-2.133-19.2-6.4zm85.333 330.667c0 17.066-14.933 32-32 32s-32-14.934-32-32V704c0-17.067 14.934-32 32-32s32 14.933 32 32v42.667z" fill="#13227a"/></svg>