<svg class="icon" viewBox="0 0 1024 1024" xmlns="http://www.w3.org/2000/svg" width="200" height="200"><path d="m988.416 821.216 1.504-.576-101.504-267.328A64.32 64.32 0 0 0 828.608 512H808V112a32 32 0 1 0-64 0v400H544V112a32 32 0 1 0-64 0v400H272V112a32 32 0 0 0-64 0v400h-12.608a64.32 64.32 0 0 0-59.84 41.312L34.08 820.64l1.504.576C33.472 829.856 32 838.72 32 848c0 61.76 50.24 112 112 112h736c61.76 0 112-50.24 112-112 0-9.28-1.472-18.144-3.584-26.784zM195.392 576h633.184l61.12 160.992c-3.232-.288-6.368-.992-9.696-.992H144c-3.328 0-6.464.704-9.696.992L195.392 576zM880 896H144c-26.464 0-48-21.536-48-48s21.536-48 48-48h736c26.464 0 48 21.536 48 48s-21.536 48-48 48z" fill="#13227a"/></svg>