<svg xmlns="http://www.w3.org/2000/svg" width="334pt" height="175pt" viewBox="0 0 334 175"><path style="stroke:none;fill-rule:nonzero;fill:#000;fill-opacity:1" d="M9.453 156.383v1.66H8.34c.273-.723.547-1.543.781-2.461h2.168v-.762H9.316c.098-.449.196-.937.313-1.445l-.742-.156c-.117.547-.215 1.094-.332 1.601H7.44v.762h.938c-.254.996-.527 1.856-.86 2.52l.176.683h1.758v1.68c-.664.117-1.348.234-2.09.312l.098.801c.684-.117 1.348-.215 1.992-.351v2.343h.742v-2.5l1.075-.273v-.762c-.332.078-.684.176-1.075.274v-1.524h1.035v-.742h-1.035v-1.66Zm3.32-.586v.664h3.223v-.664h-3.223A20.854 20.854 0 0 0 14.414 154c.86 1.094 1.816 2.031 2.871 2.793l.43-.625c-1.016-.723-2.012-1.68-3.008-2.89h-.566a17.066 17.066 0 0 1-3.106 2.949l.45.683c.43-.351.859-.722 1.288-1.113Zm.782 7.695c.547 0 .84-.293.84-.879v-5.254h-2.657v6.211h.703v-2.11h1.27v1.017c0 .234-.137.37-.371.37l-.508-.019.176.664Zm-1.114-2.656v-1.074h1.27v1.074Zm0-1.7v-1.113h1.27v1.114Zm2.618-1.464v4.043h.644v-4.043Zm1.23 5.84c.547 0 .82-.332.82-.977v-5.37h-.703v5.194c0 .313-.117.489-.37.489-.274 0-.567-.02-.86-.059l.156.723ZM23.262 155.855c-.723 2.989-2.285 5.293-4.707 6.856l.488.703c2.363-1.543 3.926-3.75 4.668-6.621.059.137.098.293.176.488 1.152 2.969 2.636 5.02 4.472 6.114l.508-.645c-1.797-1.113-3.203-3.027-4.258-5.703-.683-1.836-1.543-3.106-2.539-3.809l-.664.43c.703.527 1.328 1.25 1.856 2.187ZM33.027 157.555v.722h6.094v-.722Zm-.8 1.836v.742h2.46c-.78 1.27-1.445 2.05-1.933 2.344-.059.02-.098.058-.176.078l.176.683a88.015 88.015 0 0 0 5.86-.566c.234.273.429.566.624.86l.645-.45c-.488-.723-1.211-1.582-2.13-2.559l-.605.372c.332.39.664.761.977 1.132-1.445.215-2.91.371-4.395.47.528-.47 1.133-1.27 1.817-2.364h4.316v-.742Zm6.27-4.942v1.309h-6.622v-1.309Zm-6.622 2.031h7.402v-2.792h-8.183v3.73c-.02 2.266-.41 4.102-1.192 5.527l.586.547c.918-1.699 1.387-3.73 1.387-6.074ZM16.836 89.867V86.04h-1.777c.351-.39.683-.879 1.035-1.426v-.605h-2.617c.117-.215.234-.469.312-.723l-.8-.097c-.391 1.035-1.134 1.894-2.227 2.617l.468.625c.137-.098.274-.196.43-.313v.645h4.395v.86h-4.551v.702h4.55v.84H11.25v.703Zm-3.79-5.156h2.15c-.333.508-.665.957-.997 1.328h-2.441c.488-.39.918-.82 1.289-1.328Zm-5.233-1.016v9.864h.8v-9.102h1.621a33.325 33.325 0 0 1-1.113 3.184c.606.957.899 1.836.899 2.597 0 .235-.06.41-.137.508-.098.098-.293.156-.567.176-.117 0-.273-.02-.43-.04l.255.821c.644 0 1.113-.137 1.386-.41.176-.215.274-.566.274-1.055-.04-.8-.332-1.718-.88-2.715.43-1.113.802-2.168 1.114-3.183v-.645Zm8.867 6.64-.703.235c.39.684.761 1.465 1.093 2.344l.664-.312c-.312-.801-.664-1.543-1.054-2.266Zm-5.332.216a8.05 8.05 0 0 1-.82 2.207l.663.43c.371-.704.664-1.524.88-2.481Zm3.73 2.91c.332 0 .586-.078.742-.215.196-.176.332-.644.39-1.406l-.702-.235c-.04.547-.098.88-.176.997a.551.551 0 0 1-.39.136H13.73c-.273 0-.41-.175-.41-.488v-1.836h-.761v2.012c0 .683.312 1.035.937 1.035Zm-.742-3.3-.566.37c.41.489.742.918.976 1.328l.606-.43c-.235-.35-.586-.78-1.016-1.269ZM18.848 83.95v.722h2.636v.762h.82v-.762h2.891v.781h.703v.45H20.82v1.523h-1.015V85.53h-.703v2.559h1.718v1.133h-2.187v.683h.644c-.039 1.309-.293 2.207-.742 2.715l.567.43c.488-.586.78-1.64.82-3.145h.898v.117c-.02 1.29-.215 2.286-.625 3.008l.586.528c.489-.899.762-2.07.782-3.536v-3.418h4.355c.039 1.465.156 2.657.332 3.575.059.37.156.722.254 1.054a5.298 5.298 0 0 1-1.113 1.329v-.47h-.996V91.04h.996v-2.148h-.996v-.977h.996v-.644h-3.203v5.488h2.949l-.196.117.391.605a5.224 5.224 0 0 0 1.484-1.386c.079.234.176.43.293.605.332.528.664.82.957.82.352 0 .625-.703.82-2.09l-.585-.331c-.098 1.015-.235 1.523-.371 1.523-.117 0-.293-.215-.489-.644a3.13 3.13 0 0 1-.214-.567c.527-1.015.878-2.305 1.054-3.906l-.683-.156c-.118 1.113-.332 2.09-.645 2.91a7.678 7.678 0 0 1-.058-.371c-.137-.762-.235-1.856-.274-3.282h2.11v-.703h-.567c-.098-.351-.234-.664-.332-.937l-.703.097c.137.274.273.547.371.84h-.898v-.625h-.567v-.605h2.617v-.723h-2.617v-.703h-.84v.703h-2.89v-.722h-.82v.722Zm4.922 3.964v.977h-.918v-.977Zm-.918 1.582h1.894v.918h-1.894Zm0 1.543h.918v1.055h-.918ZM33.027 87.543v.723h6.094v-.723Zm-.8 1.836v.742h2.46c-.78 1.27-1.445 2.05-1.933 2.344-.059.02-.098.058-.176.078l.176.684a88.014 88.014 0 0 0 5.86-.567c.234.274.429.567.624.86l.645-.45c-.488-.722-1.211-1.582-2.13-2.558l-.605.37c.332.391.664.763.977 1.134-1.445.214-2.91.37-4.395.468.528-.468 1.133-1.27 1.817-2.363h4.316v-.742Zm6.27-4.942v1.31h-6.622v-1.31Zm-6.622 2.032h7.402v-2.793h-8.183v3.73c-.02 2.266-.41 4.102-1.192 5.528l.586.546c.918-1.699 1.387-3.73 1.387-6.074ZM9.453 15.488v1.66H8.34c.273-.722.547-1.543.781-2.46h2.168v-.762H9.316c.098-.45.196-.938.313-1.446l-.742-.156c-.117.547-.215 1.094-.332 1.602H7.44v.761h.938c-.254.997-.527 1.856-.86 2.52l.176.684h1.758v1.68c-.664.116-1.348.234-2.09.312l.098.8c.684-.117 1.348-.214 1.992-.351v2.344h.742v-2.5l1.075-.274v-.761c-.332.078-.684.175-1.075.273v-1.523h1.035v-.743h-1.035v-1.66Zm3.32-.586v.664h3.223v-.664h-3.223a20.854 20.854 0 0 0 1.641-1.797c.86 1.094 1.816 2.032 2.871 2.793l.43-.625c-1.016-.722-2.012-1.68-3.008-2.89h-.566a17.066 17.066 0 0 1-3.106 2.949l.45.684c.43-.352.859-.723 1.288-1.114Zm.782 7.696c.547 0 .84-.293.84-.88v-5.253h-2.657v6.21h.703v-2.109h1.27v1.016c0 .234-.137.371-.371.371l-.508-.02.176.665ZM12.44 19.94v-1.074h1.27v1.074Zm0-1.699V17.13h1.27v1.113Zm2.618-1.465v4.043h.644v-4.043Zm1.23 5.84c.547 0 .82-.332.82-.976V16.27h-.703v5.195c0 .312-.117.488-.37.488-.274 0-.567-.02-.86-.058l.156.722ZM26.797 16.27H24.16v-3.926h-.82v3.926h-2.637v-3.067h-.82v3.848h3.457v4.14h-3.184v-3.086h-.82v4.493h.82v-.645h7.188v.645h.82v-4.493h-.82v3.086H24.16v-4.14h3.457v-3.848h-.82ZM33.027 16.66v.723h6.094v-.723Zm-.8 1.836v.742h2.46c-.78 1.27-1.445 2.051-1.933 2.344-.059.02-.098.059-.176.078l.176.684a88.015 88.015 0 0 0 5.86-.567c.234.274.429.567.624.86l.645-.45c-.488-.722-1.211-1.582-2.13-2.558l-.605.371c.332.39.664.762.977 1.133-1.445.215-2.91.37-4.395.469.528-.47 1.133-1.27 1.817-2.364h4.316v-.742Zm6.27-4.941v1.308h-6.622v-1.308Zm-6.622 2.03h7.402v-2.792h-8.183v3.73c-.02 2.266-.41 4.102-1.192 5.528l.586.547c.918-1.7 1.387-3.73 1.387-6.075Zm0 0"/><path style="fill-rule:nonzero;fill:#b2d9ff;fill-opacity:1;stroke-width:.929626;stroke-linecap:round;stroke-linejoin:round;stroke:#000;stroke-opacity:1;stroke-miterlimit:10" d="M139.969 137.766c4.628 4.628 4.628 12.134 0 16.762s-12.131 4.628-16.763 0c-4.628-4.628-4.628-12.134 0-16.762 4.632-4.629 12.135-4.629 16.763 0" transform="matrix(1.25 0 0 1.25 -43.75 -23.75)"/><path style="stroke:none;fill-rule:nonzero;fill:#000;fill-opacity:1" d="M119.098 156.824c-.157-.781-.293-.976-.567-.976-.273 0-.644.078-1.328.332l-.117.039.039.176.195-.06c.215-.058.352-.077.43-.077.293 0 .371.097.527.762l.313 1.406-.918 1.308c-.234.332-.45.547-.586.547a.837.837 0 0 1-.293-.097c-.137-.079-.254-.137-.352-.137-.214 0-.39.195-.39.41 0 .293.215.469.566.469.352 0 .586-.098 1.074-.762l.996-1.328.313 1.328c.137.566.313.762.664.762.43 0 .723-.254 1.387-1.27l-.176-.117c-.098.117-.137.195-.234.332-.254.332-.391.45-.528.45-.156 0-.254-.157-.332-.47l-.37-1.503c-.06-.274-.099-.43-.099-.508.508-.86.918-1.367 1.114-1.367.273 0 .37.195.586.195.215 0 .37-.176.37-.41 0-.235-.175-.41-.448-.41-.489 0-.918.41-1.7 1.601ZM124.309 164.559v-.118c-.567 0-.704-.136-.704-.449v-4.472l-.078-.04-1.328.684v.117l.196-.078a.989.989 0 0 1 .332-.098c.156 0 .234.118.234.372v3.378c0 .41-.156.567-.723.586v.118Zm0 0"/><path style="fill-rule:nonzero;fill:#b2d9ff;fill-opacity:1;stroke-width:.929626;stroke-linecap:round;stroke-linejoin:round;stroke:#000;stroke-opacity:1;stroke-miterlimit:10" d="M189.125 137.766c4.628 4.628 4.628 12.134 0 16.762s-12.131 4.628-16.762 0c-4.629-4.628-4.629-12.134 0-16.762 4.63-4.629 12.134-4.629 16.762 0" transform="matrix(1.25 0 0 1.25 -43.75 -23.75)"/><path style="stroke:none;fill-rule:nonzero;fill:#000;fill-opacity:1" d="M180.54 156.824c-.157-.781-.294-.976-.567-.976-.274 0-.645.078-1.328.332l-.118.039.04.176.195-.06c.215-.058.351-.077.43-.077.292 0 .37.097.527.762l.312 1.406-.918 1.308c-.234.332-.449.547-.586.547a.837.837 0 0 1-.293-.097c-.136-.079-.254-.137-.351-.137-.215 0-.39.195-.39.41 0 .293.214.469.566.469.351 0 .586-.098 1.074-.762l.996-1.328.312 1.328c.137.566.313.762.664.762.43 0 .723-.254 1.387-1.27l-.176-.117c-.097.117-.136.195-.234.332-.254.332-.39.45-.527.45-.157 0-.254-.157-.332-.47l-.371-1.503c-.059-.274-.098-.43-.098-.508.508-.86.918-1.367 1.113-1.367.274 0 .371.195.586.195.215 0 .371-.176.371-.41 0-.235-.176-.41-.449-.41-.488 0-.918.41-1.7 1.601ZM186.355 163.523l-.097-.039c-.254.43-.41.508-.723.508h-1.758l1.23-1.328c.665-.703.958-1.27.958-1.855 0-.743-.528-1.329-1.387-1.329-.918 0-1.387.625-1.543 1.504l.156.04c.293-.743.547-.977 1.094-.977.645 0 1.035.371 1.035 1.055 0 .644-.254 1.21-.976 1.953l-1.328 1.406v.098h2.93Zm0 0"/><path style="fill-rule:nonzero;fill:#66bfff;fill-opacity:1;stroke-width:.929626;stroke-linecap:round;stroke-linejoin:round;stroke:#000;stroke-opacity:1;stroke-miterlimit:10" d="M170.65 81.06c4.628 4.627 4.628 12.13 0 16.759-4.631 4.631-12.134 4.631-16.763 0-4.63-4.628-4.63-12.132 0-16.76 4.629-4.628 12.132-4.628 16.763 0" transform="matrix(1.25 0 0 1.25 -43.75 -23.75)"/><path style="stroke:none;fill-rule:nonzero;fill:#000;fill-opacity:1" d="M159.629 88.598c-.606.761-.742.898-.918.898-.117 0-.195-.078-.195-.195 0-.137.195-.82.37-1.406.352-1.055.548-1.895.548-2.168 0-.43-.215-.762-.723-.762-.703 0-1.582.722-2.598 2.383l1.367-5.04-.078-.058c-.664.137-1.093.215-1.777.293v.176h.313c.195 0 .468.078.468.273 0 .156-.058.352-.156.703l-1.64 6.23h.84c.448-1.737.624-2.128 1.073-2.812.586-.898 1.309-1.582 1.72-1.582.253 0 .312.117.312.293 0 .04-.04.196-.078.371l-.625 2.325c-.137.546-.215.898-.215 1.035 0 .293.195.468.488.468.586 0 .957-.293 1.64-1.27ZM163.574 92.64l-.097-.038c-.254.43-.41.507-.723.507h-1.758l1.23-1.328c.665-.703.958-1.27.958-1.855 0-.742-.528-1.328-1.387-1.328-.918 0-1.387.625-1.543 1.504l.156.039c.293-.743.547-.977 1.094-.977.644 0 1.035.371 1.035 1.055 0 .644-.254 1.21-.976 1.953l-1.329 1.406v.098h2.93Zm0 0"/><path style="fill-rule:nonzero;fill:#b2d9ff;fill-opacity:1;stroke-width:.929626;stroke-linecap:round;stroke-linejoin:round;stroke:#000;stroke-opacity:1;stroke-miterlimit:10" d="M238.278 137.766c4.628 4.628 4.628 12.134 0 16.762s-12.134 4.628-16.762 0c-4.629-4.628-4.629-12.134 0-16.762 4.628-4.629 12.134-4.629 16.762 0" transform="matrix(1.25 0 0 1.25 -43.75 -23.75)"/><path style="stroke:none;fill-rule:nonzero;fill:#000;fill-opacity:1" d="M241.984 156.824c-.156-.781-.293-.976-.566-.976-.273 0-.645.078-1.328.332l-.117.039.039.176.195-.06c.215-.058.352-.077.43-.077.293 0 .37.097.527.762l.313 1.406-.918 1.308c-.235.332-.45.547-.586.547a.837.837 0 0 1-.293-.097c-.137-.079-.254-.137-.352-.137-.215 0-.39.195-.39.41 0 .293.214.469.566.469.351 0 .586-.098 1.074-.762l.996-1.328.313 1.328c.136.566.312.762.664.762.43 0 .722-.254 1.387-1.27l-.176-.117c-.098.117-.137.195-.235.332-.254.332-.39.45-.527.45-.156 0-.254-.157-.332-.47l-.371-1.503c-.059-.274-.098-.43-.098-.508.508-.86.918-1.367 1.113-1.367.274 0 .372.195.586.195.215 0 .372-.176.372-.41 0-.235-.176-.41-.45-.41-.488 0-.918.41-1.699 1.601ZM244.691 160.73c.313-.546.664-.8 1.133-.8.488 0 .801.273.801.78 0 .45-.234.782-.605.997-.157.098-.352.176-.625.273v.098c.43 0 .585.02.761.078.508.156.781.528.781 1.094 0 .625-.43 1.152-.976 1.152-.215 0-.371-.039-.645-.234-.214-.156-.332-.195-.468-.195-.157 0-.293.097-.293.254 0 .273.293.43.84.43.664 0 1.367-.216 1.738-.684.215-.293.351-.664.351-1.055 0-.39-.136-.742-.332-.977-.156-.156-.293-.254-.625-.39.489-.293.684-.684.684-1.035 0-.606-.469-1.036-1.152-1.036-.782 0-1.27.508-1.485 1.23Zm0 0"/><path style="fill-rule:nonzero;fill:#b2d9ff;fill-opacity:1;stroke-width:.929626;stroke-linecap:round;stroke-linejoin:round;stroke:#000;stroke-opacity:1;stroke-miterlimit:10" d="M287.434 137.069c4.628 4.631 4.628 12.134 0 16.762-4.628 4.632-12.134 4.632-16.762 0-4.628-4.628-4.628-12.131 0-16.762 4.628-4.628 12.134-4.628 16.762 0" transform="matrix(1.25 0 0 1.25 -43.75 -23.75)"/><path style="stroke:none;fill-rule:nonzero;fill:#000;fill-opacity:1" d="M303.426 155.953c-.156-.781-.293-.976-.567-.976-.273 0-.644.078-1.328.332l-.117.039.04.175.194-.058c.215-.059.352-.078.43-.078.293 0 .371.097.527.761l.313 1.407-.918 1.308c-.234.332-.45.547-.586.547a.837.837 0 0 1-.293-.097c-.137-.079-.254-.137-.351-.137-.215 0-.391.195-.391.41 0 .293.215.469.566.469.352 0 .586-.098 1.075-.762l.996-1.328.312 1.328c.137.566.313.762.664.762.43 0 .723-.254 1.387-1.27l-.176-.117c-.098.117-.137.195-.234.332-.254.332-.39.45-.528.45-.156 0-.253-.157-.332-.47l-.37-1.503c-.06-.274-.098-.43-.098-.508.507-.86.918-1.367 1.113-1.367.273 0 .371.195.586.195.215 0 .37-.176.37-.41 0-.235-.175-.41-.448-.41-.489 0-.918.41-1.7 1.601ZM309.242 162.438v-.489h-.781v-3.34h-.332l-2.344 3.34v.488h2.09v1.25h.586v-1.25Zm-1.367-.489h-1.797l1.797-2.558Zm0 0"/><path style="fill-rule:nonzero;fill:#66bfff;fill-opacity:1;stroke-width:.929626;stroke-linecap:round;stroke-linejoin:round;stroke:#000;stroke-opacity:1;stroke-miterlimit:10" d="M255.475 81.06c4.631 4.627 4.631 12.13 0 16.759-4.628 4.631-12.131 4.631-16.76 0-4.627-4.628-4.627-12.132 0-16.76 4.629-4.628 12.132-4.628 16.76 0" transform="matrix(1.25 0 0 1.25 -43.75 -23.75)"/><path style="stroke:none;fill-rule:nonzero;fill:#000;fill-opacity:1" d="M265.668 88.598c-.606.761-.742.898-.918.898-.117 0-.195-.078-.195-.195 0-.137.195-.82.37-1.406.352-1.055.548-1.895.548-2.168 0-.43-.215-.762-.723-.762-.703 0-1.582.722-2.598 2.383l1.368-5.04-.079-.058c-.664.137-1.093.215-1.777.293v.176h.313c.195 0 .468.078.468.273 0 .156-.058.352-.156.703l-1.64 6.23h.84c.449-1.737.624-2.128 1.074-2.812.585-.898 1.308-1.582 1.718-1.582.254 0 .313.117.313.293 0 .04-.04.196-.078.371l-.625 2.325c-.137.546-.215.898-.215 1.035 0 .293.195.468.488.468.586 0 .957-.293 1.64-1.27ZM269.613 92.426v-.489h-.781v-3.34h-.332l-2.344 3.34v.489h2.09v1.25h.586v-1.25Zm-1.367-.489h-1.797l1.797-2.558Zm0 0"/><path style="fill-rule:nonzero;fill:#66bfff;fill-opacity:1;stroke-width:.929626;stroke-linecap:round;stroke-linejoin:round;stroke:#000;stroke-opacity:1;stroke-miterlimit:10" d="M213.063 81.06c4.628 4.627 4.628 12.13 0 16.759-4.629 4.631-12.132 4.631-16.763 0-4.628-4.628-4.628-12.132 0-16.76 4.631-4.628 12.134-4.628 16.762 0" transform="matrix(1.25 0 0 1.25 -43.75 -23.75)"/><path style="stroke:none;fill-rule:nonzero;fill:#000;fill-opacity:1" d="M212.648 88.598c-.605.761-.742.898-.918.898-.117 0-.195-.078-.195-.195 0-.137.195-.82.371-1.406.352-1.055.547-1.895.547-2.168 0-.43-.215-.762-.723-.762-.703 0-1.582.722-2.597 2.383l1.367-5.04-.078-.058c-.664.137-1.094.215-1.777.293v.176h.312c.195 0 .469.078.469.273 0 .156-.059.352-.156.703l-1.641 6.23h.84c.449-1.737.625-2.128 1.074-2.812.586-.898 1.309-1.582 1.719-1.582.254 0 .312.117.312.293 0 .04-.039.196-.078.371l-.625 2.325c-.137.546-.215.898-.215 1.035 0 .293.196.468.489.468.585 0 .957-.293 1.64-1.27ZM213.488 89.848c.313-.547.664-.801 1.133-.801.488 0 .8.273.8.781 0 .45-.233.781-.605.996-.156.098-.351.176-.625.274v.097c.43 0 .586.02.762.078.508.157.781.528.781 1.094 0 .625-.43 1.153-.976 1.153-.215 0-.371-.04-.645-.235-.215-.156-.332-.195-.468-.195-.157 0-.293.097-.293.254 0 .273.293.43.84.43.663 0 1.367-.215 1.738-.684.215-.293.351-.664.351-1.055 0-.39-.136-.742-.332-.976-.156-.157-.293-.254-.625-.391.488-.293.684-.684.684-1.035 0-.606-.469-1.035-1.153-1.035-.78 0-1.27.507-1.484 1.23Zm0 0"/><path style="fill-rule:nonzero;fill:#b2d9ff;fill-opacity:1;stroke-width:.929626;stroke-linecap:round;stroke-linejoin:round;stroke:#000;stroke-opacity:1;stroke-miterlimit:10" d="M163.91 24.35c4.624 4.631 4.624 12.134 0 16.762-4.629 4.632-12.135 4.632-16.766 0-4.628-4.628-4.628-12.13 0-16.762 4.631-4.628 12.137-4.628 16.765 0" transform="matrix(1.25 0 0 1.25 -43.75 -23.75)"/><path style="stroke:none;fill-rule:nonzero;fill:#000;fill-opacity:1" d="M151.246 15.664c0-.996-.684-1.582-1.601-1.582-.45 0-.899.098-1.348.332-1.172.645-2.012 1.934-2.012 3.184 0 .976.586 1.562 1.64 1.562.743 0 1.466-.273 2.13-.918.742-.742 1.191-1.738 1.191-2.578Zm-.957-.293c0 .86-.312 1.914-.82 2.617-.45.625-.88.938-1.367.938-.528 0-.88-.352-.88-1.016 0-.898.313-1.777.84-2.578.45-.664.938-1.016 1.426-1.016.489 0 .801.371.801 1.055ZM154.547 22.793v-.117c-.567 0-.703-.137-.703-.45v-4.472l-.078-.04-1.328.684v.118l.195-.078a.989.989 0 0 1 .332-.098c.156 0 .234.117.234.37v3.38c0 .41-.156.566-.722.586v.117Zm0 0"/><path style="fill-rule:nonzero;fill:#b2d9ff;fill-opacity:1;stroke-width:.929626;stroke-linecap:round;stroke-linejoin:round;stroke:#000;stroke-opacity:1;stroke-miterlimit:10" d="M213.063 24.35c4.628 4.631 4.628 12.134 0 16.762-4.629 4.632-12.132 4.632-16.763 0-4.628-4.628-4.628-12.13 0-16.762 4.631-4.628 12.134-4.628 16.762 0" transform="matrix(1.25 0 0 1.25 -43.75 -23.75)"/><path style="stroke:none;fill-rule:nonzero;fill:#000;fill-opacity:1" d="M212.688 15.664c0-.996-.684-1.582-1.602-1.582-.45 0-.899.098-1.348.332-1.172.645-2.011 1.934-2.011 3.184 0 .976.585 1.562 1.64 1.562.742 0 1.465-.273 2.13-.918.741-.742 1.19-1.738 1.19-2.578Zm-.958-.293c0 .86-.312 1.914-.82 2.617-.45.625-.879.938-1.367.938-.527 0-.879-.352-.879-1.016 0-.898.313-1.777.84-2.578.45-.664.937-1.016 1.426-1.016.488 0 .8.371.8 1.055ZM216.594 21.758l-.098-.04c-.254.43-.41.509-.723.509h-1.757l1.23-1.329c.664-.703.957-1.27.957-1.855 0-.742-.527-1.328-1.387-1.328-.918 0-1.386.625-1.543 1.504l.157.039c.293-.742.547-.977 1.093-.977.645 0 1.036.371 1.036 1.055 0 .644-.254 1.21-.977 1.953l-1.328 1.406v.098h2.93Zm0 0"/><path style="fill-rule:nonzero;fill:#b2d9ff;fill-opacity:1;stroke-width:.929626;stroke-linecap:round;stroke-linejoin:round;stroke:#000;stroke-opacity:1;stroke-miterlimit:10" d="M262.216 23.656c4.628 4.628 4.628 12.132 0 16.763-4.629 4.628-12.135 4.628-16.763 0-4.628-4.631-4.628-12.135 0-16.763 4.628-4.628 12.134-4.628 16.763 0" transform="matrix(1.25 0 0 1.25 -43.75 -23.75)"/><path style="stroke:none;fill-rule:nonzero;fill:#000;fill-opacity:1" d="M274.129 14.79c0-.997-.684-1.583-1.602-1.583-.449 0-.898.098-1.347.332-1.172.645-2.012 1.934-2.012 3.184 0 .976.586 1.562 1.64 1.562.743 0 1.465-.273 2.13-.918.742-.742 1.19-1.738 1.19-2.578Zm-.957-.294c0 .86-.313 1.914-.82 2.617-.45.625-.88.938-1.368.938-.527 0-.879-.352-.879-1.016 0-.898.313-1.777.84-2.578.45-.664.938-1.016 1.426-1.016s.8.371.8 1.055ZM274.93 18.09c.312-.547.664-.8 1.132-.8.489 0 .801.273.801.78 0 .45-.234.782-.605.996-.156.098-.352.176-.625.274v.098c.43 0 .586.019.762.078.507.156.78.527.78 1.093 0 .625-.429 1.153-.976 1.153-.215 0-.37-.04-.644-.235-.215-.156-.332-.195-.47-.195-.155 0-.292.098-.292.254 0 .273.293.43.84.43.664 0 1.367-.215 1.738-.684.215-.293.352-.664.352-1.055 0-.39-.137-.742-.332-.976-.157-.156-.293-.254-.625-.39.488-.294.683-.684.683-1.036 0-.605-.469-1.035-1.152-1.035-.781 0-1.27.508-1.485 1.23Zm0 0"/><path style="fill-rule:nonzero;fill:#66bfff;fill-opacity:1;stroke-width:.929626;stroke-linecap:round;stroke-linejoin:round;stroke:#000;stroke-opacity:1;stroke-miterlimit:10" d="M128.234 81.06c4.629 4.627 4.629 12.13 0 16.759-4.628 4.631-12.134 4.631-16.762 0-4.628-4.628-4.628-12.132 0-16.76 4.628-4.628 12.134-4.628 16.762 0" transform="matrix(1.25 0 0 1.25 -43.75 -23.75)"/><path style="stroke:none;fill-rule:nonzero;fill:#000;fill-opacity:1" d="M106.613 88.598c-.605.761-.742.898-.918.898-.117 0-.195-.078-.195-.195 0-.137.195-.82.371-1.406.352-1.055.547-1.895.547-2.168 0-.43-.215-.762-.723-.762-.703 0-1.582.722-2.597 2.383l1.367-5.04-.078-.058c-.664.137-1.094.215-1.778.293v.176h.313c.195 0 .469.078.469.273 0 .156-.059.352-.157.703l-1.64 6.23h.84c.449-1.737.625-2.128 1.074-2.812.586-.898 1.308-1.582 1.719-1.582.253 0 .312.117.312.293 0 .04-.039.196-.078.371l-.625 2.325c-.137.546-.215.898-.215 1.035 0 .293.195.468.488.468.586 0 .957-.293 1.641-1.27ZM109.953 93.676v-.117c-.566 0-.703-.137-.703-.45v-4.472l-.078-.04-1.328.684v.117l.195-.078a.99.99 0 0 1 .332-.097c.156 0 .234.117.234.37v3.38c0 .41-.156.566-.722.586v.117Zm0 0"/><path style="fill-rule:nonzero;fill:#66bfff;fill-opacity:1;stroke-width:.929626;stroke-linecap:round;stroke-linejoin:round;stroke:#000;stroke-opacity:1;stroke-miterlimit:10" d="M297.89 81.06c4.629 4.627 4.629 12.13 0 16.759-4.627 4.631-12.134 4.631-16.762 0-4.628-4.628-4.628-12.132 0-16.76 4.628-4.628 12.135-4.628 16.763 0" transform="matrix(1.25 0 0 1.25 -43.75 -23.75)"/><path style="stroke:none;fill-rule:nonzero;fill:#000;fill-opacity:1" d="M318.684 88.598c-.606.761-.743.898-.918.898-.118 0-.196-.078-.196-.195 0-.137.196-.82.371-1.406.352-1.055.547-1.895.547-2.168 0-.43-.215-.762-.722-.762-.704 0-1.582.722-2.598 2.383l1.367-5.04-.078-.058c-.664.137-1.094.215-1.777.293v.176h.312c.195 0 .469.078.469.273 0 .156-.059.352-.156.703l-1.64 6.23h.839c.45-1.737.625-2.128 1.074-2.812.586-.898 1.309-1.582 1.719-1.582.254 0 .312.117.312.293 0 .04-.039.196-.078.371l-.625 2.325c-.136.546-.215.898-.215 1.035 0 .293.196.468.489.468.586 0 .957-.293 1.64-1.27ZM322.355 88.559l-.058-.04c-.117.157-.195.196-.371.196h-1.543l-.82 1.777v.04c0 .038.019.058.078.058.722 0 1.25.234 1.601.527.332.254.508.645.508 1.113 0 .645-.488 1.27-1.016 1.27-.156 0-.332-.059-.527-.234-.254-.196-.39-.235-.566-.235-.215 0-.332.098-.332.293 0 .274.39.45.957.45.507 0 .918-.098 1.27-.352.507-.39.741-.84.741-1.563 0-.41-.078-.683-.273-.957-.43-.586-.8-.761-1.875-.957l.312-.644h1.446c.117 0 .175-.04.195-.098Zm0 0"/><path style="fill:none;stroke-width:.929626;stroke-linecap:round;stroke-linejoin:round;stroke:#000;stroke-opacity:1;stroke-miterlimit:10" d="m126.162 79.406 20.113-31.965" transform="matrix(1.25 0 0 1.25 -43.75 -23.75)"/><path style="fill:none;stroke-width:.929626;stroke-linecap:butt;stroke-linejoin:miter;stroke:#000;stroke-opacity:1;stroke-miterlimit:10" d="m148.253 44.294-1.978 3.147m-1.181-.741 3.16-2.406-.798 3.89" transform="matrix(1.25 0 0 1.25 -43.75 -23.75)"/><path style="fill:none;stroke-width:.929626;stroke-linecap:round;stroke-linejoin:round;stroke:#000;stroke-opacity:1;stroke-miterlimit:10" d="m129.706 82.85 60.532-40.46" transform="matrix(1.25 0 0 1.25 -43.75 -23.75)"/><path style="fill:none;stroke-width:.929626;stroke-linecap:butt;stroke-linejoin:miter;stroke:#000;stroke-opacity:1;stroke-miterlimit:10" d="m193.328 40.325-3.09 2.066m-.775-1.16 3.865-.906-2.316 3.222" transform="matrix(1.25 0 0 1.25 -43.75 -23.75)"/><path style="fill:none;stroke-width:.929626;stroke-linecap:round;stroke-linejoin:round;stroke:#000;stroke-opacity:1;stroke-miterlimit:10" d="m130.75 84.769 107.113-45.89" transform="matrix(1.25 0 0 1.25 -43.75 -23.75)"/><path style="fill:none;stroke-width:.929626;stroke-linecap:butt;stroke-linejoin:miter;stroke:#000;stroke-opacity:1;stroke-miterlimit:10" d="m241.281 37.413-3.418 1.465m-.55-1.281 3.968-.184-2.869 2.746" transform="matrix(1.25 0 0 1.25 -43.75 -23.75)"/><path style="fill:none;stroke-width:.929626;stroke-linecap:round;stroke-linejoin:round;stroke:#000;stroke-opacity:1;stroke-miterlimit:10" d="m160.869 77.669-3.29-27.685" transform="matrix(1.25 0 0 1.25 -43.75 -23.75)"/><path style="fill:none;stroke-width:.929626;stroke-linecap:butt;stroke-linejoin:miter;stroke:#000;stroke-opacity:1;stroke-miterlimit:10" d="m157.14 46.294.438 3.69m-1.387.166.95-3.856 1.822 3.525" transform="matrix(1.25 0 0 1.25 -43.75 -23.75)"/><path style="fill:none;stroke-width:.929626;stroke-linecap:round;stroke-linejoin:round;stroke:#000;stroke-opacity:1;stroke-miterlimit:10" d="m169.369 79.95 24.906-33.306" transform="matrix(1.25 0 0 1.25 -43.75 -23.75)"/><path style="fill:none;stroke-width:.929626;stroke-linecap:butt;stroke-linejoin:miter;stroke:#000;stroke-opacity:1;stroke-miterlimit:10" d="m196.503 43.669-2.228 2.975m-1.119-.831 3.347-2.144-1.112 3.812" transform="matrix(1.25 0 0 1.25 -43.75 -23.75)"/><path style="fill:none;stroke-width:.929626;stroke-linecap:round;stroke-linejoin:round;stroke:#000;stroke-opacity:1;stroke-miterlimit:10" d="m172.313 83.144 66.8-41.878" transform="matrix(1.25 0 0 1.25 -43.75 -23.75)"/><path style="fill:none;stroke-width:.929626;stroke-linecap:butt;stroke-linejoin:miter;stroke:#000;stroke-opacity:1;stroke-miterlimit:10" d="m242.266 39.288-3.153 1.978m-.741-1.185 3.894-.794-2.41 3.157" transform="matrix(1.25 0 0 1.25 -43.75 -23.75)"/><path style="fill:none;stroke-width:.929626;stroke-linecap:round;stroke-linejoin:round;stroke:#000;stroke-opacity:1;stroke-miterlimit:10" d="M196.919 80.484 166.906 45.86" transform="matrix(1.25 0 0 1.25 -43.75 -23.75)"/><path style="fill:none;stroke-width:.929626;stroke-linecap:butt;stroke-linejoin:miter;stroke:#000;stroke-opacity:1;stroke-miterlimit:10" d="m164.472 43.05 2.434 2.81m-1.056.915-1.378-3.725 3.49 1.9" transform="matrix(1.25 0 0 1.25 -43.75 -23.75)"/><path style="fill:none;stroke-width:.929626;stroke-linecap:round;stroke-linejoin:round;stroke:#000;stroke-opacity:1;stroke-miterlimit:10" d="M204.681 77.588V50.106" transform="matrix(1.25 0 0 1.25 -43.75 -23.75)"/><path style="fill:none;stroke-width:.929626;stroke-linecap:butt;stroke-linejoin:miter;stroke:#000;stroke-opacity:1;stroke-miterlimit:10" d="M204.681 46.388v3.718m-1.397 0 1.397-3.718 1.394 3.718" transform="matrix(1.25 0 0 1.25 -43.75 -23.75)"/><path style="fill:none;stroke-width:.929626;stroke-linecap:round;stroke-linejoin:round;stroke:#000;stroke-opacity:1;stroke-miterlimit:10" d="m212.39 80.438 30.144-35.207" transform="matrix(1.25 0 0 1.25 -43.75 -23.75)"/><path style="fill:none;stroke-width:.929626;stroke-linecap:butt;stroke-linejoin:miter;stroke:#000;stroke-opacity:1;stroke-miterlimit:10" d="m244.953 42.406-2.419 2.825m-1.059-.906 3.478-1.919-1.36 3.735" transform="matrix(1.25 0 0 1.25 -43.75 -23.75)"/><path style="fill:none;stroke-width:.929626;stroke-linecap:round;stroke-linejoin:round;stroke:#000;stroke-opacity:1;stroke-miterlimit:10" d="M237.016 83.2 170.3 41.881" transform="matrix(1.25 0 0 1.25 -43.75 -23.75)"/><path style="fill:none;stroke-width:.929626;stroke-linecap:butt;stroke-linejoin:miter;stroke:#000;stroke-opacity:1;stroke-miterlimit:10" d="m167.137 39.922 3.163 1.96m-.734 1.184-2.429-3.144 3.897.772" transform="matrix(1.25 0 0 1.25 -43.75 -23.75)"/><path style="fill:none;stroke-width:.929626;stroke-linecap:round;stroke-linejoin:round;stroke:#000;stroke-opacity:1;stroke-miterlimit:10" d="m239.997 79.95-24.91-33.306" transform="matrix(1.25 0 0 1.25 -43.75 -23.75)"/><path style="fill:none;stroke-width:.929626;stroke-linecap:butt;stroke-linejoin:miter;stroke:#000;stroke-opacity:1;stroke-miterlimit:10" d="m212.86 43.669 2.227 2.975m-1.115.837-1.113-3.812 3.344 2.144" transform="matrix(1.25 0 0 1.25 -43.75 -23.75)"/><path style="fill:none;stroke-width:.929626;stroke-linecap:round;stroke-linejoin:round;stroke:#000;stroke-opacity:1;stroke-miterlimit:10" d="m248.475 77.669 3.334-28.381" transform="matrix(1.25 0 0 1.25 -43.75 -23.75)"/><path style="fill:none;stroke-width:.929626;stroke-linecap:butt;stroke-linejoin:miter;stroke:#000;stroke-opacity:1;stroke-miterlimit:10" d="m252.244 45.597-.435 3.69m-1.384-.159 1.819-3.531.95 3.856" transform="matrix(1.25 0 0 1.25 -43.75 -23.75)"/><path style="fill:none;stroke-width:.929626;stroke-linecap:round;stroke-linejoin:round;stroke:#000;stroke-opacity:1;stroke-miterlimit:10" d="M278.59 84.819 171.529 39.503" transform="matrix(1.25 0 0 1.25 -43.75 -23.75)"/><path style="fill:none;stroke-width:.929626;stroke-linecap:butt;stroke-linejoin:miter;stroke:#000;stroke-opacity:1;stroke-miterlimit:10" d="m168.106 38.056 3.422 1.447m-.544 1.285-2.878-2.732 3.969.166" transform="matrix(1.25 0 0 1.25 -43.75 -23.75)"/><path style="fill:none;stroke-width:.929626;stroke-linecap:round;stroke-linejoin:round;stroke:#000;stroke-opacity:1;stroke-miterlimit:10" d="m279.653 82.85-60.528-40.46" transform="matrix(1.25 0 0 1.25 -43.75 -23.75)"/><path style="fill:none;stroke-width:.929626;stroke-linecap:butt;stroke-linejoin:miter;stroke:#000;stroke-opacity:1;stroke-miterlimit:10" d="m216.034 40.325 3.091 2.066m-.775 1.156-2.316-3.222 3.87.906" transform="matrix(1.25 0 0 1.25 -43.75 -23.75)"/><path style="fill:none;stroke-width:.929626;stroke-linecap:round;stroke-linejoin:round;stroke:#000;stroke-opacity:1;stroke-miterlimit:10" d="m283.25 79.372-20.244-32.578" transform="matrix(1.25 0 0 1.25 -43.75 -23.75)"/><path style="fill:none;stroke-width:.929626;stroke-linecap:butt;stroke-linejoin:miter;stroke:#000;stroke-opacity:1;stroke-miterlimit:10" d="m261.044 43.638 1.962 3.156m-1.187.737-.775-3.893 3.147 2.421" transform="matrix(1.25 0 0 1.25 -43.75 -23.75)"/><path style="fill:none;stroke-width:.929626;stroke-linecap:round;stroke-linejoin:round;stroke:#000;stroke-opacity:1;stroke-miterlimit:10" d="m129.188 134.537-5.813-28.084" transform="matrix(1.25 0 0 1.25 -43.75 -23.75)"/><path style="fill:none;stroke-width:.929626;stroke-linecap:butt;stroke-linejoin:miter;stroke:#000;stroke-opacity:1;stroke-miterlimit:10" d="m122.622 102.813.753 3.64m-1.369.281.616-3.921 2.115 3.359" transform="matrix(1.25 0 0 1.25 -43.75 -23.75)"/><path style="fill:none;stroke-width:.929626;stroke-linecap:round;stroke-linejoin:round;stroke:#000;stroke-opacity:1;stroke-miterlimit:10" d="M137.231 135.719 154 104.722" transform="matrix(1.25 0 0 1.25 -43.75 -23.75)"/><path style="fill:none;stroke-width:.929626;stroke-linecap:butt;stroke-linejoin:miter;stroke:#000;stroke-opacity:1;stroke-miterlimit:10" d="M155.769 101.453 154 104.722m-1.225-.663 2.994-2.606-.544 3.934" transform="matrix(1.25 0 0 1.25 -43.75 -23.75)"/><path style="fill:none;stroke-width:.929626;stroke-linecap:round;stroke-linejoin:round;stroke:#000;stroke-opacity:1;stroke-miterlimit:10" d="m140.956 138.881 49.997-38.79" transform="matrix(1.25 0 0 1.25 -43.75 -23.75)"/><path style="fill:none;stroke-width:.929626;stroke-linecap:butt;stroke-linejoin:miter;stroke:#000;stroke-opacity:1;stroke-miterlimit:10" d="m193.89 97.813-2.937 2.278m-.856-1.103 3.794-1.175-2.082 3.378" transform="matrix(1.25 0 0 1.25 -43.75 -23.75)"/><path style="fill:none;stroke-width:.929626;stroke-linecap:round;stroke-linejoin:round;stroke:#000;stroke-opacity:1;stroke-miterlimit:10" d="m142.231 140.922 89.266-43.825" transform="matrix(1.25 0 0 1.25 -43.75 -23.75)"/><path style="fill:none;stroke-width:.929626;stroke-linecap:butt;stroke-linejoin:miter;stroke:#000;stroke-opacity:1;stroke-miterlimit:10" d="m234.838 95.456-3.341 1.64m-.616-1.25 3.957-.39-2.725 2.89" transform="matrix(1.25 0 0 1.25 -43.75 -23.75)"/><path style="fill:none;stroke-width:.929626;stroke-linecap:round;stroke-linejoin:round;stroke:#000;stroke-opacity:1;stroke-miterlimit:10" d="m142.747 142.14 130.41-46.827" transform="matrix(1.25 0 0 1.25 -43.75 -23.75)"/><path style="fill:none;stroke-width:.929626;stroke-linecap:butt;stroke-linejoin:miter;stroke:#000;stroke-opacity:1;stroke-miterlimit:10" d="m276.656 94.056-3.5 1.257M272.684 94l3.972.056-3.028 2.569" transform="matrix(1.25 0 0 1.25 -43.75 -23.75)"/><path style="fill:none;stroke-width:.929626;stroke-linecap:round;stroke-linejoin:round;stroke:#000;stroke-opacity:1;stroke-miterlimit:10" d="m172.069 138.069-39.503-36.788" transform="matrix(1.25 0 0 1.25 -43.75 -23.75)"/><path style="fill:none;stroke-width:.929626;stroke-linecap:butt;stroke-linejoin:miter;stroke:#000;stroke-opacity:1;stroke-miterlimit:10" d="m129.844 98.747 2.722 2.534m-.947 1.019-1.775-3.553 3.672 1.51" transform="matrix(1.25 0 0 1.25 -43.75 -23.75)"/><path style="fill:none;stroke-width:.929626;stroke-linecap:round;stroke-linejoin:round;stroke:#000;stroke-opacity:1;stroke-miterlimit:10" d="m177.069 134.875-9.419-28.912" transform="matrix(1.25 0 0 1.25 -43.75 -23.75)"/><path style="fill:none;stroke-width:.929626;stroke-linecap:butt;stroke-linejoin:miter;stroke:#000;stroke-opacity:1;stroke-miterlimit:10" d="m166.497 102.425 1.153 3.538m-1.325.428.172-3.966 2.478 3.103" transform="matrix(1.25 0 0 1.25 -43.75 -23.75)"/><path style="fill:none;stroke-width:.929626;stroke-linecap:round;stroke-linejoin:round;stroke:#000;stroke-opacity:1;stroke-miterlimit:10" d="m185.356 135.225 12.566-29.775" transform="matrix(1.25 0 0 1.25 -43.75 -23.75)"/><path style="fill:none;stroke-width:.929626;stroke-linecap:butt;stroke-linejoin:miter;stroke:#000;stroke-opacity:1;stroke-miterlimit:10" d="m199.372 102.025-1.45 3.425m-1.281-.544 2.73-2.881-.165 3.969" transform="matrix(1.25 0 0 1.25 -43.75 -23.75)"/><path style="fill:none;stroke-width:.929626;stroke-linecap:round;stroke-linejoin:round;stroke:#000;stroke-opacity:1;stroke-miterlimit:10" d="m189.753 138.444 44.135-37.719" transform="matrix(1.25 0 0 1.25 -43.75 -23.75)"/><path style="fill:none;stroke-width:.929626;stroke-linecap:butt;stroke-linejoin:miter;stroke:#000;stroke-opacity:1;stroke-miterlimit:10" d="m236.716 98.313-2.829 2.412m-.906-1.056 3.735-1.356-1.922 3.474" transform="matrix(1.25 0 0 1.25 -43.75 -23.75)"/><path style="fill:none;stroke-width:.929626;stroke-linecap:round;stroke-linejoin:round;stroke:#000;stroke-opacity:1;stroke-miterlimit:10" d="M191.256 140.669 274.1 97.472" transform="matrix(1.25 0 0 1.25 -43.75 -23.75)"/><path style="fill:none;stroke-width:.929626;stroke-linecap:butt;stroke-linejoin:miter;stroke:#000;stroke-opacity:1;stroke-miterlimit:10" d="m277.4 95.753-3.3 1.719m-.644-1.234 3.944-.485-2.653 2.96" transform="matrix(1.25 0 0 1.25 -43.75 -23.75)"/><path style="fill:none;stroke-width:.929626;stroke-linecap:round;stroke-linejoin:round;stroke:#000;stroke-opacity:1;stroke-miterlimit:10" d="M219.36 140.716 135.296 97.4" transform="matrix(1.25 0 0 1.25 -43.75 -23.75)"/><path style="fill:none;stroke-width:.929626;stroke-linecap:butt;stroke-linejoin:miter;stroke:#000;stroke-opacity:1;stroke-miterlimit:10" d="m131.994 95.694 3.303 1.706m-.638 1.24-2.665-2.946 3.944.465" transform="matrix(1.25 0 0 1.25 -43.75 -23.75)"/><path style="fill:none;stroke-width:.929626;stroke-linecap:round;stroke-linejoin:round;stroke:#000;stroke-opacity:1;stroke-miterlimit:10" d="M220.813 138.531 175.577 100.6" transform="matrix(1.25 0 0 1.25 -43.75 -23.75)"/><path style="fill:none;stroke-width:.929626;stroke-linecap:butt;stroke-linejoin:miter;stroke:#000;stroke-opacity:1;stroke-miterlimit:10" d="m172.731 98.216 2.847 2.384m-.894 1.072-1.953-3.456 3.744 1.318" transform="matrix(1.25 0 0 1.25 -43.75 -23.75)"/><path style="fill:none;stroke-width:.929626;stroke-linecap:round;stroke-linejoin:round;stroke:#000;stroke-opacity:1;stroke-miterlimit:10" d="m225.081 135.313-13.337-29.997" transform="matrix(1.25 0 0 1.25 -43.75 -23.75)"/><path style="fill:none;stroke-width:.929626;stroke-linecap:butt;stroke-linejoin:miter;stroke:#000;stroke-opacity:1;stroke-miterlimit:10" d="m210.231 101.919 1.513 3.397m-1.275.565-.238-3.962 2.785 2.831" transform="matrix(1.25 0 0 1.25 -43.75 -23.75)"/><path style="fill:none;stroke-width:.929626;stroke-linecap:round;stroke-linejoin:round;stroke:#000;stroke-opacity:1;stroke-miterlimit:10" d="m233.34 134.8 8.71-28.734" transform="matrix(1.25 0 0 1.25 -43.75 -23.75)"/><path style="fill:none;stroke-width:.929626;stroke-linecap:butt;stroke-linejoin:miter;stroke:#000;stroke-opacity:1;stroke-miterlimit:10" d="m243.131 102.506-1.081 3.56m-1.331-.404 2.412-3.156.256 3.966" transform="matrix(1.25 0 0 1.25 -43.75 -23.75)"/><path style="fill:none;stroke-width:.929626;stroke-linecap:round;stroke-linejoin:round;stroke:#000;stroke-opacity:1;stroke-miterlimit:10" d="m238.484 137.975 38.438-36.563" transform="matrix(1.25 0 0 1.25 -43.75 -23.75)"/><path style="fill:none;stroke-width:.929626;stroke-linecap:butt;stroke-linejoin:miter;stroke:#000;stroke-opacity:1;stroke-miterlimit:10" d="m279.619 98.85-2.697 2.563m-.96-1.01 3.657-1.553-1.738 3.575" transform="matrix(1.25 0 0 1.25 -43.75 -23.75)"/><path style="fill:none;stroke-width:.929626;stroke-linecap:round;stroke-linejoin:round;stroke:#000;stroke-opacity:1;stroke-miterlimit:10" d="m267.869 141.516-131.625-46.31" transform="matrix(1.25 0 0 1.25 -43.75 -23.75)"/><path style="fill:none;stroke-width:.929626;stroke-linecap:butt;stroke-linejoin:miter;stroke:#000;stroke-opacity:1;stroke-miterlimit:10" d="m132.734 93.972 3.51 1.234m-.463 1.319-3.047-2.553 3.972-.081" transform="matrix(1.25 0 0 1.25 -43.75 -23.75)"/><path style="fill:none;stroke-width:.929626;stroke-linecap:round;stroke-linejoin:round;stroke:#000;stroke-opacity:1;stroke-miterlimit:10" d="m268.36 140.325-90.426-43.372" transform="matrix(1.25 0 0 1.25 -43.75 -23.75)"/><path style="fill:none;stroke-width:.929626;stroke-linecap:butt;stroke-linejoin:miter;stroke:#000;stroke-opacity:1;stroke-miterlimit:10" d="m174.581 95.347 3.353 1.606m-.603 1.26-2.75-2.866 3.957.347" transform="matrix(1.25 0 0 1.25 -43.75 -23.75)"/><path style="fill:none;stroke-width:.929626;stroke-linecap:round;stroke-linejoin:round;stroke:#000;stroke-opacity:1;stroke-miterlimit:10" d="M269.581 138.319 218.56 99.89" transform="matrix(1.25 0 0 1.25 -43.75 -23.75)"/><path style="fill:none;stroke-width:.929626;stroke-linecap:butt;stroke-linejoin:miter;stroke:#000;stroke-opacity:1;stroke-miterlimit:10" d="m215.59 97.656 2.97 2.235m-.838 1.115-2.131-3.35 3.809 1.122" transform="matrix(1.25 0 0 1.25 -43.75 -23.75)"/><path style="fill:none;stroke-width:.929626;stroke-linecap:round;stroke-linejoin:round;stroke:#000;stroke-opacity:1;stroke-miterlimit:10" d="m273.175 135.153-17.469-30.622" transform="matrix(1.25 0 0 1.25 -43.75 -23.75)"/><path style="fill:none;stroke-width:.929626;stroke-linecap:butt;stroke-linejoin:miter;stroke:#000;stroke-opacity:1;stroke-miterlimit:10" d="m253.863 101.3 1.843 3.231m-1.21.69-.633-3.921 3.056 2.54" transform="matrix(1.25 0 0 1.25 -43.75 -23.75)"/><path style="fill:none;stroke-width:.929626;stroke-linecap:round;stroke-linejoin:round;stroke:#000;stroke-opacity:1;stroke-miterlimit:10" d="m281.225 133.797 5.094-27.278" transform="matrix(1.25 0 0 1.25 -43.75 -23.75)"/><path style="fill:none;stroke-width:.929626;stroke-linecap:butt;stroke-linejoin:miter;stroke:#000;stroke-opacity:1;stroke-miterlimit:10" d="m287.003 102.862-.684 3.657m-1.369-.257 2.053-3.4.688 3.913" transform="matrix(1.25 0 0 1.25 -43.75 -23.75)"/></svg>