<svg xmlns="http://www.w3.org/2000/svg" width="401pt" height="229pt" viewBox="0 0 401 229"><defs><clipPath id="a"><path d="M57 9h3v173.25h-3Zm0 0"/></clipPath><clipPath id="b"><path d="M97 9h3v173.25h-3Zm0 0"/></clipPath><clipPath id="c"><path d="M137 9h3v173.25h-3Zm0 0"/></clipPath><clipPath id="d"><path d="M177 9h2v173.25h-2Zm0 0"/></clipPath><clipPath id="e"><path d="M217 9h2v173.25h-2Zm0 0"/></clipPath><clipPath id="f"><path d="M257 9h2v173.25h-2Zm0 0"/></clipPath><clipPath id="g"><path d="M297 9h2v173.25h-2Zm0 0"/></clipPath><clipPath id="h"><path d="M337 9h2v173.25h-2Zm0 0"/></clipPath><clipPath id="i"><path d="M376 9h3v173.25h-3Zm0 0"/></clipPath><clipPath id="j"><path d="M42.8 173h348.75v3H42.8Zm0 0"/></clipPath><clipPath id="k"><path d="M42.8 133h348.75v3H42.8Zm0 0"/></clipPath><clipPath id="l"><path d="M42.8 93h348.75v3H42.8Zm0 0"/></clipPath><clipPath id="m"><path d="M42.8 54h348.75v2H42.8Zm0 0"/></clipPath><clipPath id="n"><path d="M42.8 14h348.75v2H42.8Zm0 0"/></clipPath></defs><path style="stroke:none;fill-rule:nonzero;fill:#fff;fill-opacity:1" d="M0 229.195h400.55V0H0Zm0 0"/><path style="stroke:none;fill-rule:nonzero;fill:#fff;fill-opacity:1" d="M42.8 182.25h348.75V9H42.8Zm0 0"/><g clip-path="url(#a)"><path style="fill:none;stroke-width:.8;stroke-linecap:square;stroke-linejoin:round;stroke:#b0b0b0;stroke-opacity:1;stroke-miterlimit:4" d="M46.922 145.8V7.2" transform="scale(1.25)"/></g><path style="fill:none;stroke-width:.8;stroke-linecap:butt;stroke-linejoin:round;stroke:#000;stroke-opacity:1;stroke-miterlimit:4" d="M0 0v3.5" transform="matrix(1.25 0 0 1.25 58.653 182.25)"/><path style="stroke:none;fill-rule:nonzero;fill:#000;fill-opacity:1" d="M50.762 196.063h7.824v1.035h-7.824ZM63.887 196.172c-.586 0-1.047.156-1.383.469-.336.312-.504.746-.504 1.293 0 .55.168.98.504 1.296.336.313.797.47 1.383.47s1.047-.157 1.383-.473c.34-.317.507-.747.507-1.293 0-.547-.168-.98-.504-1.293-.332-.313-.796-.47-1.386-.47Zm-1.235-.524c-.527-.132-.941-.378-1.234-.738-.297-.363-.441-.808-.441-1.328 0-.727.257-1.305.777-1.727.52-.421 1.23-.632 2.133-.632.906 0 1.617.21 2.136.632.516.422.774 1 .774 1.727 0 .52-.149.965-.442 1.328-.296.36-.703.606-1.23.738.594.137 1.059.407 1.387.813.332.402.5.89.5 1.473 0 .882-.27 1.562-.809 2.035-.539.472-1.312.707-2.316.707-1.004 0-1.778-.235-2.317-.707-.539-.473-.808-1.153-.808-2.035 0-.582.164-1.07.5-1.473.332-.406.797-.676 1.39-.813Zm-.449-1.949c0 .473.145.84.442 1.106.292.261.707.394 1.242.394.527 0 .941-.133 1.242-.394.297-.266.45-.633.45-1.106 0-.472-.153-.84-.45-1.105-.3-.266-.715-.395-1.242-.395-.535 0-.95.13-1.242.395-.297.265-.442.633-.442 1.105Zm0 0"/><g clip-path="url(#b)"><path style="fill:none;stroke-width:.8;stroke-linecap:square;stroke-linejoin:round;stroke:#b0b0b0;stroke-opacity:1;stroke-miterlimit:4" d="M78.825 145.8V7.2" transform="scale(1.25)"/></g><path style="fill:none;stroke-width:.8;stroke-linecap:butt;stroke-linejoin:round;stroke:#000;stroke-opacity:1;stroke-miterlimit:4" d="M-.001 0v3.5" transform="matrix(1.25 0 0 1.25 98.533 182.25)"/><path style="stroke:none;fill-rule:nonzero;fill:#000;fill-opacity:1" d="M90.645 196.063h7.824v1.035h-7.824ZM103.918 195.453c-.55 0-.992.188-1.316.567-.32.378-.485.894-.485 1.554 0 .656.164 1.172.485 1.555.324.379.765.57 1.316.57.555 0 .992-.191 1.316-.57.325-.383.485-.899.485-1.555 0-.66-.16-1.176-.485-1.554-.324-.38-.761-.567-1.316-.567Zm2.45-3.867v1.125a4.815 4.815 0 0 0-.938-.336 3.9 3.9 0 0 0-.938-.117c-.812 0-1.437.273-1.867.824-.426.55-.672 1.379-.734 2.492.242-.355.543-.629.902-.816a2.583 2.583 0 0 1 1.2-.281c.913 0 1.636.277 2.167.832.531.554.797 1.308.797 2.265 0 .938-.273 1.688-.828 2.254-.555.567-1.29.848-2.211.848-1.055 0-1.86-.403-2.418-1.211-.555-.809-.836-1.98-.836-3.512 0-1.441.344-2.59 1.027-3.445.684-.86 1.602-1.285 2.75-1.285.313 0 .625.027.938.09.316.062.644.152.988.273Zm0 0"/><g clip-path="url(#c)"><path style="fill:none;stroke-width:.8;stroke-linecap:square;stroke-linejoin:round;stroke:#b0b0b0;stroke-opacity:1;stroke-miterlimit:4" d="M110.731 145.8V7.2" transform="scale(1.25)"/></g><path style="fill:none;stroke-width:.8;stroke-linecap:butt;stroke-linejoin:round;stroke:#000;stroke-opacity:1;stroke-miterlimit:4" d="M0 0v3.5" transform="matrix(1.25 0 0 1.25 138.413 182.25)"/><path style="stroke:none;fill-rule:nonzero;fill:#000;fill-opacity:1" d="M130.523 196.063h7.825v1.035h-7.825ZM144.398 192.46l-3.113 4.864h3.113Zm-.324-1.073h1.551v5.937h1.3v1.028h-1.3v2.148h-1.227v-2.148h-4.113v-1.192Zm0 0"/><g clip-path="url(#d)"><path style="fill:none;stroke-width:.8;stroke-linecap:square;stroke-linejoin:round;stroke:#b0b0b0;stroke-opacity:1;stroke-miterlimit:4" d="M142.634 145.8V7.2" transform="scale(1.25)"/></g><path style="fill:none;stroke-width:.8;stroke-linecap:butt;stroke-linejoin:round;stroke:#000;stroke-opacity:1;stroke-miterlimit:4" d="M0 0v3.5" transform="matrix(1.25 0 0 1.25 178.293 182.25)"/><path style="stroke:none;fill-rule:nonzero;fill:#000;fill-opacity:1" d="M170.402 196.063h7.825v1.035h-7.825ZM181.95 199.46h4.304v1.04h-5.785v-1.04c.469-.483 1.105-1.132 1.91-1.948.809-.817 1.316-1.344 1.523-1.578.395-.446.672-.82.828-1.125.157-.309.235-.61.235-.907 0-.484-.168-.879-.508-1.183-.34-.309-.781-.461-1.328-.461-.387 0-.797.066-1.227.203a7.299 7.299 0 0 0-1.375.61v-1.247c.496-.199.961-.347 1.391-.449a5.235 5.235 0 0 1 1.187-.152c.946 0 1.696.234 2.258.707.563.472.84 1.101.84 1.89 0 .375-.07.73-.21 1.067-.138.336-.395.73-.766 1.187-.102.117-.422.457-.97 1.024-.542.562-1.312 1.351-2.308 2.363Zm0 0"/><g clip-path="url(#e)"><path style="fill:none;stroke-width:.8;stroke-linecap:square;stroke-linejoin:round;stroke:#b0b0b0;stroke-opacity:1;stroke-miterlimit:4" d="M174.537 145.8V7.2" transform="scale(1.25)"/></g><path style="fill:none;stroke-width:.8;stroke-linecap:butt;stroke-linejoin:round;stroke:#000;stroke-opacity:1;stroke-miterlimit:4" d="M0 0v3.5" transform="matrix(1.25 0 0 1.25 218.173 182.25)"/><path style="stroke:none;fill-rule:nonzero;fill:#000;fill-opacity:1" d="M218.168 192.2c-.633 0-1.11.312-1.43.937-.32.62-.48 1.562-.48 2.816 0 1.246.16 2.184.48 2.809.32.625.797.937 1.43.937.64 0 1.121-.312 1.437-.937.32-.625.48-1.563.48-2.809 0-1.254-.16-2.195-.48-2.816-.316-.625-.796-.938-1.437-.938Zm0-.977c1.023 0 1.805.402 2.344 1.21.539.81.808 1.981.808 3.52 0 1.531-.27 2.703-.808 3.512-.54.808-1.32 1.21-2.344 1.21-1.02 0-1.8-.402-2.34-1.21-.539-.809-.808-1.98-.808-3.512 0-1.539.27-2.71.808-3.52.54-.808 1.32-1.21 2.34-1.21Zm0 0"/><g clip-path="url(#f)"><path style="fill:none;stroke-width:.8;stroke-linecap:square;stroke-linejoin:round;stroke:#b0b0b0;stroke-opacity:1;stroke-miterlimit:4" d="M206.44 145.8V7.2" transform="scale(1.25)"/></g><path style="fill:none;stroke-width:.8;stroke-linecap:butt;stroke-linejoin:round;stroke:#000;stroke-opacity:1;stroke-miterlimit:4" d="M-.002 0v3.5" transform="matrix(1.25 0 0 1.25 258.053 182.25)"/><path style="stroke:none;fill-rule:nonzero;fill:#000;fill-opacity:1" d="M256.473 199.46h4.304v1.04h-5.785v-1.04a323.57 323.57 0 0 1 1.91-1.948c.809-.817 1.317-1.344 1.524-1.578.394-.446.672-.82.828-1.125.156-.309.234-.61.234-.907 0-.484-.168-.879-.508-1.183-.34-.309-.78-.461-1.328-.461-.386 0-.797.066-1.226.203a7.299 7.299 0 0 0-1.375.61v-1.247c.496-.199.96-.347 1.39-.449a5.235 5.235 0 0 1 1.188-.152c.945 0 1.695.234 2.258.707.562.472.84 1.101.84 1.89 0 .375-.07.73-.211 1.067-.137.336-.395.73-.766 1.187a40.22 40.22 0 0 1-.969 1.024 348.18 348.18 0 0 1-2.308 2.363Zm0 0"/><g clip-path="url(#g)"><path style="fill:none;stroke-width:.8;stroke-linecap:square;stroke-linejoin:round;stroke:#b0b0b0;stroke-opacity:1;stroke-miterlimit:4" d="M238.347 145.8V7.2" transform="scale(1.25)"/></g><path style="fill:none;stroke-width:.8;stroke-linecap:butt;stroke-linejoin:round;stroke:#000;stroke-opacity:1;stroke-miterlimit:4" d="M0 0v3.5" transform="matrix(1.25 0 0 1.25 297.933 182.25)"/><path style="stroke:none;fill-rule:nonzero;fill:#000;fill-opacity:1" d="m298.68 192.46-3.114 4.864h3.114Zm-.325-1.073h1.551v5.937h1.301v1.028h-1.3v2.148h-1.227v-2.148h-4.114v-1.192Zm0 0"/><g clip-path="url(#h)"><path style="fill:none;stroke-width:.8;stroke-linecap:square;stroke-linejoin:round;stroke:#b0b0b0;stroke-opacity:1;stroke-miterlimit:4" d="M270.25 145.8V7.2" transform="scale(1.25)"/></g><path style="fill:none;stroke-width:.8;stroke-linecap:butt;stroke-linejoin:round;stroke:#000;stroke-opacity:1;stroke-miterlimit:4" d="M0 0v3.5" transform="matrix(1.25 0 0 1.25 337.813 182.25)"/><path style="stroke:none;fill-rule:nonzero;fill:#000;fill-opacity:1" d="M337.965 195.453c-.555 0-.992.188-1.317.567-.324.378-.484.894-.484 1.554 0 .656.16 1.172.484 1.555.325.379.762.57 1.317.57.55 0 .988-.191 1.312-.57.325-.383.485-.899.485-1.555 0-.66-.16-1.176-.485-1.554-.324-.38-.761-.567-1.312-.567Zm2.445-3.867v1.125a4.815 4.815 0 0 0-.937-.336 3.9 3.9 0 0 0-.938-.117c-.812 0-1.433.273-1.863.824-.43.55-.676 1.379-.735 2.492.239-.355.54-.629.903-.816a2.567 2.567 0 0 1 1.195-.281c.914 0 1.64.277 2.172.832.531.554.797 1.308.797 2.265 0 .938-.277 1.688-.832 2.254-.555.567-1.29.848-2.207.848-1.055 0-1.863-.403-2.418-1.211-.559-.809-.836-1.98-.836-3.512 0-1.441.34-2.59 1.023-3.445.684-.86 1.602-1.285 2.754-1.285.309 0 .621.027.938.09.312.062.64.152.984.273Zm0 0"/><g clip-path="url(#i)"><path style="fill:none;stroke-width:.8;stroke-linecap:square;stroke-linejoin:round;stroke:#b0b0b0;stroke-opacity:1;stroke-miterlimit:4" d="M302.153 145.8V7.2" transform="scale(1.25)"/></g><path style="fill:none;stroke-width:.8;stroke-linecap:butt;stroke-linejoin:round;stroke:#000;stroke-opacity:1;stroke-miterlimit:4" d="M0 0v3.5" transform="matrix(1.25 0 0 1.25 377.693 182.25)"/><path style="stroke:none;fill-rule:nonzero;fill:#000;fill-opacity:1" d="M377.688 196.172c-.586 0-1.047.156-1.383.469-.332.312-.5.746-.5 1.293 0 .55.168.98.5 1.296.336.313.797.47 1.382.47.586 0 1.047-.157 1.387-.473.336-.317.508-.747.508-1.293 0-.547-.168-.98-.504-1.293-.336-.313-.797-.47-1.39-.47Zm-1.231-.524c-.531-.132-.941-.378-1.238-.738-.293-.363-.442-.808-.442-1.328 0-.727.262-1.305.778-1.727.52-.421 1.23-.632 2.132-.632.91 0 1.622.21 2.137.632.52.422.778 1 .778 1.727 0 .52-.149.965-.446 1.328-.293.36-.703.606-1.226.738.593.137 1.054.407 1.386.813.332.402.497.89.497 1.473 0 .882-.27 1.562-.81 2.035-.538.472-1.308.707-2.315.707-1.004 0-1.774-.235-2.317-.707-.539-.473-.808-1.153-.808-2.035 0-.582.167-1.07.5-1.473.335-.406.8-.676 1.394-.813Zm-.453-1.949c0 .473.148.84.441 1.106.297.261.711.394 1.243.394.53 0 .945-.133 1.242-.394.3-.266.449-.633.449-1.106 0-.472-.149-.84-.45-1.105-.296-.266-.71-.395-1.241-.395-.532 0-.946.13-1.243.395-.293.265-.441.633-.441 1.105ZM220.336 210.762l-2.469 3.324 2.598 3.512h-1.324l-1.993-2.688-1.984 2.688h-1.328l2.656-3.578-2.43-3.258h1.325l1.812 2.433 1.813-2.433Zm0 0"/><g clip-path="url(#j)"><path style="fill:none;stroke-width:.8;stroke-linecap:square;stroke-linejoin:round;stroke:#b0b0b0;stroke-opacity:1;stroke-miterlimit:4" d="M34.24 139.5h279" transform="scale(1.25)"/></g><path style="fill:none;stroke-width:.8;stroke-linecap:butt;stroke-linejoin:round;stroke:#000;stroke-opacity:1;stroke-miterlimit:4" d="M0 0h-3.5" transform="matrix(1.25 0 0 1.25 42.8 174.375)"/><path style="stroke:none;fill-rule:nonzero;fill:#000;fill-opacity:1" d="M30.07 170.824c-.633 0-1.11.313-1.43.938-.32.62-.48 1.562-.48 2.816 0 1.246.16 2.184.48 2.809.32.625.797.937 1.43.937.64 0 1.117-.312 1.438-.937.32-.625.48-1.563.48-2.809 0-1.254-.16-2.195-.48-2.816-.32-.625-.797-.938-1.438-.938Zm0-.976c1.024 0 1.805.402 2.344 1.21.54.81.805 1.981.805 3.52 0 1.531-.266 2.703-.805 3.512-.539.808-1.32 1.21-2.344 1.21-1.02 0-1.8-.402-2.34-1.21-.539-.809-.808-1.98-.808-3.512 0-1.539.27-2.71.808-3.52.54-.808 1.32-1.21 2.34-1.21Zm0 0"/><g clip-path="url(#k)"><path style="fill:none;stroke-width:.8;stroke-linecap:square;stroke-linejoin:round;stroke:#b0b0b0;stroke-opacity:1;stroke-miterlimit:4" d="M34.24 107.6h279" transform="scale(1.25)"/></g><path style="fill:none;stroke-width:.8;stroke-linecap:butt;stroke-linejoin:round;stroke:#000;stroke-opacity:1;stroke-miterlimit:4" d="M0-.001h-3.5" transform="matrix(1.25 0 0 1.25 42.8 134.502)"/><path style="stroke:none;fill-rule:nonzero;fill:#000;fill-opacity:1" d="M28.496 138.215h4.3v1.035h-5.78v-1.035c.464-.485 1.101-1.137 1.91-1.95.808-.816 1.316-1.343 1.523-1.581.395-.442.668-.817.824-1.125.16-.309.239-.61.239-.907 0-.484-.168-.879-.512-1.183-.336-.305-.781-.457-1.328-.457-.383 0-.793.066-1.223.199-.43.133-.887.34-1.375.613v-1.246c.496-.2.961-.351 1.39-.453a5.23 5.23 0 0 1 1.184-.152c.946 0 1.7.238 2.258.71.563.47.844 1.102.844 1.891 0 .375-.07.73-.21 1.067-.142.332-.395.726-.767 1.183-.101.117-.425.461-.968 1.024l-2.309 2.367Zm0 0"/><g clip-path="url(#l)"><path style="fill:none;stroke-width:.8;stroke-linecap:square;stroke-linejoin:round;stroke:#b0b0b0;stroke-opacity:1;stroke-miterlimit:4" d="M34.24 75.703h279" transform="scale(1.25)"/></g><path style="fill:none;stroke-width:.8;stroke-linecap:butt;stroke-linejoin:round;stroke:#000;stroke-opacity:1;stroke-miterlimit:4" d="M0 0h-3.5" transform="matrix(1.25 0 0 1.25 42.8 94.628)"/><path style="stroke:none;fill-rule:nonzero;fill:#000;fill-opacity:1" d="m30.82 91.34-3.11 4.863h3.11Zm-.32-1.074h1.547v5.937h1.305v1.027h-1.305v2.149H30.82V97.23h-4.11v-1.19Zm0 0"/><g clip-path="url(#m)"><path style="fill:none;stroke-width:.8;stroke-linecap:square;stroke-linejoin:round;stroke:#b0b0b0;stroke-opacity:1;stroke-miterlimit:4" d="M34.24 43.803h279" transform="scale(1.25)"/></g><path style="fill:none;stroke-width:.8;stroke-linecap:butt;stroke-linejoin:round;stroke:#000;stroke-opacity:1;stroke-miterlimit:4" d="M0 0h-3.5" transform="matrix(1.25 0 0 1.25 42.8 54.755)"/><path style="stroke:none;fill-rule:nonzero;fill:#000;fill-opacity:1" d="M30.227 54.457c-.555 0-.993.188-1.32.566-.321.38-.485.899-.485 1.555 0 .656.164 1.176.484 1.555.328.383.766.57 1.32.57.551 0 .989-.187 1.313-.57.324-.38.484-.899.484-1.555 0-.656-.16-1.176-.484-1.555-.324-.378-.762-.566-1.312-.566Zm2.445-3.867v1.125a5.086 5.086 0 0 0-.938-.336 3.9 3.9 0 0 0-.937-.117c-.813 0-1.438.277-1.867.824-.426.55-.672 1.383-.735 2.492.242-.355.543-.625.907-.816.359-.188.761-.282 1.195-.282.914 0 1.64.278 2.172.833.531.554.797 1.312.797 2.265 0 .938-.278 1.688-.832 2.254-.555.566-1.29.848-2.207.848-1.055 0-1.864-.403-2.422-1.211-.555-.809-.836-1.977-.836-3.512 0-1.441.343-2.59 1.027-3.445.684-.856 1.602-1.285 2.754-1.285.309 0 .621.03.938.09.312.062.64.152.984.273Zm0 0"/><g clip-path="url(#n)"><path style="fill:none;stroke-width:.8;stroke-linecap:square;stroke-linejoin:round;stroke:#b0b0b0;stroke-opacity:1;stroke-miterlimit:4" d="M34.24 11.906h279" transform="scale(1.25)"/></g><path style="fill:none;stroke-width:.8;stroke-linecap:butt;stroke-linejoin:round;stroke:#000;stroke-opacity:1;stroke-miterlimit:4" d="M0 .001h-3.5" transform="matrix(1.25 0 0 1.25 42.8 14.881)"/><path style="stroke:none;fill-rule:nonzero;fill:#000;fill-opacity:1" d="M30.07 15.3c-.586 0-1.047.16-1.383.473-.335.313-.5.747-.5 1.293 0 .551.165.98.5 1.293.336.317.797.473 1.383.473s1.047-.156 1.383-.473c.34-.316.508-.746.508-1.293 0-.546-.164-.98-.5-1.293-.336-.312-.8-.472-1.39-.472Zm-1.234-.523c-.527-.129-.938-.375-1.234-.738-.293-.363-.442-.805-.442-1.324 0-.727.258-1.305.777-1.727.52-.422 1.231-.636 2.133-.636.907 0 1.621.214 2.137.636.516.422.777 1 .777 1.727 0 .52-.148.96-.445 1.324-.293.363-.703.61-1.227.738.594.141 1.055.41 1.383.813.336.402.5.894.5 1.476 0 .883-.27 1.563-.808 2.036-.54.472-1.313.707-2.317.707-1.004 0-1.777-.235-2.316-.707-.54-.473-.809-1.153-.809-2.036 0-.582.168-1.074.5-1.476.336-.402.797-.672 1.39-.813Zm-.45-1.945c0 .473.15.84.442 1.102.297.265.711.398 1.242.398.532 0 .946-.133 1.242-.398.301-.262.45-.63.45-1.102 0-.473-.149-.84-.45-1.105-.296-.266-.71-.399-1.242-.399-.53 0-.945.133-1.242.399-.293.265-.441.632-.441 1.105ZM12.71 111.035a1.447 1.447 0 0 0-.16.41c-.034.149-.05.313-.05.493 0 .632.203 1.12.617 1.46.414.34 1.008.512 1.781.512H18.5v1.13h-6.836v-1.13h1.063c-.418-.238-.727-.547-.926-.922-.203-.379-.301-.84-.301-1.383a3.699 3.699 0 0 1 .059-.566ZM14.8 104.29h.548v5.163c.773-.05 1.363-.281 1.77-.7.402-.417.605-.995.605-1.741 0-.43-.051-.848-.157-1.254a5.577 5.577 0 0 0-.476-1.207h1.062c.168.402.301.816.391 1.242.09.422.133.852.133 1.285 0 1.09-.317 1.957-.95 2.594-.636.637-1.496.953-2.578.953-1.12 0-2.007-.3-2.664-.906-.656-.606-.984-1.418-.984-2.446 0-.918.293-1.644.887-2.18.59-.534 1.394-.804 2.414-.804Zm-.331 1.124c-.614.008-1.102.18-1.469.516s-.55.777-.55 1.332c0 .625.175 1.129.53 1.504.356.375.852.593 1.497.652ZM9 102.445v-1.12h9.5v1.12ZM15.8 99.09h-4.136v-1.125h4.094c.648 0 1.133-.125 1.457-.375.324-.254.484-.633.484-1.137 0-.605-.191-1.086-.578-1.437-.387-.352-.914-.528-1.582-.528h-3.875v-1.125H18.5v1.125h-1.05c.413.27.722.586.925.95.2.359.3.777.3 1.253 0 .786-.241 1.38-.73 1.79-.488.406-1.203.609-2.144.609Zm-4.3-2.828ZM9.016 88.355c.933.543 1.859.95 2.777 1.215.914.262 1.84.395 2.781.395.938 0 1.871-.133 2.793-.399.922-.27 1.848-.671 2.781-1.21v.976c-.957.61-1.898 1.066-2.82 1.367a8.77 8.77 0 0 1-2.754.457c-.906 0-1.82-.152-2.738-.453-.922-.3-1.863-.758-2.82-1.371ZM11.664 80.492l3.324 2.473 3.512-2.602v1.325l-2.688 1.992 2.688 1.988v1.324l-3.578-2.656-3.258 2.43V85.44l2.434-1.812-2.434-1.813ZM9.016 78.953v-.976c.957-.61 1.898-1.067 2.82-1.372a8.762 8.762 0 0 1 2.738-.453c.91 0 1.828.153 2.754.453.922.305 1.863.762 2.82 1.372v.976c-.933-.539-1.859-.945-2.78-1.21a10.06 10.06 0 0 0-2.794-.403c-.941 0-1.867.137-2.781.402-.918.266-1.844.672-2.777 1.211Zm0 0"/><path style="fill:none;stroke-width:1.5;stroke-linecap:square;stroke-linejoin:round;stroke:#1f77b4;stroke-opacity:1;stroke-miterlimit:4" d="M46.922 139.5h127.615l126.022-126" transform="scale(1.25)"/><path style="fill:none;stroke-width:.8;stroke-linecap:square;stroke-linejoin:miter;stroke:#000;stroke-opacity:1;stroke-miterlimit:4" d="M34.24 145.8V7.2M313.24 145.8V7.2M34.24 145.8h279M34.24 7.2h279" transform="scale(1.25)"/></svg>