<svg xmlns="http://www.w3.org/2000/svg" width="439.975" height="240.875"><defs><clipPath id="a"><path d="M74 9.602h3V190.8h-3Zm0 0"/></clipPath><clipPath id="b"><path d="M117 9.602h2V190.8h-2Zm0 0"/></clipPath><clipPath id="c"><path d="M159 9.602h3V190.8h-3Zm0 0"/></clipPath><clipPath id="d"><path d="M202 9.602h2V190.8h-2Zm0 0"/></clipPath><clipPath id="e"><path d="M244 9.602h3V190.8h-3Zm0 0"/></clipPath><clipPath id="f"><path d="M287 9.602h2V190.8h-2Zm0 0"/></clipPath><clipPath id="g"><path d="M329 9.602h3V190.8h-3Zm0 0"/></clipPath><clipPath id="h"><path d="M372 9.602h2V190.8h-2Zm0 0"/></clipPath><clipPath id="i"><path d="M414 9.602h3V190.8h-3Zm0 0"/></clipPath><clipPath id="j"><path d="M58.375 181h372v3h-372Zm0 0"/></clipPath><clipPath id="k"><path d="M58.375 148h372v3h-372Zm0 0"/></clipPath><clipPath id="l"><path d="M58.375 115h372v3h-372Zm0 0"/></clipPath><clipPath id="m"><path d="M58.375 82h372v3h-372Zm0 0"/></clipPath><clipPath id="n"><path d="M58.375 49h372v3h-372Zm0 0"/></clipPath><clipPath id="o"><path d="M58.375 17h372v2h-372Zm0 0"/></clipPath></defs><path style="stroke:none;fill-rule:nonzero;fill:#fff;fill-opacity:1" d="M58.375 190.8h372V9.603h-372Zm0 0"/><g clip-path="url(#a)"><path style="fill:none;stroke-width:.8;stroke-linecap:square;stroke-linejoin:round;stroke:#b0b0b0;stroke-opacity:1;stroke-miterlimit:4" d="M56.464 143.1V7.202" transform="matrix(1.33333 0 0 1.33333 0 0)"/></g><path style="fill:none;stroke-width:.8;stroke-linecap:butt;stroke-linejoin:round;stroke:#000;stroke-opacity:1;stroke-miterlimit:4" d="M0 0V3.5" transform="matrix(1.33333 0 0 1.33333 75.284 190.8)"/><path style="stroke:none;fill-rule:nonzero;fill:#000;fill-opacity:1" d="M66.867 205.531h8.348v1.106h-8.348ZM80.867 205.648c-.625 0-1.117.168-1.476.5-.356.336-.536.797-.536 1.38 0 .59.18 1.046.536 1.382.359.336.851.504 1.476.504s1.117-.168 1.477-.504c.36-.34.539-.8.539-1.383 0-.582-.18-1.043-.535-1.379-.36-.332-.852-.5-1.48-.5Zm-1.316-.558c-.563-.14-1.004-.403-1.32-.79-.313-.386-.47-.859-.47-1.413 0-.778.278-1.39.829-1.84.555-.453 1.312-.68 2.277-.68.965 0 1.727.227 2.278.68.55.45.828 1.062.828 1.84 0 .554-.16 1.027-.473 1.414-.316.387-.754.648-1.313.789.633.148 1.13.437 1.481.867.355.43.531.953.531 1.57 0 .946-.289 1.668-.863 2.172-.574.504-1.398.754-2.469.754-1.074 0-1.894-.25-2.472-.754-.575-.504-.864-1.226-.864-2.172 0-.617.18-1.14.535-1.57.356-.43.852-.719 1.485-.867Zm-.48-2.078c0 .504.156.894.468 1.18.316.28.758.421 1.328.421.563 0 1.004-.14 1.324-.422.32-.285.477-.675.477-1.18 0-.503-.156-.894-.477-1.179-.32-.281-.761-.422-1.324-.422-.57 0-1.012.14-1.328.422-.312.285-.469.676-.469 1.18Zm0 0"/><g clip-path="url(#b)"><path style="fill:none;stroke-width:.8;stroke-linecap:square;stroke-linejoin:round;stroke:#b0b0b0;stroke-opacity:1;stroke-miterlimit:4" d="M88.368 143.1V7.202" transform="matrix(1.33333 0 0 1.33333 0 0)"/></g><path style="fill:none;stroke-width:.8;stroke-linecap:butt;stroke-linejoin:round;stroke:#000;stroke-opacity:1;stroke-miterlimit:4" d="M.001 0V3.5" transform="matrix(1.33333 0 0 1.33333 117.823 190.8)"/><path style="stroke:none;fill-rule:nonzero;fill:#000;fill-opacity:1" d="M109.406 205.531h8.348v1.106h-8.348ZM123.57 204.883c-.593 0-1.058.199-1.406.605-.344.403-.516.953-.516 1.657 0 .699.172 1.253.516 1.66.348.406.813.61 1.406.61.59 0 1.055-.204 1.399-.61.347-.407.52-.961.52-1.66 0-.704-.173-1.254-.52-1.657-.344-.406-.809-.605-1.399-.605Zm2.61-4.125v1.199a5.282 5.282 0 0 0-1-.355 4.03 4.03 0 0 0-1-.125c-.868 0-1.532.293-1.993.878-.457.586-.714 1.47-.78 2.657.253-.38.573-.668.96-.871.39-.2.817-.301 1.278-.301.976 0 1.75.297 2.316.89.566.59.848 1.395.848 2.415 0 1-.293 1.8-.883 2.406-.59.601-1.375.902-2.356.902-1.125 0-1.988-.43-2.582-1.289-.593-.863-.89-2.113-.89-3.75 0-1.535.363-2.762 1.093-3.676.73-.914 1.707-1.37 2.934-1.37.332 0 .664.034 1 .097.34.066.688.164 1.055.293Zm0 0"/><g clip-path="url(#c)"><path style="fill:none;stroke-width:.8;stroke-linecap:square;stroke-linejoin:round;stroke:#b0b0b0;stroke-opacity:1;stroke-miterlimit:4" d="M120.27 143.1V7.202" transform="matrix(1.33333 0 0 1.33333 0 0)"/></g><path style="fill:none;stroke-width:.8;stroke-linecap:butt;stroke-linejoin:round;stroke:#000;stroke-opacity:1;stroke-miterlimit:4" d="M-.001 0V3.5" transform="matrix(1.33333 0 0 1.33333 160.361 190.8)"/><path style="stroke:none;fill-rule:nonzero;fill:#000;fill-opacity:1" d="M151.945 205.531h8.348v1.106h-8.348ZM166.746 201.691l-3.324 5.188h3.324Zm-.348-1.148h1.657v6.336h1.386v1.094h-1.386v2.293h-1.309v-2.293h-4.39v-1.27Zm0 0"/><g clip-path="url(#d)"><path style="fill:none;stroke-width:.8;stroke-linecap:square;stroke-linejoin:round;stroke:#b0b0b0;stroke-opacity:1;stroke-miterlimit:4" d="M152.174 143.1V7.202" transform="matrix(1.33333 0 0 1.33333 0 0)"/></g><path style="fill:none;stroke-width:.8;stroke-linecap:butt;stroke-linejoin:round;stroke:#000;stroke-opacity:1;stroke-miterlimit:4" d="M-.001 0V3.5" transform="matrix(1.33333 0 0 1.33333 202.9 190.8)"/><path style="stroke:none;fill-rule:nonzero;fill:#000;fill-opacity:1" d="M194.484 205.531h8.348v1.106h-8.348ZM206.8 209.16h4.59v1.106h-6.167v-1.106c.496-.52 1.175-1.21 2.039-2.082.86-.871 1.402-1.43 1.625-1.683.418-.473.715-.872.879-1.2.168-.328.254-.652.254-.968 0-.516-.184-.938-.543-1.262-.364-.328-.836-.488-1.418-.488-.414 0-.848.07-1.305.214-.457.141-.95.36-1.469.649v-1.328c.531-.211 1.024-.371 1.485-.48.46-.11.882-.165 1.265-.165 1.004 0 1.809.254 2.406.758.598.504.899 1.176.899 2.016 0 .402-.074.78-.227 1.136-.148.36-.418.782-.816 1.266-.106.129-.453.492-1.035 1.094a358.27 358.27 0 0 1-2.461 2.523Zm0 0"/><g clip-path="url(#e)"><path style="fill:none;stroke-width:.8;stroke-linecap:square;stroke-linejoin:round;stroke:#b0b0b0;stroke-opacity:1;stroke-miterlimit:4" d="M184.078 143.1V7.202" transform="matrix(1.33333 0 0 1.33333 0 0)"/></g><path style="fill:none;stroke-width:.8;stroke-linecap:butt;stroke-linejoin:round;stroke:#000;stroke-opacity:1;stroke-miterlimit:4" d="M0 0V3.5" transform="matrix(1.33333 0 0 1.33333 245.438 190.8)"/><path style="stroke:none;fill-rule:nonzero;fill:#000;fill-opacity:1" d="M245.434 201.41c-.676 0-1.184.332-1.528 1-.34.664-.508 1.668-.508 3.004 0 1.332.168 2.332.508 3 .344.664.852 1 1.528 1 .683 0 1.195-.336 1.535-1 .34-.668.511-1.668.511-3 0-1.336-.171-2.34-.511-3.004-.34-.668-.852-1-1.535-1Zm0-1.043c1.09 0 1.921.434 2.5 1.297.574.86.859 2.11.859 3.75 0 1.637-.285 2.887-.86 3.75-.578.86-1.41 1.29-2.5 1.29s-1.921-.43-2.495-1.29c-.575-.863-.864-2.113-.864-3.75 0-1.64.29-2.89.863-3.75.575-.863 1.407-1.297 2.497-1.297Zm0 0"/><g clip-path="url(#f)"><path style="fill:none;stroke-width:.8;stroke-linecap:square;stroke-linejoin:round;stroke:#b0b0b0;stroke-opacity:1;stroke-miterlimit:4" d="M215.982 143.1V7.202" transform="matrix(1.33333 0 0 1.33333 0 0)"/></g><path style="fill:none;stroke-width:.8;stroke-linecap:butt;stroke-linejoin:round;stroke:#000;stroke-opacity:1;stroke-miterlimit:4" d="M0 0V3.5" transform="matrix(1.33333 0 0 1.33333 287.977 190.8)"/><path style="stroke:none;fill-rule:nonzero;fill:#000;fill-opacity:1" d="M286.293 209.16h4.59v1.106h-6.172v-1.106c.5-.52 1.18-1.21 2.043-2.082.86-.871 1.402-1.43 1.625-1.683.418-.473.71-.872.879-1.2.168-.328.254-.652.254-.968 0-.516-.184-.938-.547-1.262-.36-.328-.832-.488-1.414-.488-.414 0-.848.07-1.309.214-.457.141-.945.36-1.465.649v-1.328c.528-.211 1.024-.371 1.485-.48.46-.11.883-.165 1.261-.165 1.008 0 1.813.254 2.41.758.598.504.899 1.176.899 2.016 0 .402-.074.78-.227 1.136-.148.36-.421.782-.816 1.266-.11.129-.453.492-1.035 1.094-.582.601-1.402 1.441-2.461 2.523Zm0 0"/><g clip-path="url(#g)"><path style="fill:none;stroke-width:.8;stroke-linecap:square;stroke-linejoin:round;stroke:#b0b0b0;stroke-opacity:1;stroke-miterlimit:4" d="M247.887 143.1V7.202" transform="matrix(1.33333 0 0 1.33333 0 0)"/></g><path style="fill:none;stroke-width:.8;stroke-linecap:butt;stroke-linejoin:round;stroke:#000;stroke-opacity:1;stroke-miterlimit:4" d="M0 0V3.5" transform="matrix(1.33333 0 0 1.33333 330.516 190.8)"/><path style="stroke:none;fill-rule:nonzero;fill:#000;fill-opacity:1" d="m331.313 201.691-3.32 5.188h3.32Zm-.344-1.148h1.652v6.336h1.387v1.094h-1.387v2.293h-1.308v-2.293h-4.387v-1.27Zm0 0"/><g clip-path="url(#h)"><path style="fill:none;stroke-width:.8;stroke-linecap:square;stroke-linejoin:round;stroke:#b0b0b0;stroke-opacity:1;stroke-miterlimit:4" d="M279.791 143.1V7.202" transform="matrix(1.33333 0 0 1.33333 0 0)"/></g><path style="fill:none;stroke-width:.8;stroke-linecap:butt;stroke-linejoin:round;stroke:#000;stroke-opacity:1;stroke-miterlimit:4" d="M0 0V3.5" transform="matrix(1.33333 0 0 1.33333 373.054 190.8)"/><path style="stroke:none;fill-rule:nonzero;fill:#000;fill-opacity:1" d="M373.215 204.883c-.59 0-1.059.199-1.406.605-.344.403-.516.953-.516 1.657 0 .699.172 1.253.516 1.66.347.406.816.61 1.406.61s1.058-.204 1.402-.61c.344-.407.516-.961.516-1.66 0-.704-.172-1.254-.516-1.657-.344-.406-.812-.605-1.402-.605Zm2.61-4.125v1.199a5.188 5.188 0 0 0-1-.355 4.008 4.008 0 0 0-1-.125c-.868 0-1.532.293-1.99.878-.456.586-.718 1.47-.784 2.657.258-.38.578-.668.965-.871.386-.2.812-.301 1.277-.301.977 0 1.746.297 2.312.89.567.59.852 1.395.852 2.415 0 1-.297 1.8-.887 2.406-.59.601-1.375.902-2.355.902-1.125 0-1.985-.43-2.578-1.289-.594-.863-.895-2.113-.895-3.75 0-1.535.367-2.762 1.094-3.676.73-.914 1.71-1.37 2.937-1.37.332 0 .664.034 1 .097.336.066.688.164 1.051.293Zm0 0"/><g clip-path="url(#i)"><path style="fill:none;stroke-width:.8;stroke-linecap:square;stroke-linejoin:round;stroke:#b0b0b0;stroke-opacity:1;stroke-miterlimit:4" d="M311.695 143.1V7.202" transform="matrix(1.33333 0 0 1.33333 0 0)"/></g><path style="fill:none;stroke-width:.8;stroke-linecap:butt;stroke-linejoin:round;stroke:#000;stroke-opacity:1;stroke-miterlimit:4" d="M0 0V3.5" transform="matrix(1.33333 0 0 1.33333 415.593 190.8)"/><path style="stroke:none;fill-rule:nonzero;fill:#000;fill-opacity:1" d="M415.59 205.648c-.625 0-1.117.168-1.477.5-.355.336-.535.797-.535 1.38 0 .59.18 1.046.535 1.382.36.336.852.504 1.477.504.625 0 1.117-.168 1.476-.504.36-.34.543-.8.543-1.383 0-.582-.18-1.043-.539-1.379-.355-.332-.851-.5-1.48-.5Zm-1.317-.558c-.562-.14-1.003-.403-1.316-.79-.316-.386-.473-.859-.473-1.413 0-.778.278-1.39.829-1.84.554-.453 1.312-.68 2.277-.68.969 0 1.726.227 2.277.68.551.45.828 1.062.828 1.84 0 .554-.156 1.027-.472 1.414-.317.387-.75.648-1.313.789.637.148 1.13.437 1.48.867.356.43.532.953.532 1.57 0 .946-.29 1.668-.863 2.172-.575.504-1.399.754-2.47.754-1.07 0-1.894-.25-2.472-.754-.574-.504-.863-1.226-.863-2.172 0-.617.18-1.14.535-1.57.356-.43.852-.719 1.484-.867Zm-.48-2.078c0 .504.156.894.473 1.18.312.28.754.421 1.324.421.562 0 1.004-.14 1.324-.422.32-.285.48-.675.48-1.18 0-.503-.16-.894-.48-1.179-.32-.281-.762-.422-1.324-.422-.57 0-1.012.14-1.324.422-.317.285-.473.676-.473 1.18ZM247.746 221.21l-2.637 3.548 2.774 3.746h-1.41l-2.125-2.867-2.121 2.867h-1.415l2.833-3.816-2.59-3.477h1.41l1.933 2.598 1.934-2.598Zm0 0"/><g clip-path="url(#j)"><path style="fill:none;stroke-width:.8;stroke-linecap:square;stroke-linejoin:round;stroke:#b0b0b0;stroke-opacity:1;stroke-miterlimit:4" d="M43.781 136.963h279" transform="matrix(1.33333 0 0 1.33333 0 0)"/></g><path style="fill:none;stroke-width:.8;stroke-linecap:butt;stroke-linejoin:round;stroke:#000;stroke-opacity:1;stroke-miterlimit:4" d="M0-.001h-3.501" transform="matrix(1.33333 0 0 1.33333 58.375 182.619)"/><path style="stroke:none;fill-rule:nonzero;fill:#000;fill-opacity:1" d="M32.074 178.832c-.676 0-1.183.332-1.527 1-.34.664-.508 1.664-.508 3.004 0 1.332.168 2.328.508 2.996.344.668.851 1 1.527 1 .684 0 1.196-.332 1.535-1 .34-.668.512-1.664.512-2.996 0-1.34-.172-2.34-.512-3.004-.34-.668-.851-1-1.535-1Zm0-1.043c1.09 0 1.922.43 2.5 1.293.574.863.86 2.113.86 3.754 0 1.633-.286 2.883-.86 3.746-.578.863-1.41 1.293-2.5 1.293s-1.922-.43-2.496-1.293c-.574-.863-.863-2.113-.863-3.746 0-1.64.289-2.89.863-3.754.574-.863 1.406-1.293 2.496-1.293ZM37.746 186.031h1.375v1.653h-1.375ZM44.797 178.832c-.676 0-1.188.332-1.527 1-.34.664-.512 1.664-.512 3.004 0 1.332.172 2.328.512 2.996.34.668.851 1 1.527 1 .68 0 1.191-.332 1.531-1 .344-.668.516-1.664.516-2.996 0-1.34-.172-2.34-.516-3.004-.34-.668-.851-1-1.531-1Zm0-1.043c1.09 0 1.922.43 2.496 1.293.578.863.863 2.113.863 3.754 0 1.633-.285 2.883-.863 3.746-.574.863-1.406 1.293-2.496 1.293s-1.922-.43-2.496-1.293c-.574-.863-.864-2.113-.864-3.746 0-1.64.29-2.89.864-3.754.574-.863 1.406-1.293 2.496-1.293Zm0 0"/><g clip-path="url(#k)"><path style="fill:none;stroke-width:.8;stroke-linecap:square;stroke-linejoin:round;stroke:#b0b0b0;stroke-opacity:1;stroke-miterlimit:4" d="M43.781 112.236h279" transform="matrix(1.33333 0 0 1.33333 0 0)"/></g><path style="fill:none;stroke-width:.8;stroke-linecap:butt;stroke-linejoin:round;stroke:#000;stroke-opacity:1;stroke-miterlimit:4" d="M0-.001h-3.501" transform="matrix(1.33333 0 0 1.33333 58.375 149.65)"/><path style="stroke:none;fill-rule:nonzero;fill:#000;fill-opacity:1" d="M32.074 145.863c-.676 0-1.183.332-1.527 1-.34.664-.508 1.664-.508 3.004 0 1.332.168 2.328.508 2.996.344.668.851 1 1.527 1 .684 0 1.196-.332 1.535-1 .34-.668.512-1.664.512-2.996 0-1.34-.172-2.34-.512-3.004-.34-.668-.851-1-1.535-1Zm0-1.043c1.09 0 1.922.43 2.5 1.293.574.864.86 2.114.86 3.754 0 1.633-.286 2.883-.86 3.746-.578.864-1.41 1.293-2.5 1.293s-1.922-.43-2.496-1.293c-.574-.863-.863-2.113-.863-3.746 0-1.64.289-2.89.863-3.754.574-.863 1.406-1.293 2.496-1.293ZM37.746 153.063h1.375v1.652h-1.375ZM43.117 153.61h4.59v1.105h-6.172v-1.106c.5-.515 1.18-1.21 2.04-2.078.862-.87 1.405-1.433 1.624-1.687.422-.473.715-.871.883-1.2a2.1 2.1 0 0 0 .25-.964c0-.52-.18-.938-.543-1.266-.363-.324-.832-.488-1.414-.488-.414 0-.848.07-1.309.215-.457.144-.945.359-1.464.652v-1.328a9.801 9.801 0 0 1 1.48-.48c.465-.11.883-.165 1.266-.165 1.007 0 1.808.25 2.41.758.597.5.898 1.172.898 2.016 0 .398-.078.777-.226 1.136-.149.356-.422.778-.817 1.266-.11.125-.453.488-1.035 1.09-.582.601-1.402 1.441-2.46 2.523Zm0 0"/><g clip-path="url(#l)"><path style="fill:none;stroke-width:.8;stroke-linecap:square;stroke-linejoin:round;stroke:#b0b0b0;stroke-opacity:1;stroke-miterlimit:4" d="M43.781 87.51h279" transform="matrix(1.33333 0 0 1.33333 0 0)"/></g><path style="fill:none;stroke-width:.8;stroke-linecap:butt;stroke-linejoin:round;stroke:#000;stroke-opacity:1;stroke-miterlimit:4" d="M0-.001h-3.501" transform="matrix(1.33333 0 0 1.33333 58.375 116.681)"/><path style="stroke:none;fill-rule:nonzero;fill:#000;fill-opacity:1" d="M32.074 112.895c-.676 0-1.183.332-1.527 1-.34.664-.508 1.664-.508 3.003 0 1.332.168 2.329.508 2.997.344.668.851 1 1.527 1 .684 0 1.196-.332 1.535-1 .34-.668.512-1.665.512-2.997 0-1.34-.172-2.34-.512-3.003-.34-.668-.851-1-1.535-1Zm0-1.043c1.09 0 1.922.43 2.5 1.293.574.863.86 2.113.86 3.753 0 1.633-.286 2.883-.86 3.747-.578.863-1.41 1.293-2.5 1.293s-1.922-.43-2.496-1.293c-.574-.864-.863-2.114-.863-3.747 0-1.64.289-2.89.863-3.753.574-.864 1.406-1.293 2.496-1.293ZM37.746 120.094h1.375v1.652h-1.375ZM45.598 113.172l-3.32 5.191h3.32Zm-.344-1.145h1.652v6.336h1.387v1.094h-1.387v2.29h-1.308v-2.29H41.21v-1.27Zm0 0"/><g clip-path="url(#m)"><path style="fill:none;stroke-width:.8;stroke-linecap:square;stroke-linejoin:round;stroke:#b0b0b0;stroke-opacity:1;stroke-miterlimit:4" d="M43.781 62.783h279" transform="matrix(1.33333 0 0 1.33333 0 0)"/></g><path style="fill:none;stroke-width:.8;stroke-linecap:butt;stroke-linejoin:round;stroke:#000;stroke-opacity:1;stroke-miterlimit:4" d="M0-.001h-3.501" transform="matrix(1.33333 0 0 1.33333 58.375 83.713)"/><path style="stroke:none;fill-rule:nonzero;fill:#000;fill-opacity:1" d="M32.074 79.926c-.676 0-1.183.332-1.527 1-.34.664-.508 1.664-.508 3.004 0 1.332.168 2.328.508 2.996.344.668.851 1 1.527 1 .684 0 1.196-.332 1.535-1 .34-.668.512-1.664.512-2.996 0-1.34-.172-2.34-.512-3.004-.34-.668-.851-1-1.535-1Zm0-1.043c1.09 0 1.922.43 2.5 1.293.574.863.86 2.113.86 3.754 0 1.636-.286 2.882-.86 3.746-.578.863-1.41 1.293-2.5 1.293s-1.922-.43-2.496-1.293c-.574-.864-.863-2.11-.863-3.746 0-1.64.289-2.89.863-3.754.574-.864 1.406-1.293 2.496-1.293ZM37.746 87.125h1.375v1.652h-1.375ZM44.96 83.395c-.589 0-1.058.203-1.401.605-.348.402-.52.957-.52 1.66 0 .7.172 1.25.52 1.656.343.407.812.61 1.402.61.59 0 1.059-.203 1.402-.61.344-.406.516-.957.516-1.656 0-.703-.172-1.258-.516-1.66-.343-.402-.812-.605-1.402-.605Zm2.61-4.122v1.196a5.464 5.464 0 0 0-1-.356 4.199 4.199 0 0 0-1-.125c-.867 0-1.53.293-1.988.88-.457.585-.719 1.472-.785 2.655.258-.378.578-.668.965-.867a2.705 2.705 0 0 1 1.277-.304c.977 0 1.746.296 2.313.89.566.594.851 1.399.851 2.418 0 1-.297 1.8-.887 2.403-.59.605-1.375.906-2.355.906-1.125 0-1.984-.43-2.578-1.293-.594-.864-.895-2.11-.895-3.746 0-1.54.367-2.762 1.094-3.676.73-.914 1.711-1.371 2.938-1.371.332 0 .664.031 1 .097.335.067.687.165 1.05.293Zm0 0"/><g clip-path="url(#n)"><path style="fill:none;stroke-width:.8;stroke-linecap:square;stroke-linejoin:round;stroke:#b0b0b0;stroke-opacity:1;stroke-miterlimit:4" d="M43.781 38.057h279" transform="matrix(1.33333 0 0 1.33333 0 0)"/></g><path style="fill:none;stroke-width:.8;stroke-linecap:butt;stroke-linejoin:round;stroke:#000;stroke-opacity:1;stroke-miterlimit:4" d="M0-.001h-3.501" transform="matrix(1.33333 0 0 1.33333 58.375 50.744)"/><path style="stroke:none;fill-rule:nonzero;fill:#000;fill-opacity:1" d="M32.074 46.957c-.676 0-1.183.332-1.527 1-.34.664-.508 1.664-.508 3.004 0 1.332.168 2.328.508 2.996.344.668.851 1 1.527 1 .684 0 1.196-.332 1.535-1 .34-.668.512-1.664.512-2.996 0-1.34-.172-2.34-.512-3.004-.34-.668-.851-1-1.535-1Zm0-1.043c1.09 0 1.922.43 2.5 1.293.574.863.86 2.113.86 3.754 0 1.637-.286 2.883-.86 3.746-.578.863-1.41 1.293-2.5 1.293s-1.922-.43-2.496-1.293c-.574-.863-.863-2.11-.863-3.746 0-1.64.289-2.89.863-3.754.574-.863 1.406-1.293 2.496-1.293ZM37.746 54.156h1.375v1.653h-1.375ZM44.797 51.191c-.625 0-1.117.168-1.477.504-.355.336-.535.793-.535 1.38 0 .585.18 1.046.535 1.382.36.332.852.5 1.477.5.625 0 1.117-.168 1.476-.504.36-.336.543-.797.543-1.379 0-.586-.18-1.043-.539-1.379-.355-.336-.851-.504-1.48-.504Zm-1.317-.558c-.562-.137-1.003-.399-1.316-.785-.316-.387-.473-.86-.473-1.414 0-.778.278-1.391.829-1.844.554-.45 1.312-.676 2.277-.676.969 0 1.726.227 2.277.676.551.453.828 1.066.828 1.844 0 .554-.156 1.027-.472 1.414-.313.386-.75.648-1.309.785.633.148 1.125.437 1.477.867.355.43.53.953.53 1.574 0 .942-.284 1.668-.862 2.172-.575.5-1.399.754-2.47.754-1.07 0-1.894-.254-2.472-.754-.574-.504-.86-1.23-.86-2.172 0-.62.177-1.144.532-1.574.356-.43.852-.719 1.484-.867ZM43 48.559c0 .5.156.894.473 1.175.312.282.754.422 1.324.422.566 0 1.008-.14 1.324-.422.32-.28.48-.675.48-1.175 0-.504-.16-.899-.48-1.18-.316-.281-.758-.422-1.324-.422-.57 0-1.012.14-1.324.422-.317.281-.473.676-.473 1.18Zm0 0"/><g clip-path="url(#o)"><path style="fill:none;stroke-width:.8;stroke-linecap:square;stroke-linejoin:round;stroke:#b0b0b0;stroke-opacity:1;stroke-miterlimit:4" d="M43.781 13.33h279" transform="matrix(1.33333 0 0 1.33333 0 0)"/></g><path style="fill:none;stroke-width:.8;stroke-linecap:butt;stroke-linejoin:round;stroke:#000;stroke-opacity:1;stroke-miterlimit:4" d="M0-.001h-3.501" transform="matrix(1.33333 0 0 1.33333 58.375 17.775)"/><path style="stroke:none;fill-rule:nonzero;fill:#000;fill-opacity:1" d="M29.492 21.734h2.149v-7.418l-2.34.47V13.59l2.328-.469h1.312v8.613h2.149v1.106h-5.598ZM37.746 21.188h1.375v1.652h-1.375ZM44.797 13.988c-.676 0-1.188.332-1.527 1-.34.664-.512 1.664-.512 3.004 0 1.332.172 2.328.512 2.996.34.668.851 1 1.527 1 .68 0 1.191-.332 1.531-1 .344-.668.516-1.664.516-2.996 0-1.34-.172-2.34-.516-3.004-.34-.668-.851-1-1.531-1Zm0-1.043c1.09 0 1.922.43 2.496 1.293.578.864.863 2.114.863 3.754 0 1.637-.285 2.883-.863 3.746-.574.864-1.406 1.293-2.496 1.293s-1.922-.43-2.496-1.293c-.574-.863-.864-2.11-.864-3.746 0-1.64.29-2.89.864-3.754.574-.863 1.406-1.293 2.496-1.293ZM12.652 129.66h1.137a4.741 4.741 0 0 0-.523 2.188c0 .593.093 1.039.273 1.336.184.296.457.445.82.445a.773.773 0 0 0 .657-.32c.156-.211.308-.637.449-1.282l.094-.41c.183-.851.437-1.453.77-1.812.331-.36.796-.54 1.39-.54.68 0 1.215.27 1.61.805.394.535.593 1.274.593 2.211 0 .39-.04.797-.117 1.223a9.873 9.873 0 0 1-.34 1.336h-1.238c.23-.442.402-.88.52-1.309.112-.43.171-.855.171-1.277 0-.563-.098-.996-.29-1.3-.194-.306-.468-.458-.82-.458-.324 0-.574.113-.745.332-.172.219-.34.7-.504 1.442l-.098.414c-.152.742-.395 1.28-.719 1.609-.32.328-.765.496-1.328.496-.687 0-1.219-.246-1.59-.73-.37-.489-.558-1.176-.558-2.07 0-.442.03-.86.097-1.25.063-.391.16-.75.29-1.079ZM12.441 127.36v-1.2h7.29v1.2Zm-2.84 0v-1.2h1.516v1.2ZM16 118.855c-.867 0-1.54.18-2.016.54-.48.355-.718.859-.718 1.507 0 .641.238 1.141.718 1.5.477.356 1.149.535 2.016.535.863 0 1.535-.18 2.012-.535.48-.359.718-.859.718-1.5 0-.648-.238-1.152-.718-1.507-.477-.36-1.149-.54-2.012-.54Zm2.828-1.195c1.238 0 2.164.274 2.77.828.605.547.906 1.39.906 2.532 0 .418-.031.816-.094 1.19-.062.372-.16.735-.289 1.087h-1.164c.191-.352.328-.7.422-1.043.09-.34.137-.692.137-1.047 0-.785-.207-1.375-.618-1.766-.406-.39-1.027-.586-1.855-.586h-.594c.43.25.75.567.965.954.211.386.316.847.316 1.386 0 .89-.34 1.614-1.02 2.16-.683.547-1.585.82-2.71.82-1.129 0-2.031-.273-2.71-.82-.685-.546-1.024-1.27-1.024-2.16 0-.539.105-1 .316-1.386.215-.387.535-.704.965-.954H12.44v-1.195ZM13.84 109.516c-.54-.301-.938-.66-1.192-1.075-.257-.418-.382-.91-.382-1.472 0-.758.265-1.348.796-1.758.532-.414 1.286-.621 2.266-.621h4.402v1.207h-4.363c-.695 0-1.215.125-1.55.371-.34.246-.512.625-.512 1.133 0 .62.207 1.11.62 1.472.41.36.973.54 1.684.54h4.121v1.203h-4.363c-.703 0-1.219.125-1.558.37-.336.247-.504.63-.504 1.15 0 .609.207 1.097.62 1.456.415.36.977.543 1.684.543h4.121v1.203h-7.289v-1.203h1.133c-.449-.277-.777-.601-.992-.984-.21-.383-.316-.836-.316-1.36 0-.53.132-.984.402-1.355s.66-.645 1.172-.82ZM13.277 99.379c0 .64.254 1.148.754 1.523.5.371 1.188.559 2.059.559.875 0 1.562-.184 2.062-.555.5-.37.75-.883.75-1.527 0-.64-.25-1.145-.754-1.516-.503-.375-1.187-.562-2.058-.562-.863 0-1.547.187-2.05.562-.509.371-.763.875-.763 1.516Zm-1.011 0c0-1.043.336-1.86 1.015-2.453.676-.598 1.614-.895 2.809-.895s2.133.297 2.812.895c.68.594 1.02 1.41 1.02 2.453 0 1.047-.34 1.863-1.02 2.457-.68.594-1.617.887-2.812.887-1.195 0-2.133-.293-2.809-.887-.68-.594-1.015-1.41-1.015-2.457ZM12.441 94.047v-1.2h7.29v1.2Zm-2.84 0v-1.2h1.516v1.2ZM13.547 85.543H9.602v-1.2H19.73v1.2h-1.093c.433.25.758.57.968.953.211.387.317.848.317 1.387 0 .879-.352 1.597-1.055 2.148-.703.555-1.629.832-2.777.832-1.145 0-2.067-.277-2.77-.832-.703-.55-1.054-1.27-1.054-2.148 0-.54.105-1 .316-1.387.207-.383.531-.703.965-.953Zm2.543 4.082c.883 0 1.574-.18 2.074-.543.5-.363.754-.863.754-1.496s-.254-1.129-.754-1.496c-.5-.363-1.191-.547-2.074-.547-.88 0-1.57.184-2.07.547-.504.367-.754.863-.754 1.496s.25 1.133.754 1.496c.5.363 1.19.543 2.07.543ZM9.613 79a13.25 13.25 0 0 0 2.965 1.297 10.646 10.646 0 0 0 5.945-.004A13.178 13.178 0 0 0 21.488 79v1.043c-1.02.648-2.023 1.137-3.008 1.46a9.325 9.325 0 0 1-2.933.485c-.969 0-1.945-.16-2.926-.48-.98-.324-1.984-.813-3.008-1.465ZM12.441 70.613l3.547 2.637 3.742-2.773v1.414l-2.863 2.12 2.863 2.122v1.418l-3.812-2.836-3.477 2.594v-1.414l2.598-1.934-2.598-1.934ZM9.613 68.973V67.93c1.024-.649 2.028-1.137 3.008-1.457a9.284 9.284 0 0 1 2.926-.489c.973 0 1.95.164 2.933.489.985.32 1.989.808 3.008 1.457v1.043a13.357 13.357 0 0 0-2.965-1.293 10.791 10.791 0 0 0-2.976-.426c-1.004 0-1.992.144-2.969.426-.98.285-1.965.718-2.965 1.293Zm0 0"/><path style="fill:none;stroke-width:1.5;stroke-linecap:square;stroke-linejoin:round;stroke:#1f77b4;stroke-opacity:1;stroke-miterlimit:4" d="m56.464 136.922 27.117-.185 12.762-.275 9.571-.41 7.978-.586 6.378-.727 4.787-.759 4.784-1.007 3.19-.85 3.19-1.022 3.191-1.225 3.19-1.459 3.191-1.734 3.19-2.051 3.19-2.405 3.191-2.801 3.19-3.229 3.191-3.688 3.19-4.163 3.191-4.632 3.19-5.08 3.19-5.479 4.788-8.803 14.355-27.211 3.19-5.479 3.191-5.08 3.19-4.632 3.191-4.163 3.19-3.688 3.191-3.229 3.19-2.8 3.19-2.406 3.191-2.05 3.19-1.735 3.191-1.46 3.19-1.224 3.191-1.022 4.787-1.219 4.784-.917 4.787-.691 6.378-.657 7.978-.53 9.571-.372 12.762-.252 20.736-.146 3.19-.012" transform="matrix(1.33333 0 0 1.33333 0 0)"/><path style="fill:none;stroke-width:.8;stroke-linecap:square;stroke-linejoin:miter;stroke:#000;stroke-opacity:1;stroke-miterlimit:4" d="M43.781 143.1V7.202M322.781 143.1V7.202M43.781 143.1h279M43.781 7.201h279" transform="matrix(1.33333 0 0 1.33333 0 0)"/></svg>