<svg xmlns="http://www.w3.org/2000/svg" width="564" height="229pt" viewBox="0 0 423 229"><defs><clipPath id="a"><path d="M80 9h2v173.25h-2Zm0 0"/></clipPath><clipPath id="b"><path d="M120 9h2v173.25h-2Zm0 0"/></clipPath><clipPath id="c"><path d="M160 9h2v173.25h-2Zm0 0"/></clipPath><clipPath id="d"><path d="M199 9h3v173.25h-3Zm0 0"/></clipPath><clipPath id="e"><path d="M239 9h3v173.25h-3Zm0 0"/></clipPath><clipPath id="f"><path d="M279 9h3v173.25h-3Zm0 0"/></clipPath><clipPath id="g"><path d="M319 9h3v173.25h-3Zm0 0"/></clipPath><clipPath id="h"><path d="M359 9h2v173.25h-2Zm0 0"/></clipPath><clipPath id="i"><path d="M399 9h2v173.25h-2Zm0 0"/></clipPath><clipPath id="j"><path d="M65.203 173h348.75v3H65.203Zm0 0"/></clipPath><clipPath id="k"><path d="M65.203 134h348.75v2H65.203Zm0 0"/></clipPath><clipPath id="l"><path d="M65.203 94h348.75v3H65.203Zm0 0"/></clipPath><clipPath id="m"><path d="M65.203 55h348.75v2H65.203Zm0 0"/></clipPath><clipPath id="n"><path d="M65.203 16h348.75v2H65.203Zm0 0"/></clipPath></defs><path style="stroke:none;fill-rule:nonzero;fill:#fff;fill-opacity:1" d="M0 229.195h422.95V0H0Zm0 0"/><path style="stroke:none;fill-rule:nonzero;fill:#fff;fill-opacity:1" d="M65.203 182.25H413.95V9H65.203Zm0 0"/><g clip-path="url(#a)"><path style="fill:none;stroke-width:.8;stroke-linecap:square;stroke-linejoin:round;stroke:#b0b0b0;stroke-opacity:1;stroke-miterlimit:4" d="M64.844 145.8V7.2" transform="matrix(1.25 0 0 1.25 0 0)"/></g><path style="fill:none;stroke-width:.8;stroke-linecap:butt;stroke-linejoin:round;stroke:#000;stroke-opacity:1;stroke-miterlimit:4" d="M.001 0v3.5" transform="matrix(1.25 0 0 1.25 81.053 182.25)"/><path style="stroke:none;fill-rule:nonzero;fill:#000;fill-opacity:1" d="M73.164 196.063h7.824v1.035h-7.824ZM86.285 196.172c-.586 0-1.047.156-1.383.469-.332.312-.5.746-.5 1.293 0 .55.168.98.5 1.296.336.313.797.47 1.383.47s1.047-.157 1.387-.473c.336-.317.508-.747.508-1.293 0-.547-.168-.98-.504-1.293-.336-.313-.797-.47-1.39-.47Zm-1.23-.524c-.532-.132-.942-.378-1.239-.738-.293-.363-.441-.808-.441-1.328 0-.727.262-1.305.777-1.727.52-.421 1.23-.632 2.133-.632.91 0 1.621.21 2.137.632.52.422.777 1 .777 1.727 0 .52-.148.965-.445 1.328-.293.36-.703.606-1.227.738.594.137 1.055.407 1.387.813.332.402.496.89.496 1.473 0 .882-.27 1.562-.808 2.035-.54.472-1.309.707-2.317.707-1.004 0-1.773-.235-2.316-.707-.54-.473-.809-1.153-.809-2.035 0-.582.168-1.07.5-1.473.336-.406.8-.676 1.395-.813Zm-.453-1.949c0 .473.148.84.441 1.106.297.261.71.394 1.242.394.531 0 .945-.133 1.242-.394.301-.266.45-.633.45-1.106 0-.472-.149-.84-.45-1.105-.297-.266-.71-.395-1.242-.395-.531 0-.945.13-1.242.395-.293.265-.441.633-.441 1.105Zm0 0"/><g clip-path="url(#b)"><path style="fill:none;stroke-width:.8;stroke-linecap:square;stroke-linejoin:round;stroke:#b0b0b0;stroke-opacity:1;stroke-miterlimit:4" d="M96.747 145.8V7.2" transform="matrix(1.25 0 0 1.25 0 0)"/></g><path style="fill:none;stroke-width:.8;stroke-linecap:butt;stroke-linejoin:round;stroke:#000;stroke-opacity:1;stroke-miterlimit:4" d="M0 0v3.5" transform="matrix(1.25 0 0 1.25 120.933 182.25)"/><path style="stroke:none;fill-rule:nonzero;fill:#000;fill-opacity:1" d="M113.043 196.063h7.824v1.035h-7.824ZM126.32 195.453c-.554 0-.992.188-1.316.567-.324.378-.484.894-.484 1.554 0 .656.16 1.172.484 1.555.324.379.762.57 1.316.57.555 0 .993-.191 1.313-.57.324-.383.484-.899.484-1.555 0-.66-.16-1.176-.484-1.554-.32-.38-.758-.567-1.313-.567Zm2.446-3.867v1.125a4.815 4.815 0 0 0-.938-.336 3.853 3.853 0 0 0-.937-.117c-.813 0-1.434.273-1.864.824-.43.55-.672 1.379-.734 2.492.238-.355.539-.629.902-.816a2.567 2.567 0 0 1 1.196-.281c.918 0 1.64.277 2.171.832.532.554.797 1.308.797 2.265 0 .938-.277 1.688-.832 2.254-.55.567-1.289.848-2.207.848-1.054 0-1.86-.403-2.418-1.211-.558-.809-.836-1.98-.836-3.512 0-1.441.34-2.59 1.024-3.445.683-.86 1.601-1.285 2.754-1.285.308 0 .62.027.937.09.317.062.645.152.985.273Zm0 0"/><g clip-path="url(#c)"><path style="fill:none;stroke-width:.8;stroke-linecap:square;stroke-linejoin:round;stroke:#b0b0b0;stroke-opacity:1;stroke-miterlimit:4" d="M128.65 145.8V7.2" transform="matrix(1.25 0 0 1.25 0 0)"/></g><path style="fill:none;stroke-width:.8;stroke-linecap:butt;stroke-linejoin:round;stroke:#000;stroke-opacity:1;stroke-miterlimit:4" d="M0 0v3.5" transform="matrix(1.25 0 0 1.25 160.813 182.25)"/><path style="stroke:none;fill-rule:nonzero;fill:#000;fill-opacity:1" d="M152.922 196.063h7.824v1.035h-7.824ZM166.797 192.46l-3.113 4.864h3.113Zm-.324-1.073h1.55v5.937h1.301v1.028h-1.3v2.148h-1.227v-2.148h-4.113v-1.192Zm0 0"/><g clip-path="url(#d)"><path style="fill:none;stroke-width:.8;stroke-linecap:square;stroke-linejoin:round;stroke:#b0b0b0;stroke-opacity:1;stroke-miterlimit:4" d="M160.553 145.8V7.2" transform="matrix(1.25 0 0 1.25 0 0)"/></g><path style="fill:none;stroke-width:.8;stroke-linecap:butt;stroke-linejoin:round;stroke:#000;stroke-opacity:1;stroke-miterlimit:4" d="M-.001 0v3.5" transform="matrix(1.25 0 0 1.25 200.693 182.25)"/><path style="stroke:none;fill-rule:nonzero;fill:#000;fill-opacity:1" d="M192.805 196.063h7.824v1.035h-7.824ZM204.352 199.46h4.3v1.04h-5.785v-1.04c.469-.483 1.106-1.132 1.914-1.948.809-.817 1.317-1.344 1.524-1.578.394-.446.668-.82.824-1.125.16-.309.238-.61.238-.907 0-.484-.172-.879-.512-1.183-.34-.309-.78-.461-1.328-.461-.386 0-.793.066-1.222.203a7.19 7.19 0 0 0-1.375.61v-1.247c.496-.199.96-.347 1.39-.449a5.23 5.23 0 0 1 1.184-.152c.945 0 1.7.234 2.258.707.562.472.843 1.101.843 1.89 0 .375-.07.73-.21 1.067-.141.336-.395.73-.766 1.187-.102.117-.426.457-.973 1.024-.543.562-1.312 1.351-2.304 2.363Zm0 0"/><g clip-path="url(#e)"><path style="fill:none;stroke-width:.8;stroke-linecap:square;stroke-linejoin:round;stroke:#b0b0b0;stroke-opacity:1;stroke-miterlimit:4" d="M192.46 145.8V7.2" transform="matrix(1.25 0 0 1.25 0 0)"/></g><path style="fill:none;stroke-width:.8;stroke-linecap:butt;stroke-linejoin:round;stroke:#000;stroke-opacity:1;stroke-miterlimit:4" d="M0 0v3.5" transform="matrix(1.25 0 0 1.25 240.573 182.25)"/><path style="stroke:none;fill-rule:nonzero;fill:#000;fill-opacity:1" d="M240.57 192.2c-.636 0-1.113.312-1.433.937-.317.62-.477 1.562-.477 2.816 0 1.246.16 2.184.477 2.809.32.625.797.937 1.433.937.637 0 1.118-.312 1.438-.937.32-.625.48-1.563.48-2.809 0-1.254-.16-2.195-.48-2.816-.32-.625-.801-.938-1.438-.938Zm0-.977c1.02 0 1.801.402 2.34 1.21.54.81.809 1.981.809 3.52 0 1.531-.27 2.703-.809 3.512-.539.808-1.32 1.21-2.34 1.21-1.023 0-1.8-.402-2.34-1.21-.539-.809-.808-1.98-.808-3.512 0-1.539.27-2.71.808-3.52.54-.808 1.317-1.21 2.34-1.21Zm0 0"/><g clip-path="url(#f)"><path style="fill:none;stroke-width:.8;stroke-linecap:square;stroke-linejoin:round;stroke:#b0b0b0;stroke-opacity:1;stroke-miterlimit:4" d="M224.363 145.8V7.2" transform="matrix(1.25 0 0 1.25 0 0)"/></g><path style="fill:none;stroke-width:.8;stroke-linecap:butt;stroke-linejoin:round;stroke:#000;stroke-opacity:1;stroke-miterlimit:4" d="M0 0v3.5" transform="matrix(1.25 0 0 1.25 280.453 182.25)"/><path style="stroke:none;fill-rule:nonzero;fill:#000;fill-opacity:1" d="M278.875 199.46h4.3v1.04h-5.784v-1.04a248.31 248.31 0 0 1 1.914-1.948c.808-.817 1.316-1.344 1.523-1.578.395-.446.668-.82.824-1.125.16-.309.239-.61.239-.907 0-.484-.172-.879-.512-1.183-.34-.309-.781-.461-1.328-.461-.387 0-.793.066-1.223.203a7.19 7.19 0 0 0-1.375.61v-1.247c.496-.199.961-.347 1.39-.449a5.23 5.23 0 0 1 1.184-.152c.946 0 1.7.234 2.258.707.563.472.844 1.101.844 1.89 0 .375-.07.73-.211 1.067-.14.336-.395.73-.766 1.187-.101.117-.425.457-.972 1.024-.543.562-1.313 1.351-2.305 2.363Zm0 0"/><g clip-path="url(#g)"><path style="fill:none;stroke-width:.8;stroke-linecap:square;stroke-linejoin:round;stroke:#b0b0b0;stroke-opacity:1;stroke-miterlimit:4" d="M256.266 145.8V7.2" transform="matrix(1.25 0 0 1.25 0 0)"/></g><path style="fill:none;stroke-width:.8;stroke-linecap:butt;stroke-linejoin:round;stroke:#000;stroke-opacity:1;stroke-miterlimit:4" d="M0 0v3.5" transform="matrix(1.25 0 0 1.25 320.333 182.25)"/><path style="stroke:none;fill-rule:nonzero;fill:#000;fill-opacity:1" d="m321.082 192.46-3.113 4.864h3.113Zm-.324-1.073h1.55v5.937h1.301v1.028h-1.3v2.148h-1.227v-2.148h-4.113v-1.192Zm0 0"/><g clip-path="url(#h)"><path style="fill:none;stroke-width:.8;stroke-linecap:square;stroke-linejoin:round;stroke:#b0b0b0;stroke-opacity:1;stroke-miterlimit:4" d="M288.172 145.8V7.2" transform="matrix(1.25 0 0 1.25 0 0)"/></g><path style="fill:none;stroke-width:.8;stroke-linecap:butt;stroke-linejoin:round;stroke:#000;stroke-opacity:1;stroke-miterlimit:4" d="M.001 0v3.5" transform="matrix(1.25 0 0 1.25 360.213 182.25)"/><path style="stroke:none;fill-rule:nonzero;fill:#000;fill-opacity:1" d="M360.363 195.453c-.554 0-.992.188-1.316.567-.324.378-.485.894-.485 1.554 0 .656.16 1.172.485 1.555.324.379.762.57 1.316.57.555 0 .992-.191 1.317-.57.32-.383.484-.899.484-1.555 0-.66-.164-1.176-.484-1.554-.325-.38-.762-.567-1.317-.567Zm2.45-3.867v1.125a5.005 5.005 0 0 0-.938-.336 3.9 3.9 0 0 0-.938-.117c-.816 0-1.437.273-1.867.824-.43.55-.672 1.379-.734 2.492.238-.355.539-.629.902-.816a2.572 2.572 0 0 1 1.2-.281c.914 0 1.636.277 2.167.832.532.554.797 1.308.797 2.265 0 .938-.277 1.688-.828 2.254-.554.567-1.293.848-2.21.848-1.055 0-1.86-.403-2.419-1.211-.558-.809-.836-1.98-.836-3.512 0-1.441.344-2.59 1.028-3.445.683-.86 1.597-1.285 2.75-1.285.308 0 .62.027.937.09.317.062.645.152.988.273Zm0 0"/><g clip-path="url(#i)"><path style="fill:none;stroke-width:.8;stroke-linecap:square;stroke-linejoin:round;stroke:#b0b0b0;stroke-opacity:1;stroke-miterlimit:4" d="M320.075 145.8V7.2" transform="matrix(1.25 0 0 1.25 0 0)"/></g><path style="fill:none;stroke-width:.8;stroke-linecap:butt;stroke-linejoin:round;stroke:#000;stroke-opacity:1;stroke-miterlimit:4" d="M0 0v3.5" transform="matrix(1.25 0 0 1.25 400.093 182.25)"/><path style="stroke:none;fill-rule:nonzero;fill:#000;fill-opacity:1" d="M400.09 196.172c-.586 0-1.047.156-1.383.469-.336.312-.504.746-.504 1.293 0 .55.168.98.504 1.296.336.313.797.47 1.383.47s1.047-.157 1.383-.473c.34-.317.507-.747.507-1.293 0-.547-.168-.98-.503-1.293-.332-.313-.797-.47-1.387-.47Zm-1.235-.524c-.527-.132-.94-.378-1.234-.738-.297-.363-.441-.808-.441-1.328 0-.727.257-1.305.777-1.727.52-.421 1.23-.632 2.133-.632.906 0 1.617.21 2.137.632.515.422.773 1 .773 1.727 0 .52-.148.965-.441 1.328-.297.36-.704.606-1.23.738.593.137 1.058.407 1.386.813.332.402.5.89.5 1.473 0 .882-.27 1.562-.809 2.035-.539.472-1.312.707-2.316.707-1.004 0-1.777-.235-2.317-.707-.539-.473-.808-1.153-.808-2.035 0-.582.164-1.07.5-1.473.332-.406.797-.676 1.39-.813Zm-.449-1.949c0 .473.145.84.442 1.106.293.261.707.394 1.242.394.527 0 .941-.133 1.242-.394.297-.266.45-.633.45-1.106 0-.472-.153-.84-.45-1.105-.3-.266-.715-.395-1.242-.395-.535 0-.95.13-1.242.395-.297.265-.442.633-.442 1.105ZM242.738 210.762l-2.472 3.324 2.597 3.512h-1.324l-1.988-2.688-1.988 2.688h-1.329l2.657-3.578-2.43-3.258h1.324l1.813 2.433 1.812-2.433Zm0 0"/><g clip-path="url(#j)"><path style="fill:none;stroke-width:.8;stroke-linecap:square;stroke-linejoin:round;stroke:#b0b0b0;stroke-opacity:1;stroke-miterlimit:4" d="M52.163 139.5h278.996" transform="matrix(1.25 0 0 1.25 0 0)"/></g><path style="fill:none;stroke-width:.8;stroke-linecap:butt;stroke-linejoin:round;stroke:#000;stroke-opacity:1;stroke-miterlimit:4" d="M.002 0h-3.5" transform="matrix(1.25 0 0 1.25 65.201 174.375)"/><path style="stroke:none;fill-rule:nonzero;fill:#000;fill-opacity:1" d="M27.422 174.688h7.824v1.035h-7.824ZM38.121 178.086h2.016v-6.953l-2.192.441v-1.125l2.18-.437h1.23v8.074h2.016v1.039h-5.25ZM45.86 177.574h1.288v1.551H45.86ZM52.469 170.824c-.633 0-1.11.313-1.43.938-.32.62-.48 1.562-.48 2.816 0 1.246.16 2.184.48 2.809.32.625.797.937 1.43.937.64 0 1.12-.312 1.437-.937.32-.625.48-1.563.48-2.809 0-1.254-.16-2.195-.48-2.816-.316-.625-.797-.938-1.437-.938Zm0-.976c1.023 0 1.804.402 2.343 1.21.54.81.81 1.981.81 3.52 0 1.531-.27 2.703-.81 3.512-.539.808-1.32 1.21-2.343 1.21-1.02 0-1.801-.402-2.34-1.21-.54-.809-.809-1.98-.809-3.512 0-1.539.27-2.71.809-3.52.539-.808 1.32-1.21 2.34-1.21Zm0 0"/><g clip-path="url(#k)"><path style="fill:none;stroke-width:.8;stroke-linecap:square;stroke-linejoin:round;stroke:#b0b0b0;stroke-opacity:1;stroke-miterlimit:4" d="M52.163 108h278.996" transform="matrix(1.25 0 0 1.25 0 0)"/></g><path style="fill:none;stroke-width:.8;stroke-linecap:butt;stroke-linejoin:round;stroke:#000;stroke-opacity:1;stroke-miterlimit:4" d="M.002 0h-3.5" transform="matrix(1.25 0 0 1.25 65.201 135)"/><path style="stroke:none;fill-rule:nonzero;fill:#000;fill-opacity:1" d="M27.422 135.313h7.824v1.035h-7.824ZM40.543 131.45c-.633 0-1.11.312-1.43.937-.32.62-.48 1.562-.48 2.816 0 1.246.16 2.184.48 2.809.32.625.797.937 1.43.937.64 0 1.121-.312 1.437-.937.32-.625.48-1.563.48-2.809 0-1.254-.16-2.195-.48-2.816-.316-.625-.796-.938-1.437-.938Zm0-.977c1.023 0 1.805.402 2.344 1.21.539.81.808 1.981.808 3.52 0 1.531-.27 2.703-.808 3.512-.54.808-1.32 1.21-2.344 1.21-1.02 0-1.8-.402-2.34-1.21-.539-.809-.808-1.98-.808-3.512 0-1.539.27-2.71.808-3.52.54-.808 1.32-1.21 2.34-1.21ZM45.86 138.2h1.288v1.55H45.86ZM49.848 130.637h4.84v1.039h-3.711v2.23c.18-.058.355-.105.535-.136.18-.028.36-.043.539-.043 1.015 0 1.82.277 2.414.835.597.555.894 1.313.894 2.262 0 .98-.304 1.742-.918 2.29-.609.542-1.468.812-2.582.812a7.07 7.07 0 0 1-1.168-.098 8.724 8.724 0 0 1-1.23-.293v-1.238c.367.2.746.348 1.137.445.39.098.804.145 1.238.145.703 0 1.262-.184 1.672-.555.41-.367.617-.871.617-1.508 0-.633-.207-1.137-.617-1.504-.41-.37-.969-.558-1.672-.558-.328 0-.66.039-.988.11a5.15 5.15 0 0 0-1 .343Zm0 0"/><g clip-path="url(#l)"><path style="fill:none;stroke-width:.8;stroke-linecap:square;stroke-linejoin:round;stroke:#b0b0b0;stroke-opacity:1;stroke-miterlimit:4" d="M52.163 76.5h278.996" transform="matrix(1.25 0 0 1.25 0 0)"/></g><path style="fill:none;stroke-width:.8;stroke-linecap:butt;stroke-linejoin:round;stroke:#000;stroke-opacity:1;stroke-miterlimit:4" d="M.002 0h-3.5" transform="matrix(1.25 0 0 1.25 65.201 95.625)"/><path style="stroke:none;fill-rule:nonzero;fill:#000;fill-opacity:1" d="M40.543 92.074c-.633 0-1.11.313-1.43.938-.32.62-.48 1.562-.48 2.816 0 1.246.16 2.184.48 2.809.32.625.797.937 1.43.937.64 0 1.121-.312 1.437-.937.32-.625.48-1.563.48-2.809 0-1.254-.16-2.195-.48-2.816-.316-.625-.796-.938-1.437-.938Zm0-.976c1.023 0 1.805.402 2.344 1.21.539.81.808 1.981.808 3.52 0 1.531-.27 2.703-.808 3.512-.54.808-1.32 1.21-2.344 1.21-1.02 0-1.8-.402-2.34-1.21-.539-.809-.808-1.98-.808-3.512 0-1.539.27-2.71.808-3.52.54-.808 1.32-1.21 2.34-1.21ZM45.86 98.824h1.288v1.551H45.86ZM52.473 92.074c-.637 0-1.114.313-1.434.938-.32.62-.477 1.562-.477 2.816 0 1.246.157 2.184.477 2.809.32.625.797.937 1.434.937.636 0 1.117-.312 1.437-.937.32-.625.48-1.563.48-2.809 0-1.254-.16-2.195-.48-2.816-.32-.625-.8-.938-1.437-.938Zm0-.976c1.02 0 1.8.402 2.34 1.21.539.81.808 1.981.808 3.52 0 1.531-.27 2.703-.809 3.512-.539.808-1.32 1.21-2.34 1.21-1.023 0-1.8-.402-2.34-1.21-.538-.809-.808-1.98-.808-3.512 0-1.539.27-2.71.809-3.52.539-.808 1.316-1.21 2.34-1.21Zm0 0"/><g clip-path="url(#m)"><path style="fill:none;stroke-width:.8;stroke-linecap:square;stroke-linejoin:round;stroke:#b0b0b0;stroke-opacity:1;stroke-miterlimit:4" d="M52.163 45h278.996" transform="matrix(1.25 0 0 1.25 0 0)"/></g><path style="fill:none;stroke-width:.8;stroke-linecap:butt;stroke-linejoin:round;stroke:#000;stroke-opacity:1;stroke-miterlimit:4" d="M.002 0h-3.5" transform="matrix(1.25 0 0 1.25 65.201 56.25)"/><path style="stroke:none;fill-rule:nonzero;fill:#000;fill-opacity:1" d="M40.543 52.7c-.633 0-1.11.312-1.43.937-.32.62-.48 1.562-.48 2.816 0 1.246.16 2.184.48 2.809.32.625.797.937 1.43.937.64 0 1.121-.312 1.437-.937.32-.625.48-1.563.48-2.809 0-1.254-.16-2.195-.48-2.816-.316-.625-.796-.938-1.437-.938Zm0-.977c1.023 0 1.805.402 2.344 1.21.539.81.808 1.981.808 3.52 0 1.531-.27 2.703-.808 3.512-.54.808-1.32 1.21-2.344 1.21-1.02 0-1.8-.402-2.34-1.21-.539-.809-.808-1.98-.808-3.512 0-1.539.27-2.71.808-3.52.54-.808 1.32-1.21 2.34-1.21ZM45.86 59.45h1.288V61H45.86ZM49.848 51.887h4.84v1.039h-3.711v2.23c.18-.058.355-.105.535-.136.18-.028.36-.043.539-.043 1.015 0 1.824.277 2.418.836.593.554.89 1.312.89 2.261 0 .98-.304 1.742-.914 2.29-.613.542-1.472.812-2.582.812-.383 0-.773-.031-1.172-.098a8.55 8.55 0 0 1-1.226-.293v-1.238c.363.2.742.348 1.133.445.39.098.804.145 1.238.145.703 0 1.262-.184 1.672-.555.41-.367.617-.871.617-1.508 0-.633-.207-1.136-.617-1.504-.41-.37-.969-.558-1.672-.558a4.692 4.692 0 0 0-1.988.453Zm0 0"/><g clip-path="url(#n)"><path style="fill:none;stroke-width:.8;stroke-linecap:square;stroke-linejoin:round;stroke:#b0b0b0;stroke-opacity:1;stroke-miterlimit:4" d="M52.163 13.5h278.996" transform="matrix(1.25 0 0 1.25 0 0)"/></g><path style="fill:none;stroke-width:.8;stroke-linecap:butt;stroke-linejoin:round;stroke:#000;stroke-opacity:1;stroke-miterlimit:4" d="M.002 0h-3.5" transform="matrix(1.25 0 0 1.25 65.201 16.875)"/><path style="stroke:none;fill-rule:nonzero;fill:#000;fill-opacity:1" d="M38.121 20.586h2.016v-6.953l-2.192.441V12.95l2.18-.437h1.23v8.074h2.016v1.039h-5.25ZM45.86 20.074h1.288v1.551H45.86ZM52.473 13.324c-.637 0-1.114.313-1.434.938-.32.62-.477 1.562-.477 2.816 0 1.246.157 2.184.477 2.809.32.625.797.937 1.434.937.636 0 1.117-.312 1.437-.937.32-.625.48-1.563.48-2.809 0-1.254-.16-2.195-.48-2.816-.32-.625-.8-.938-1.437-.938Zm0-.976c1.02 0 1.8.402 2.34 1.21.539.81.808 1.981.808 3.52 0 1.531-.27 2.703-.809 3.512-.539.808-1.32 1.21-2.34 1.21-1.023 0-1.8-.402-2.34-1.21-.538-.809-.808-1.98-.808-3.512 0-1.539.27-2.71.809-3.52.539-.808 1.316-1.21 2.34-1.21ZM9.719 116.113h1.941v-2.312h.875v2.312h3.711c.559 0 .914-.074 1.074-.226.16-.153.239-.465.239-.934v-1.152h.937v1.152c0 .867-.16 1.465-.484 1.797-.325.328-.91.492-1.766.492h-3.71v.824h-.876v-.824H9.72ZM15.063 109.219c0 .906.101 1.535.308 1.886.207.348.563.524 1.063.524.398 0 .714-.133.949-.395.234-.261.351-.62.351-1.07 0-.625-.222-1.125-.664-1.5-.441-.375-1.027-.562-1.758-.562h-.25Zm-.465-2.242h3.898v1.125h-1.035c.414.253.719.574.918.957.2.382.297.851.297 1.406 0 .7-.196 1.254-.59 1.668-.395.414-.918.62-1.578.62-.77 0-1.348-.257-1.738-.773-.391-.515-.586-1.285-.586-2.304v-1.574h-.114c-.515 0-.914.168-1.199.507-.281.34-.422.817-.422 1.434 0 .39.047.77.14 1.14.095.372.235.727.423 1.067h-1.04a7.213 7.213 0 0 1-.355-1.195 5.696 5.696 0 0 1-.12-1.13c0-.987.257-1.726.769-2.214.511-.488 1.289-.734 2.332-.734ZM14.371 98.98h4.125v1.125h-4.09c-.644 0-1.129.125-1.449.38-.32.25-.484.628-.484 1.132 0 .606.195 1.086.582 1.438.386.347.91.523 1.578.523h3.863v1.129H11.66v-1.129h1.063c-.41-.27-.72-.586-.922-.95-.203-.362-.305-.784-.305-1.26 0-.786.246-1.38.73-1.782.485-.402 1.2-.606 2.145-.606ZM14.371 91.059h4.125v1.12h-4.09c-.644 0-1.129.13-1.449.38-.32.254-.484.632-.484 1.136 0 .606.195 1.086.582 1.434.386.351.91.527 1.578.527h3.863v1.13H9v-1.13h3.723c-.41-.27-.72-.586-.922-.949-.203-.363-.305-.785-.305-1.262 0-.785.246-1.379.73-1.78.485-.403 1.2-.606 2.145-.606ZM9.012 86.121c.937.547 1.863.95 2.777 1.215a9.89 9.89 0 0 0 5.574-.004 12.249 12.249 0 0 0 2.782-1.21v.976c-.957.609-1.895 1.066-2.82 1.37a8.721 8.721 0 0 1-2.75.454c-.907 0-1.821-.149-2.743-.45-.918-.3-1.86-.761-2.82-1.374ZM11.66 78.258l3.328 2.472 3.508-2.597v1.324l-2.683 1.988 2.683 1.989v1.328l-3.574-2.657-3.262 2.43v-1.324l2.438-1.813-2.438-1.812ZM9.012 76.723v-.977c.96-.61 1.902-1.066 2.82-1.371a8.805 8.805 0 0 1 2.742-.453c.91 0 1.828.152 2.75.453.926.305 1.863.762 2.82 1.371v.977c-.93-.543-1.859-.946-2.78-1.211a9.89 9.89 0 0 0-2.79-.403c-.941 0-1.867.133-2.785.403a12.53 12.53 0 0 0-2.777 1.21Zm0 0"/><path style="fill:none;stroke-width:1.5;stroke-linecap:square;stroke-linejoin:round;stroke:#1f77b4;stroke-opacity:1;stroke-miterlimit:4" d="m64.844 139.5 70.187-.094 9.572-.219 6.381-.378 4.785-.562 3.19-.61 3.191-.893 1.594-.594 1.597-.719 1.593-.865 1.597-1.041 1.594-1.247 1.597-1.49 1.594-1.77 1.596-2.087 1.594-2.45 1.597-2.853 1.594-3.294 1.594-3.759 1.596-4.24 1.594-4.722 1.597-5.175 3.19-11.504 7.976-30.787 1.597-5.584 1.593-5.175 1.597-4.722 1.594-4.241 1.594-3.76 1.597-3.293 1.593-2.853 1.597-2.45 1.594-2.088 1.597-1.769 1.594-1.49 1.596-1.247 1.594-1.04 1.597-.866 1.594-.719 3.19-1.084 3.191-.738 3.19-.5 4.785-.462 6.381-.31 9.572-.178 20.738-.072 46.26-.006" transform="matrix(1.25 0 0 1.25 0 0)"/><path style="fill:none;stroke-width:.8;stroke-linecap:square;stroke-linejoin:miter;stroke:#000;stroke-opacity:1;stroke-miterlimit:4" d="M52.163 145.8V7.2M331.16 145.8V7.2M52.163 145.8h279M52.163 7.2h279" transform="matrix(1.25 0 0 1.25 0 0)"/></svg>