<svg xmlns="http://www.w3.org/2000/svg" width="344pt" height="239pt" viewBox="0 0 344 239"><path style="fill:none;stroke-width:1;stroke-linecap:round;stroke-linejoin:round;stroke:#000;stroke-opacity:1;stroke-miterlimit:10" d="M41 173.61V43.4" transform="matrix(1.25 0 0 1.25 -8.75 -13.75)"/><path style="fill:none;stroke-width:1;stroke-linecap:butt;stroke-linejoin:miter;stroke:#000;stroke-opacity:1;stroke-miterlimit:10" d="M41 39.4v4m-1.5 0 1.5-4 1.5 4" transform="matrix(1.25 0 0 1.25 -8.75 -13.75)"/><path style="fill:none;stroke-width:1;stroke-linecap:round;stroke-linejoin:round;stroke:#000;stroke-opacity:1;stroke-miterlimit:10" d="m41 174.11 234.1-.485" transform="matrix(1.25 0 0 1.25 -8.75 -13.75)"/><path style="fill:none;stroke-width:1;stroke-linecap:butt;stroke-linejoin:miter;stroke:#000;stroke-opacity:1;stroke-miterlimit:10" d="m279.1 173.619-4 .006m-.003-1.5 4.003 1.494-4 1.506" transform="matrix(1.25 0 0 1.25 -8.75 -13.75)"/><path style="stroke:none;fill-rule:nonzero;fill:#000;fill-opacity:1" d="M17.07 46.445h-5.468v4.297h.8v-3.574h3.887v3.555h.781Zm-5.078-3.34v2.54h4.746v-2.54Zm3.965 1.856h-3.184v-1.152h3.184Zm-2.031 2.832v1.191c-.04.86-.254 1.543-.684 2.09-.469.508-1.27.918-2.422 1.23l.43.684c1.21-.332 2.07-.8 2.617-1.406.528-.645.82-1.523.86-2.598v-1.191Zm-5.137 5.078c.664 0 .996-.332.996-.996v-3.3c.43-.196.86-.41 1.29-.626v-.82c-.41.215-.84.43-1.29.644v-2.246h1.348v-.78H9.785v-2.052h-.8v2.051H7.48v.781h1.504v2.559c-.546.215-1.113.41-1.699.547l.195.82c.508-.156 1.016-.351 1.504-.527v2.754c0 .312-.156.468-.468.468-.313 0-.625-.02-.957-.039l.175.762Zm6.27-2.148-.41.605c.859.41 1.718.977 2.539 1.68l.449-.684a13.29 13.29 0 0 0-2.578-1.601ZM20.918 42.93c-.508 1.504-1.27 2.695-2.285 3.593l.703.606a8.544 8.544 0 0 0 1.328-1.68h2.676v.742c-.02.528-.059 1.036-.156 1.504h-4.356v.782h4.2a6.199 6.199 0 0 1-.704 1.543c-.703.937-1.933 1.68-3.691 2.265l.43.684c1.777-.567 3.046-1.367 3.828-2.383.39-.547.703-1.191.918-1.934.605 1.836 2.128 3.262 4.59 4.317l.449-.703c-2.344-.899-3.809-2.168-4.356-3.79h4.18v-.78h-4.649c.079-.47.137-.977.157-1.505v-.742h3.77v-.781h-3.77v-1.973h-.84v1.973h-2.266c.215-.45.41-.938.586-1.465ZM283.926 219.379v.723h1.64v.84h.762v-.84h1.797v.84h.781v-.84h1.739v-.723h-1.739v-.899h-.781v.899h-1.797v-.899h-.762v.899Zm3.164 7.07c.644.938 1.7 1.719 3.164 2.344l.527-.645c-1.328-.468-2.304-1.074-2.969-1.855h2.852v-.742h-3.242c.078-.254.137-.528.176-.84h2.304v-3.418h-5.37v3.418h2.363a8.756 8.756 0 0 1-.215.84h-2.97v.742h2.618c-.078.176-.195.312-.312.45-.489.585-1.29 1.015-2.422 1.327l.293.664c1.308-.37 2.207-.859 2.715-1.523a4.24 4.24 0 0 0 .488-.762Zm-4.258-3.437c.293.449.664 1.054 1.074 1.797l.43-.645a28.378 28.378 0 0 0-1.504-2.012v-.742h1.191v-.742h-1.191V218.5h-.762v2.168h-1.308v.742h1.308v.059a10.19 10.19 0 0 1-1.68 3.672l.352.879c.547-.86.977-1.836 1.328-2.891v5.605h.762Zm6.348 1.054h-3.926v-.761h3.926Zm-3.926-1.367v-.742h3.926v.742ZM292.305 218.95v.722h1.132v1.7h-1.425v.741h1.386c-.117.918-.488 1.602-1.113 2.07l.606.528c.742-.586 1.171-1.445 1.289-2.598h1.484v2.461h.781v-2.46h1.387v-.743h-1.387v-1.7h1.133v-.722Zm1.914.722h1.445v1.7h-1.445Zm4.277-.45v3.868h.781v-3.867Zm-5.937 6.465v.743h3.964v1.308h-4.59v.742h9.883v-.742h-4.492v-1.308h3.867v-.743h-3.867v-.976h-.8v.976Zm7.851-.996c.586 0 .899-.351.899-1.035v-5.058h-.782v4.863c0 .332-.136.508-.39.508-.45 0-.918-.02-1.407-.059l.176.781ZM305.625 219.984h6.953v-.703h-6.582c.117-.254.215-.527.313-.8l-.801-.137c-.43 1.27-1.211 2.324-2.363 3.203l.488.625a8.501 8.501 0 0 0 1.289-1.211v3.36h1.445c-.605.82-1.543 1.484-2.851 1.992l.43.683a10.6 10.6 0 0 0 1.562-.879 9.448 9.448 0 0 0 2.07 1.348c-1.172.332-2.558.527-4.18.605l.313.703c1.894-.117 3.496-.41 4.824-.898 1.27.488 2.754.781 4.395.86l.195-.743a14.772 14.772 0 0 1-3.633-.547c.938-.468 1.68-1.054 2.227-1.777v-.586h-5.04c.216-.234.391-.488.567-.762h4.453v-3.554h-6.62c.194-.254.37-.508.546-.782Zm2.91 7.149a9.653 9.653 0 0 1-2.441-1.387h4.629c-.547.547-1.29 1.016-2.188 1.387Zm2.383-3.457h-5.195v-.84h5.195Zm-5.195-1.446v-.82h5.195v.82ZM314.57 224.281v.801h4.453v2.441c0 .293-.156.43-.449.43-.41 0-.84-.02-1.289-.058l.176.8h1.406c.645 0 .977-.332.977-.976v-2.637h4.336v-.8h-4.336v-1.153h-.82v1.152Zm7.188 1.23-.547.528c1.035.879 1.836 1.68 2.422 2.441l.625-.605c-.684-.8-1.504-1.582-2.5-2.363Zm-4.903-.058a10.382 10.382 0 0 1-2.558 2.305l.527.683a10.782 10.782 0 0 0 2.598-2.46Zm1.29-7.05a10.91 10.91 0 0 1-.235 1.288h-2.969v.782h2.715c-.156.332-.312.644-.527.918-.527.703-1.406 1.23-2.617 1.601l.312.742c1.426-.43 2.422-1.035 2.988-1.816a5.27 5.27 0 0 0 .723-1.445h2.461v1.718c0 .704.352 1.055 1.074 1.055h1.016c.566 0 .918-.254 1.035-.762.078-.175.137-.625.195-1.347l-.78-.235c0 .391-.02.723-.06 1.075-.058.332-.195.507-.41.507h-.878c-.254 0-.391-.136-.391-.41v-2.383h-3.047c.098-.37.156-.78.195-1.21ZM327.93 224.633v.703h.683a7.196 7.196 0 0 0 2.051 1.836c-1.016.43-2.187.742-3.496.937l.352.703c1.484-.253 2.793-.664 3.945-1.19 1.055.526 2.383.937 3.926 1.19l.351-.703c-1.328-.175-2.5-.488-3.515-.898a9.057 9.057 0 0 0 2.304-1.973v-.605Zm1.543.703h4.004a8.62 8.62 0 0 1-2.07 1.484c-.762-.41-1.407-.898-1.934-1.484Zm-2.188-3.223h1.895v1.758h4.55v-1.758h1.739v-.742h-1.739v-.918h-.78v.918h-2.99v-.898h-.78v.898h-1.895v-1.27h8.203v-.78h-3.867a8.106 8.106 0 0 0-.39-.919l-.86.118c.156.253.293.507.43.8h-4.336v3.672c-.02 2.227-.352 3.946-.996 5.196l.605.546c.762-1.445 1.172-3.359 1.211-5.742Zm2.676 0h2.988v1.075h-2.988Zm0 0"/><path style="fill:none;stroke-width:1;stroke-linecap:round;stroke-linejoin:round;stroke:#000;stroke-opacity:1;stroke-miterlimit:10" d="M57.5 47s11.675 51.131 71.497 84.588c59.819 33.446 139.66 33.493 139.66 33.493" transform="matrix(1.25 0 0 1.25 -8.75 -13.75)"/><path style="fill:none;stroke-width:1;stroke-linecap:round;stroke-linejoin:round;stroke:#000;stroke-opacity:1;stroke-miterlimit:10" d="M57.5 37.5s9.972 49.503 69.794 60.731c59.819 11.232 141.362-21.093 141.362-21.093" transform="matrix(1.25 0 0 1.25 -8.75 -13.75)"/><path style="stroke:none;fill-rule:nonzero;fill:#000;fill-opacity:1" d="M280.152 112.258c-1.68.488-3.789.742-6.347.742l.254.723c2.695 0 4.863-.254 6.484-.782Zm-2.89 1.797-.88.136c.196.45.372.938.548 1.485h-2.696v.781h5.079c-.938 1.504-2.208 2.734-3.848 3.672-.059-.04-.078-.098-.117-.117a.562.562 0 0 0-.352-.137c-.527 0-1.055.664-1.601 1.992l.625.528c.41-1.094.742-1.622.957-1.622.097 0 .195.059.293.176.195.332.43.606.683.781.332.235.781.391 1.387.43.312.02.683.02 1.133.02h2.343l.176-.801c-.937.039-1.816.058-2.637.058-.43 0-.82-.019-1.132-.019-.489-.02-.918-.234-1.309-.684a11.23 11.23 0 0 0 4.316-4.336v-.722h-2.48c-.156-.606-.332-1.133-.488-1.621Zm-5.625-1.758-.586.566c.781.586 1.406 1.153 1.855 1.7l.567-.586c-.508-.567-1.114-1.114-1.836-1.68Zm-.293 2.656-.567.547c.723.605 1.29 1.191 1.68 1.719l.586-.586a12.6 12.6 0 0 0-1.7-1.68Zm1.328 3.125a30.164 30.164 0 0 1-1.738 3.906l.8.352a36.623 36.623 0 0 0 1.68-3.965ZM285.348 112.043c-.723 1.777-1.875 3.36-3.477 4.727l.254.84a15.827 15.827 0 0 0 1.66-1.563v6.426h.8v-7.422a12.26 12.26 0 0 0 1.505-2.656Zm5.175 10.215c.547 0 .918-.137 1.114-.39.195-.274.332-1.055.41-2.364l-.742-.234c-.059 1.113-.137 1.757-.254 1.933-.137.176-.371.293-.664.293h-1.817c-.37 0-.566-.195-.566-.527v-3.809c1.406-.879 2.637-1.875 3.672-3.008l-.567-.644a14.829 14.829 0 0 1-3.105 2.695v-4.023h-.8v4.511c-.567.352-1.192.645-1.817.938l.37.762c.49-.235.977-.489 1.446-.743v3.418c0 .801.39 1.192 1.172 1.192ZM302.887 115.89h-5.469v4.297h.8v-3.574h3.887v3.555h.782Zm-5.078-3.34v2.54h4.746v-2.54Zm3.964 1.856h-3.183v-1.152h3.183Zm-2.03 2.832v1.192c-.04.86-.255 1.543-.684 2.09-.47.507-1.27.918-2.422 1.23l.43.684c1.21-.332 2.07-.801 2.617-1.407.527-.644.82-1.523.859-2.597v-1.192Zm-5.138 5.078c.665 0 .997-.332.997-.996v-3.3c.43-.196.859-.41 1.289-.625v-.82c-.41.214-.84.429-1.29.644v-2.246h1.348v-.782h-1.347v-2.05h-.801v2.05h-1.504v.782h1.504v2.558c-.547.215-1.113.41-1.7.547l.196.82c.508-.156 1.015-.351 1.504-.527v2.754c0 .313-.156.469-.469.469-.312 0-.625-.02-.957-.04l.176.762Zm6.27-2.148-.41.605c.86.41 1.719.977 2.539 1.68l.45-.683a13.29 13.29 0 0 0-2.579-1.602ZM306.734 112.375c-.507 1.504-1.27 2.695-2.285 3.594l.703.605a8.544 8.544 0 0 0 1.328-1.68h2.676v.743c-.02.527-.058 1.035-.156 1.504h-4.355v.78h4.199a6.199 6.199 0 0 1-.703 1.544c-.704.937-1.934 1.68-3.692 2.265l.43.684c1.777-.566 3.047-1.367 3.828-2.383.39-.547.703-1.191.918-1.933.605 1.836 2.129 3.261 4.59 4.316l.45-.703c-2.345-.898-3.81-2.168-4.356-3.79h4.18v-.78h-4.65c.079-.47.138-.977.157-1.504v-.742h3.77v-.782h-3.77v-1.972h-.84v1.972h-2.265c.214-.449.41-.937.586-1.465ZM277.36 167.207v8.809h.78v-8.809Zm2.363-.547v10.117h.8V166.66Zm-4.59.04v4.94c-.02 2.13-.469 3.673-1.367 4.63l.605.546c.996-1.093 1.504-2.812 1.543-5.175v-4.942Zm-3.125-.157-.547.547c.8.605 1.445 1.191 1.934 1.758l.546-.567c-.527-.586-1.171-1.152-1.933-1.738Zm-1.309 3.34v.762h1.66v4.375a.678.678 0 0 1-.254.507l.313.723a12.82 12.82 0 0 0 1.894-1.68l-.214-.84c-.332.352-.664.684-.977.977v-4.824ZM285.504 174.473c-1.016.43-2.227.761-3.594 1.015l.098.82a20.67 20.67 0 0 0 3.496-1.035Zm-1.7-8.008c-.41 1.328-.878 2.48-1.445 3.515a.89.89 0 0 1-.351.313l.215.742c.586-.097 1.152-.215 1.718-.332-.546 1.055-1.035 1.797-1.425 2.246-.098.098-.235.176-.371.254l.214.742c1.036-.156 2.11-.43 3.243-.86v-.741a14.8 14.8 0 0 1-2.266.664c.605-.801 1.387-2.13 2.344-4.004l-.743-.293c-.214.45-.41.86-.625 1.27l-1.347.234c.547-.86 1.074-2.012 1.62-3.457Zm3.067 6.758c-.332.937-.8 1.836-1.426 2.714l.703.391c.528-.762 1.016-1.7 1.426-2.812Zm4.219 0-.723.234c.45.82.86 1.777 1.23 2.871l.684-.312a20.011 20.011 0 0 0-1.191-2.793Zm-2.52 3.418c.645 0 .977-.293.977-.899v-3.164h2.383v-.723h-2.383v-2.187h-1.504c.117-.371.254-.8.39-1.211h3.497v-.762h-3.262c.098-.37.195-.742.293-1.132l-.781-.137c-.118.43-.215.86-.332 1.27h-2.5v.761h2.285c-.137.41-.274.82-.41 1.211h-1.465v.742h1.172a20.56 20.56 0 0 1-.723 1.465l.176.703h2.383v2.93c0 .293-.157.43-.43.43l-1.074-.04.195.743Zm-.82-6.23h1.016v1.444h-1.66c.214-.449.43-.937.644-1.445ZM302.887 170.195h-5.469v4.297h.8v-3.574h3.887v3.555h.782Zm-5.078-3.34v2.54h4.746v-2.54Zm3.964 1.856h-3.183v-1.152h3.183Zm-2.03 2.832v1.191c-.04.86-.255 1.543-.684 2.09-.47.508-1.27.918-2.422 1.23l.43.684c1.21-.332 2.07-.8 2.617-1.406.527-.644.82-1.523.859-2.598v-1.191Zm-5.138 5.078c.665 0 .997-.332.997-.996v-3.3c.43-.196.859-.41 1.289-.626v-.82c-.41.215-.84.43-1.29.644v-2.246h1.348v-.78h-1.347v-2.052h-.801v2.051h-1.504v.781h1.504v2.559c-.547.215-1.113.41-1.7.547l.196.82c.508-.156 1.015-.351 1.504-.527v2.754c0 .312-.156.468-.469.468-.312 0-.625-.02-.957-.039l.176.762Zm6.27-2.148-.41.605c.86.41 1.719.977 2.539 1.68l.45-.684a13.29 13.29 0 0 0-2.579-1.601ZM306.734 166.68c-.507 1.504-1.27 2.695-2.285 3.593l.703.606a8.544 8.544 0 0 0 1.328-1.68h2.676v.742c-.02.528-.058 1.036-.156 1.504h-4.355v.782h4.199a6.199 6.199 0 0 1-.703 1.543c-.704.937-1.934 1.68-3.692 2.265l.43.684c1.777-.567 3.047-1.367 3.828-2.383.39-.547.703-1.191.918-1.934.605 1.836 2.129 3.262 4.59 4.317l.45-.703c-2.345-.899-3.81-2.168-4.356-3.79h4.18v-.78h-4.65c.079-.47.138-.977.157-1.505v-.742h3.77v-.781h-3.77v-1.973h-.84v1.973h-2.265c.214-.45.41-.938.586-1.465ZM81.113 17.598h5.313a6.297 6.297 0 0 1-1.114 2.597l.586.567c.723-.86 1.172-1.992 1.387-3.36v-.566h-5.879c.176-.508.332-1.074.45-1.66l-.82-.098c-.372 2.07-1.212 3.672-2.54 4.805l.508.644c.879-.703 1.582-1.66 2.11-2.93Zm1.602.742c-.02 1.484-.254 2.695-.723 3.652-.625 1.133-1.914 2.07-3.847 2.832l.566.664c2.148-.879 3.516-1.992 4.102-3.34.117-.273.234-.546.332-.84.82 1.837 2.363 3.243 4.59 4.2l.449-.703c-2.52-1.035-4.102-2.617-4.746-4.785.058-.508.097-1.075.097-1.68ZM93.066 24.023a15.958 15.958 0 0 0 2.735-1.289l-.215-.703a12.5 12.5 0 0 1-1.602.84v-7.363h-.761v7.246c0 .234-.137.41-.391.547Zm-2.48 1.329c.625 0 .937-.352.937-1.036v-3.164c.41-.175.82-.37 1.211-.586v-.78c-.41.234-.82.429-1.21.605v-2.364h1.132v-.78h-1.133v-2.071h-.8v2.07h-1.309v.781h1.309v2.676c-.47.176-.957.332-1.446.45l.176.761c.43-.117.84-.273 1.27-.43v2.618c0 .351-.137.527-.41.527-.274 0-.567-.02-.86-.059l.156.782Zm7.11-10.098c0 2.207-.157 4.004-.489 5.43-.43 1.68-1.328 3.086-2.676 4.199l.508.625c.996-.82 1.758-1.778 2.285-2.871a22.649 22.649 0 0 1 1.602 2.793l.644-.45c-.449-.898-1.074-1.933-1.914-3.125.137-.351.235-.742.332-1.132.332-1.485.508-3.32.508-5.47Zm-2.266 1.23-.664.215c.488.88.918 1.875 1.328 3.008l.664-.312a19.743 19.743 0 0 0-1.328-2.91ZM105.332 15.176c-1.328 1.562-2.988 2.87-4.98 3.926l.43.78c1.991-1.132 3.613-2.44 4.843-3.984a15.676 15.676 0 0 0 4.805 3.946l.43-.762a16.318 16.318 0 0 1-4.942-3.906Zm3.848 5.781h-7.11v4.531h.782v-.683h5.546v.683h.782Zm-6.328 3.086v-2.324h5.546v2.324Zm-.157-5.293v.781h5.86v-.781ZM220.762 15.332l-.567.547c.82.644 1.446 1.27 1.895 1.836l.586-.606a15.745 15.745 0 0 0-1.914-1.777Zm6.836 9.961h2.382l.196-.82a16.4 16.4 0 0 1-1.172.039c-.508 0-1.016.02-1.504.02-.918 0-1.7-.02-2.324-.02-.684-.02-1.23-.098-1.602-.254a3.296 3.296 0 0 1-.918-.703 1.134 1.134 0 0 0-.293-.254v-4.219h-2.383v.762h1.602v3.398c-.469.215-.996.801-1.602 1.758l.606.547c.625-1.055 1.094-1.582 1.367-1.582.137 0 .293.098.469.293.351.39.762.683 1.23.82.47.117 1.094.195 1.856.195.762.02 1.445.02 2.09.02Zm-.332-1.504c.664 0 1.015-.332 1.015-.996v-4.961h1.66v-.8h-1.66v-1.817h-.82v1.816h-4.258v.801h4.258v4.785c0 .293-.156.45-.488.45-.47 0-.977-.02-1.485-.06l.176.782Zm-2.832-4.96-.625.41c.683.82 1.23 1.562 1.62 2.226l.665-.45c-.39-.624-.938-1.347-1.66-2.187ZM234.941 24.023a15.958 15.958 0 0 0 2.735-1.289l-.215-.703a12.5 12.5 0 0 1-1.602.84v-7.363h-.761v7.246c0 .234-.137.41-.391.547Zm-2.48 1.329c.625 0 .937-.352.937-1.036v-3.164c.41-.175.82-.37 1.211-.586v-.78c-.41.234-.82.429-1.21.605v-2.364h1.132v-.78h-1.133v-2.071h-.8v2.07h-1.309v.781h1.309v2.676c-.47.176-.957.332-1.446.45l.176.761c.43-.117.84-.273 1.27-.43v2.618c0 .351-.137.527-.41.527-.274 0-.567-.02-.86-.059l.156.782Zm7.11-10.098c0 2.207-.157 4.004-.489 5.43-.43 1.68-1.328 3.086-2.676 4.199l.508.625c.996-.82 1.758-1.778 2.285-2.871a22.649 22.649 0 0 1 1.602 2.793l.644-.45c-.449-.898-1.074-1.933-1.914-3.125.137-.351.235-.742.332-1.132.332-1.485.508-3.32.508-5.47Zm-2.266 1.23-.664.215c.488.88.918 1.875 1.328 3.008l.664-.312a19.743 19.743 0 0 0-1.328-2.91ZM247.207 15.176c-1.328 1.562-2.988 2.87-4.98 3.926l.43.78c1.991-1.132 3.613-2.44 4.843-3.984a15.676 15.676 0 0 0 4.805 3.946l.43-.762a16.318 16.318 0 0 1-4.942-3.906Zm3.848 5.781h-7.11v4.531h.782v-.683h5.546v.683h.782Zm-6.328 3.086v-2.324h5.546v2.324Zm-.157-5.293v.781h5.86v-.781Zm0 0"/><path style="fill:none;stroke-width:1;stroke-linecap:round;stroke-linejoin:round;stroke:#000;stroke-opacity:1;stroke-miterlimit:10" d="M98.75 13.5h-26.6" transform="matrix(1.25 0 0 1.25 -8.75 -13.75)"/><path style="fill-rule:nonzero;fill:#000;fill-opacity:1;stroke-width:1;stroke-linecap:butt;stroke-linejoin:miter;stroke:#000;stroke-opacity:1;stroke-miterlimit:10" d="m68.15 13.5 4 1.5v-3Zm0 0" transform="matrix(1.25 0 0 1.25 -8.75 -13.75)"/><path style="fill:none;stroke-width:1;stroke-linecap:round;stroke-linejoin:round;stroke:#000;stroke-opacity:1;stroke-miterlimit:10" d="M179.75 13.5h26.6" transform="matrix(1.25 0 0 1.25 -8.75 -13.75)"/><path style="fill-rule:nonzero;fill:#000;fill-opacity:1;stroke-width:1;stroke-linecap:butt;stroke-linejoin:miter;stroke:#000;stroke-opacity:1;stroke-miterlimit:10" d="m210.35 13.5-4-1.5v3Zm0 0" transform="matrix(1.25 0 0 1.25 -8.75 -13.75)"/><path style="fill:none;stroke-width:1;stroke-linecap:round;stroke-linejoin:round;stroke:#000;stroke-opacity:1;stroke-dasharray:1,5;stroke-miterlimit:10" d="M140 174.61V38.5" transform="matrix(1.25 0 0 1.25 -8.75 -13.75)"/><path style="stroke:none;fill-rule:nonzero;fill:#000;fill-opacity:1" d="M156.309 19.57v.645h1.074v3.906l-1.055.04.098.702a84.567 84.567 0 0 0 3.965-.332v.996h.78v-1.093c.216-.04.45-.079.645-.118v-.644c-.195.039-.43.078-.644.098v-3.555h5.058v-.645Zm1.796 4.512v-.977h2.286v.782a53.38 53.38 0 0 1-2.286.195Zm0-1.562v-.84h2.286v.84Zm0-1.446v-.86h2.286v.86Zm-.37-5.488v3.242h7.109v-3.242Zm6.327 2.656h-5.566v-.762h5.566Zm-5.566-1.328v-.723h5.566v.723Zm3.613 4.727c.235.82.645 1.562 1.27 2.207-.469.41-1.055.742-1.738 1.035l.41.625a7.207 7.207 0 0 0 1.894-1.153c.508.43 1.133.801 1.875 1.153l.41-.664a8.467 8.467 0 0 1-1.777-.996c.547-.625.918-1.368 1.133-2.246v-.625h-3.828v.664Zm1.778 1.718a3.933 3.933 0 0 1-1.075-1.718h2.051a4.726 4.726 0 0 1-.976 1.718ZM171.094 16.543v.781h2.441v1.68h-3.027v.781h6.914v-.781h-3.047v-1.68h2.48v-.781h-2.48v-1.367h-.84v1.367Zm-.117 5.078v.781h2.558v1.914h-3.222v.801h7.304v-.8h-3.242v-1.915h2.578v-.78h-2.578v-1.427h-.84v1.426Zm-2.266-2.383v6.27h.84v-7.52c.449-.781.84-1.62 1.133-2.5l-.762-.351a12.196 12.196 0 0 1-2.637 4.61l.254.878c.43-.45.82-.898 1.172-1.387Zm0 0"/></svg>