<svg xmlns:xlink="http://www.w3.org/1999/xlink" width="768" height="576" viewBox="0 0 576 432" xmlns="http://www.w3.org/2000/svg"><defs><style>*{stroke-linejoin:round;stroke-linecap:butt}</style></defs><g id="figure_1"><path d="M0 432h576V0H0z" style="fill:#fff" id="patch_1"/><g id="axes_1"><path d="M72 384.48h446.4V51.84H72z" style="fill:#fff" id="patch_2"/><g id="matplotlib.axis_1"><g id="xtick_1"><path d="M92.29 384.48V51.84" clip-path="url(#p024b44b1ee)" style="fill:none;stroke:#b0b0b0;stroke-width:.8;stroke-linecap:square" id="line2d_1"/><g id="line2d_2"><defs><path id="mc72531d62e" d="M0 0v3.5" style="stroke:#000;stroke-width:.8"/></defs><use xlink:href="#mc72531d62e" x="92.291" y="384.48" style="stroke:#000;stroke-width:.8"/></g><g transform="matrix(.1 0 0 -.1 89.11 399.078)" id="text_1"><defs><path id="DejaVuSans-30" d="M2034 4250q-487 0-733-480-245-479-245-1442 0-959 245-1439 246-480 733-480 491 0 736 480 246 480 246 1439 0 963-246 1442-245 480-736 480zm0 500q785 0 1199-621 414-620 414-1801 0-1178-414-1799Q2819-91 2034-91q-784 0-1198 620-414 621-414 1799 0 1181 414 1801 414 621 1198 621z" transform="scale(.01563)"/></defs><use xlink:href="#DejaVuSans-30"/></g></g><g id="xtick_2"><path d="M173.455 384.48V51.84" clip-path="url(#p024b44b1ee)" style="fill:none;stroke:#b0b0b0;stroke-width:.8;stroke-linecap:square" id="line2d_3"/><use xlink:href="#mc72531d62e" x="173.455" y="384.48" style="stroke:#000;stroke-width:.8" id="line2d_4"/><g transform="matrix(.1 0 0 -.1 167.092 399.078)" id="text_2"><defs><path id="DejaVuSans-31" d="M794 531h1031v3560L703 3866v575l1116 225h631V531h1031V0H794v531z" transform="scale(.01563)"/></defs><use xlink:href="#DejaVuSans-31"/><use xlink:href="#DejaVuSans-30" x="63.623"/></g></g><g id="xtick_3"><path d="M254.618 384.48V51.84" clip-path="url(#p024b44b1ee)" style="fill:none;stroke:#b0b0b0;stroke-width:.8;stroke-linecap:square" id="line2d_5"/><use xlink:href="#mc72531d62e" x="254.618" y="384.48" style="stroke:#000;stroke-width:.8" id="line2d_6"/><g transform="matrix(.1 0 0 -.1 248.256 399.078)" id="text_3"><defs><path id="DejaVuSans-32" d="M1228 531h2203V0H469v531q359 372 979 998 621 627 780 809 303 340 423 576 121 236 121 464 0 372-261 606-261 235-680 235-297 0-627-103-329-103-704-313v638q381 153 712 231 332 78 607 78 725 0 1156-363 431-362 431-968 0-288-108-546-107-257-392-607-78-91-497-524-418-433-1181-1211z" transform="scale(.01563)"/></defs><use xlink:href="#DejaVuSans-32"/><use xlink:href="#DejaVuSans-30" x="63.623"/></g></g><g id="xtick_4"><path d="M335.782 384.48V51.84" clip-path="url(#p024b44b1ee)" style="fill:none;stroke:#b0b0b0;stroke-width:.8;stroke-linecap:square" id="line2d_7"/><use xlink:href="#mc72531d62e" x="335.782" y="384.48" style="stroke:#000;stroke-width:.8" id="line2d_8"/><g transform="matrix(.1 0 0 -.1 329.42 399.078)" id="text_4"><defs><path id="DejaVuSans-33" d="M2597 2516q453-97 707-404 255-306 255-756 0-690-475-1069Q2609-91 1734-91q-293 0-604 58T488 141v609q262-153 574-231 313-78 654-78 593 0 904 234t311 681q0 413-289 645-289 233-804 233h-544v519h569q465 0 712 186t247 536q0 359-255 551-254 193-729 193-260 0-557-57-297-56-653-174v562q360 100 674 150t592 50q719 0 1137-327 419-326 419-882 0-388-222-655t-631-370z" transform="scale(.01563)"/></defs><use xlink:href="#DejaVuSans-33"/><use xlink:href="#DejaVuSans-30" x="63.623"/></g></g><g id="xtick_5"><path d="M416.945 384.48V51.84" clip-path="url(#p024b44b1ee)" style="fill:none;stroke:#b0b0b0;stroke-width:.8;stroke-linecap:square" id="line2d_9"/><use xlink:href="#mc72531d62e" x="416.945" y="384.48" style="stroke:#000;stroke-width:.8" id="line2d_10"/><g transform="matrix(.1 0 0 -.1 410.583 399.078)" id="text_5"><defs><path id="DejaVuSans-34" d="M2419 4116 825 1625h1594v2491zm-166 550h794V1625h666v-525h-666V0h-628v1100H313v609l1940 2957z" transform="scale(.01563)"/></defs><use xlink:href="#DejaVuSans-34"/><use xlink:href="#DejaVuSans-30" x="63.623"/></g></g><g id="xtick_6"><path d="M498.11 384.48V51.84" clip-path="url(#p024b44b1ee)" style="fill:none;stroke:#b0b0b0;stroke-width:.8;stroke-linecap:square" id="line2d_11"/><use xlink:href="#mc72531d62e" x="498.109" y="384.48" style="stroke:#000;stroke-width:.8" id="line2d_12"/><g transform="matrix(.1 0 0 -.1 491.747 399.078)" id="text_6"><defs><path id="DejaVuSans-35" d="M691 4666h2478v-532H1269V2991q137 47 274 70 138 23 276 23 781 0 1237-428 457-428 457-1159 0-753-469-1171Q2575-91 1722-91q-294 0-599 50Q819 9 494 109v635q281-153 581-228t634-75q541 0 856 284 316 284 316 772 0 487-316 771-315 285-856 285-253 0-505-56-251-56-513-175v2344z" transform="scale(.01563)"/></defs><use xlink:href="#DejaVuSans-35"/><use xlink:href="#DejaVuSans-30" x="63.623"/></g></g><g transform="matrix(.1 0 0 -.1 291.775 412.757)" id="text_7"><defs><path id="DejaVuSans-58" d="M403 4666h678l1160-1735 1165 1735h678L2584 2425 4184 0h-678L2194 1984 872 0H191l1665 2491L403 4666z" transform="scale(.01563)"/></defs><use xlink:href="#DejaVuSans-58"/></g></g><g id="matplotlib.axis_2"><g id="ytick_1"><path d="M72 369.36h446.4" clip-path="url(#p024b44b1ee)" style="fill:none;stroke:#b0b0b0;stroke-width:.8;stroke-linecap:square" id="line2d_13"/><g id="line2d_14"><defs><path id="m02276fafd7" d="M0 0h-3.5" style="stroke:#000;stroke-width:.8"/></defs><use xlink:href="#m02276fafd7" x="72" y="369.36" style="stroke:#000;stroke-width:.8"/></g><g transform="matrix(.1 0 0 -.1 42.734 373.16)" id="text_8"><defs><path id="DejaVuSans-2e" d="M684 794h660V0H684v794z" transform="scale(.01563)"/></defs><use xlink:href="#DejaVuSans-30"/><use xlink:href="#DejaVuSans-2e" x="63.623"/><use xlink:href="#DejaVuSans-30" x="95.41"/><use xlink:href="#DejaVuSans-30" x="159.033"/></g></g><g id="ytick_2"><path d="M72 330.13h446.4" clip-path="url(#p024b44b1ee)" style="fill:none;stroke:#b0b0b0;stroke-width:.8;stroke-linecap:square" id="line2d_15"/><use xlink:href="#m02276fafd7" x="72" y="330.13" style="stroke:#000;stroke-width:.8" id="line2d_16"/><g transform="matrix(.1 0 0 -.1 42.734 333.93)" id="text_9"><use xlink:href="#DejaVuSans-30"/><use xlink:href="#DejaVuSans-2e" x="63.623"/><use xlink:href="#DejaVuSans-30" x="95.41"/><use xlink:href="#DejaVuSans-32" x="159.033"/></g></g><g id="ytick_3"><path d="M72 290.9h446.4" clip-path="url(#p024b44b1ee)" style="fill:none;stroke:#b0b0b0;stroke-width:.8;stroke-linecap:square" id="line2d_17"/><use xlink:href="#m02276fafd7" x="72" y="290.9" style="stroke:#000;stroke-width:.8" id="line2d_18"/><g transform="matrix(.1 0 0 -.1 42.734 294.7)" id="text_10"><use xlink:href="#DejaVuSans-30"/><use xlink:href="#DejaVuSans-2e" x="63.623"/><use xlink:href="#DejaVuSans-30" x="95.41"/><use xlink:href="#DejaVuSans-34" x="159.033"/></g></g><g id="ytick_4"><path d="M72 251.67h446.4" clip-path="url(#p024b44b1ee)" style="fill:none;stroke:#b0b0b0;stroke-width:.8;stroke-linecap:square" id="line2d_19"/><use xlink:href="#m02276fafd7" x="72" y="251.671" style="stroke:#000;stroke-width:.8" id="line2d_20"/><g transform="matrix(.1 0 0 -.1 42.734 255.47)" id="text_11"><defs><path id="DejaVuSans-36" d="M2113 2584q-425 0-674-291-248-290-248-796 0-503 248-796 249-292 674-292t673 292q248 293 248 796 0 506-248 796-248 291-673 291zm1253 1979v-575q-238 112-480 171-242 60-480 60-625 0-955-422-329-422-376-1275 184 272 462 417 279 145 613 145 703 0 1111-427 408-426 408-1160 0-719-425-1154Q2819-91 2113-91q-810 0-1238 620-428 621-428 1799 0 1106 525 1764t1409 658q238 0 480-47t505-140z" transform="scale(.01563)"/></defs><use xlink:href="#DejaVuSans-30"/><use xlink:href="#DejaVuSans-2e" x="63.623"/><use xlink:href="#DejaVuSans-30" x="95.41"/><use xlink:href="#DejaVuSans-36" x="159.033"/></g></g><g id="ytick_5"><path d="M72 212.44h446.4" clip-path="url(#p024b44b1ee)" style="fill:none;stroke:#b0b0b0;stroke-width:.8;stroke-linecap:square" id="line2d_21"/><use xlink:href="#m02276fafd7" x="72" y="212.441" style="stroke:#000;stroke-width:.8" id="line2d_22"/><g transform="matrix(.1 0 0 -.1 42.734 216.24)" id="text_12"><defs><path id="DejaVuSans-38" d="M2034 2216q-450 0-708-241-257-241-257-662 0-422 257-663 258-241 708-241t709 242q260 243 260 662 0 421-258 662-257 241-711 241zm-631 268q-406 100-633 378-226 279-226 679 0 559 398 884 399 325 1092 325 697 0 1094-325t397-884q0-400-227-679-226-278-629-378 456-106 710-416 255-309 255-755 0-679-414-1042Q2806-91 2034-91q-771 0-1186 362-414 363-414 1042 0 446 256 755 257 310 713 416zm-231 997q0-362 226-565 227-203 636-203 407 0 636 203 230 203 230 565 0 363-230 566-229 203-636 203-409 0-636-203-226-203-226-566z" transform="scale(.01563)"/></defs><use xlink:href="#DejaVuSans-30"/><use xlink:href="#DejaVuSans-2e" x="63.623"/><use xlink:href="#DejaVuSans-30" x="95.41"/><use xlink:href="#DejaVuSans-38" x="159.033"/></g></g><g id="ytick_6"><path d="M72 173.211h446.4" clip-path="url(#p024b44b1ee)" style="fill:none;stroke:#b0b0b0;stroke-width:.8;stroke-linecap:square" id="line2d_23"/><use xlink:href="#m02276fafd7" x="72" y="173.211" style="stroke:#000;stroke-width:.8" id="line2d_24"/><g transform="matrix(.1 0 0 -.1 42.734 177.01)" id="text_13"><use xlink:href="#DejaVuSans-30"/><use xlink:href="#DejaVuSans-2e" x="63.623"/><use xlink:href="#DejaVuSans-31" x="95.41"/><use xlink:href="#DejaVuSans-30" x="159.033"/></g></g><g id="ytick_7"><path d="M72 133.981h446.4" clip-path="url(#p024b44b1ee)" style="fill:none;stroke:#b0b0b0;stroke-width:.8;stroke-linecap:square" id="line2d_25"/><use xlink:href="#m02276fafd7" x="72" y="133.981" style="stroke:#000;stroke-width:.8" id="line2d_26"/><g transform="matrix(.1 0 0 -.1 42.734 137.78)" id="text_14"><use xlink:href="#DejaVuSans-30"/><use xlink:href="#DejaVuSans-2e" x="63.623"/><use xlink:href="#DejaVuSans-31" x="95.41"/><use xlink:href="#DejaVuSans-32" x="159.033"/></g></g><g id="ytick_8"><path d="M72 94.752h446.4" clip-path="url(#p024b44b1ee)" style="fill:none;stroke:#b0b0b0;stroke-width:.8;stroke-linecap:square" id="line2d_27"/><use xlink:href="#m02276fafd7" x="72" y="94.752" style="stroke:#000;stroke-width:.8" id="line2d_28"/><g transform="matrix(.1 0 0 -.1 42.734 98.55)" id="text_15"><use xlink:href="#DejaVuSans-30"/><use xlink:href="#DejaVuSans-2e" x="63.623"/><use xlink:href="#DejaVuSans-31" x="95.41"/><use xlink:href="#DejaVuSans-34" x="159.033"/></g></g><g id="ytick_9"><path d="M72 55.522h446.4" clip-path="url(#p024b44b1ee)" style="fill:none;stroke:#b0b0b0;stroke-width:.8;stroke-linecap:square" id="line2d_29"/><use xlink:href="#m02276fafd7" x="72" y="55.522" style="stroke:#000;stroke-width:.8" id="line2d_30"/><g transform="matrix(.1 0 0 -.1 42.734 59.321)" id="text_16"><use xlink:href="#DejaVuSans-30"/><use xlink:href="#DejaVuSans-2e" x="63.623"/><use xlink:href="#DejaVuSans-31" x="95.41"/><use xlink:href="#DejaVuSans-36" x="159.033"/></g></g><g transform="matrix(0 -.1 -.1 0 36.655 288.04)" id="text_17"><defs><path id="DejaVuSans-50" d="M1259 4147V2394h794q441 0 681 228 241 228 241 650 0 419-241 647-240 228-681 228h-794zm-631 519h1425q785 0 1186-355 402-355 402-1039 0-691-402-1044-401-353-1186-353h-794V0H628v4666z" transform="scale(.01563)"/><path id="DejaVuSans-72" d="M2631 2963q-97 56-211 82-114 27-251 27-488 0-749-317t-261-911V0H581v3500h578v-544q182 319 472 473 291 155 707 155 59 0 131-8 72-7 159-23l3-590z" transform="scale(.01563)"/><path id="DejaVuSans-6f" d="M1959 3097q-462 0-731-361t-269-989q0-628 267-989 268-361 733-361 460 0 728 362 269 363 269 988 0 622-269 986-268 364-728 364zm0 487q750 0 1178-488 429-487 429-1349 0-859-429-1349Q2709-91 1959-91q-753 0-1180 489-426 490-426 1349 0 862 426 1349 427 488 1180 488z" transform="scale(.01563)"/><path id="DejaVuSans-62" d="M3116 1747q0 634-261 995t-717 361q-457 0-718-361t-261-995q0-634 261-995t718-361q456 0 717 361t261 995zM1159 2969q182 312 458 463 277 152 661 152 638 0 1036-506 399-506 399-1331T3314 415Q2916-91 2278-91q-384 0-661 152-276 152-458 464V0H581v4863h578V2969z" transform="scale(.01563)"/><path id="DejaVuSans-61" d="M2194 1759q-697 0-966-159t-269-544q0-306 202-486 202-179 548-179 479 0 768 339t289 901v128h-572zm1147 238V0h-575v531q-197-318-491-470T1556-91q-537 0-855 302-317 302-317 808 0 590 395 890 396 300 1180 300h807v57q0 397-261 614t-733 217q-300 0-585-72-284-72-546-216v532q315 122 612 182 297 61 578 61 760 0 1135-394 375-393 375-1193z" transform="scale(.01563)"/><path id="DejaVuSans-69" d="M603 3500h575V0H603v3500zm0 1363h575v-729H603v729z" transform="scale(.01563)"/><path id="DejaVuSans-6c" d="M603 4863h575V0H603v4863z" transform="scale(.01563)"/><path id="DejaVuSans-74" d="M1172 4494v-994h1184v-447H1172V1153q0-428 117-550t477-122h590V0h-590q-666 0-919 248-253 249-253 905v1900H172v447h422v994h578z" transform="scale(.01563)"/><path id="DejaVuSans-79" d="M2059-325q-243-625-475-815-231-191-618-191H506v481h338q237 0 368 113 132 112 291 531l103 262L191 3500h609L1894 763l1094 2737h609L2059-325z" transform="scale(.01563)"/><path id="DejaVuSans-44" d="M1259 4147V519h763q966 0 1414 437 448 438 448 1382 0 937-448 1373t-1414 436h-763zm-631 519h1297q1356 0 1990-564 635-564 635-1764 0-1207-638-1773Q3275 0 1925 0H628v4666z" transform="scale(.01563)"/><path id="DejaVuSans-65" d="M3597 1894v-281H953q38-594 358-905t892-311q331 0 642 81t618 244V178Q3153 47 2828-22t-659-69q-838 0-1327 487-489 488-489 1320 0 859 464 1363 464 505 1252 505 706 0 1117-455 411-454 411-1235zm-575 169q-6 471-264 752-258 282-683 282-481 0-770-272t-333-766l2050 4z" transform="scale(.01563)"/><path id="DejaVuSans-6e" d="M3513 2113V0h-575v2094q0 497-194 743-194 247-581 247-466 0-735-297-269-296-269-809V0H581v3500h578v-544q207 316 486 472 280 156 646 156 603 0 912-373 310-373 310-1098z" transform="scale(.01563)"/><path id="DejaVuSans-73" d="M2834 3397v-544q-243 125-506 187-262 63-544 63-428 0-642-131t-214-394q0-200 153-314t616-217l197-44q612-131 870-370t258-667q0-488-386-773Q2250-91 1575-91q-281 0-586 55T347 128v594q319-166 628-249 309-82 613-82 406 0 624 139 219 139 219 392 0 234-158 359-157 125-692 241l-200 47q-534 112-772 345-237 233-237 639 0 494 350 762 350 269 994 269 318 0 599-47 282-46 519-140z" transform="scale(.01563)"/><path id="DejaVuSans-46" d="M628 4666h2681v-532H1259V2759h1850v-531H1259V0H628v4666z" transform="scale(.01563)"/><path id="DejaVuSans-75" d="M544 1381v2119h575V1403q0-497 193-746 194-248 582-248 465 0 735 297 271 297 271 810v1984h575V0h-575v538q-209-319-486-474-276-155-642-155-603 0-916 375-312 375-312 1097zm1447 2203z" transform="scale(.01563)"/><path id="DejaVuSans-63" d="M3122 3366v-538q-244 135-489 202t-495 67q-560 0-870-355-309-354-309-995t309-996q310-354 870-354 250 0 495 67t489 202V134Q2881 22 2623-34q-257-57-548-57-791 0-1257 497-465 497-465 1341 0 856 470 1346 471 491 1290 491 265 0 518-55 253-54 491-163z" transform="scale(.01563)"/></defs><use xlink:href="#DejaVuSans-50"/><use xlink:href="#DejaVuSans-72" x="58.553"/><use xlink:href="#DejaVuSans-6f" x="97.416"/><use xlink:href="#DejaVuSans-62" x="158.598"/><use xlink:href="#DejaVuSans-61" x="222.074"/><use xlink:href="#DejaVuSans-62" x="283.354"/><use xlink:href="#DejaVuSans-69" x="346.83"/><use xlink:href="#DejaVuSans-6c" x="374.613"/><use xlink:href="#DejaVuSans-69" x="402.396"/><use xlink:href="#DejaVuSans-74" x="430.18"/><use xlink:href="#DejaVuSans-79" x="469.389"/><use xlink:href="#DejaVuSans-20" x="528.568"/><use xlink:href="#DejaVuSans-44" x="560.355"/><use xlink:href="#DejaVuSans-65" x="637.357"/><use xlink:href="#DejaVuSans-6e" x="698.881"/><use xlink:href="#DejaVuSans-73" x="762.26"/><use xlink:href="#DejaVuSans-69" x="814.359"/><use xlink:href="#DejaVuSans-74" x="842.143"/><use xlink:href="#DejaVuSans-79" x="881.352"/><use xlink:href="#DejaVuSans-20" x="940.531"/><use xlink:href="#DejaVuSans-46" x="972.318"/><use xlink:href="#DejaVuSans-75" x="1024.338"/><use xlink:href="#DejaVuSans-6e" x="1087.717"/><use xlink:href="#DejaVuSans-63" x="1151.096"/><use xlink:href="#DejaVuSans-74" x="1206.076"/><use xlink:href="#DejaVuSans-69" x="1245.285"/><use xlink:href="#DejaVuSans-6f" x="1273.068"/><use xlink:href="#DejaVuSans-6e" x="1334.25"/></g></g><path d="m92.29 369.36 4.1-72.729 4.1-87.073 4.098-68.257 4.1-44.704 4.099-23.366 4.099-6.271 4.1 6.373 4.098 15.064 4.1 20.523 4.099 23.48 4.099 24.59 4.099 24.393 4.1 23.321 4.098 21.706 4.1 19.793 4.099 17.76 4.099 15.725 4.099 13.776 4.1 11.956 4.098 10.297 4.1 8.807 4.099 7.488 4.099 6.334 4.1 5.333 4.098 4.472 4.1 3.734 4.099 3.11 4.099 2.58 4.099 2.135 4.1 1.762 4.098 1.452 4.1 1.192 4.099.978 4.099.8 4.099.654 4.1.533 4.098.435 4.1.353 4.099.286 4.099.233 4.099.188 4.1.153 4.098.123 4.1.1 4.099.08 4.099.065 4.1.052 4.098.042 4.1.033 4.099.027 4.099.022 4.099.017 4.1.014 4.098.012 4.1.009 4.099.007 4.099.005 4.099.005 4.1.004 4.098.003 4.1.002 4.099.002 4.099.001 4.099.001 4.1.001 4.098.001h4.1l4.099.001h8.199l4.098.001H432.522l4.1.001H498.11" clip-path="url(#p024b44b1ee)" style="fill:none;stroke:#1f77b4;stroke-width:1.5;stroke-linecap:square" id="line2d_31"/><path d="m92.29 369.36 4.1-.13 4.1-1.475 4.098-4.705 4.1-9.183 4.099-13.89 4.099-17.948 4.1-20.787 4.098-22.156 4.1-22.057 4.099-20.672 4.099-18.27 4.099-15.162 4.1-11.648 4.098-7.993 4.1-4.415 4.099-1.075 4.099 1.911 4.099 4.478 4.1 6.593 4.098 8.26 4.1 9.495 4.099 10.34 4.099 10.834 4.1 11.031 4.098 10.981 4.1 10.73 4.099 10.326 4.099 9.806 4.099 9.207 4.1 8.56 4.098 7.887 4.1 7.212 4.099 6.545 4.099 5.904 4.099 5.294 4.1 4.72 4.098 4.19 4.1 3.7 4.099 3.253 4.099 2.851 4.099 2.488 4.1 2.164 4.098 1.876 4.1 1.621 4.099 1.398 4.099 1.2 4.1 1.03 4.098.88 4.1.75 4.099.64 4.099.542 4.099.46 4.1.39 4.098.329 4.1.277 4.099.233 4.099.196 4.099.165 4.1.138 4.098.115 4.1.096 4.099.08 4.099.067 4.099.056 4.1.046 4.098.039 4.1.032 4.099.026 4.099.022 4.1.018 4.098.015 4.1.012 4.099.01 4.099.009 4.099.007 4.1.005 4.098.005 4.1.004 4.099.003 4.099.003 4.099.002 4.1.001 4.098.002h4.1l4.099.002h4.099l4.099.001h4.1l4.098.001h8.199l4.099.001h28.695" clip-path="url(#p024b44b1ee)" style="fill:none;stroke:#ff7f0e;stroke-width:1.5;stroke-linecap:square" id="line2d_32"/><path d="M92.29 369.36H104.589l4.1-.001 4.099-.005 4.099-.019 4.1-.053 4.098-.123 4.1-.25 4.099-.452 4.099-.752 4.099-1.158 4.1-1.678 4.098-2.306 4.1-3.027 4.099-3.818 4.099-4.647 4.099-5.475 4.1-6.268 4.098-6.985 4.1-7.593 4.099-8.064 4.099-8.374 4.1-8.51 4.098-8.468 4.1-8.246 4.099-7.854 4.099-7.31 4.099-6.627 4.1-5.835 4.098-4.955 4.1-4.014 4.099-3.037 4.099-2.05 4.099-1.075 4.1-.13 4.098.764 4.1 1.596 4.099 2.355 4.099 3.032 4.099 3.622 4.1 4.125 4.098 4.539 4.1 4.866 4.099 5.112 4.099 5.28 4.1 5.374 4.098 5.407 4.1 5.38 4.099 5.305 4.099 5.185 4.099 5.029 4.1 4.843 4.098 4.636 4.1 4.41 4.099 4.173 4.099 3.928 4.099 3.68 4.1 3.431 4.098 3.187 4.1 2.947 4.099 2.715 4.099 2.492 4.099 2.281 4.1 2.08 4.098 1.89 4.1 1.713 4.099 1.549 4.099 1.396 4.1 1.254 4.098 1.125 4.1 1.006 4.099.898 4.099.8 4.099.71 4.1.63 4.098.556 4.1.492 4.099.434 4.099.38 4.099.336 4.1.293 4.098.257 4.1.225 4.099.196 4.099.17 4.099.148 4.1.13 4.098.11 4.1.098 4.099.083 4.099.073 4.099.062 4.1.054 4.098.046 4.1.04 4.099.034 4.099.029 4.1.025" clip-path="url(#p024b44b1ee)" style="fill:none;stroke:#2ca02c;stroke-width:1.5;stroke-linecap:square" id="line2d_33"/><path d="M72 384.48V51.84" style="fill:none;stroke:#000;stroke-width:.8;stroke-linejoin:miter;stroke-linecap:square" id="patch_3"/><path d="M518.4 384.48V51.84" style="fill:none;stroke:#000;stroke-width:.8;stroke-linejoin:miter;stroke-linecap:square" id="patch_4"/><path d="M72 384.48h446.4" style="fill:none;stroke:#000;stroke-width:.8;stroke-linejoin:miter;stroke-linecap:square" id="patch_5"/><path d="M72 51.84h446.4" style="fill:none;stroke:#000;stroke-width:.8;stroke-linejoin:miter;stroke-linecap:square" id="patch_6"/><g transform="matrix(.12 0 0 -.12 120.57 45.84)" id="text_18"><defs><path id="DejaVuSans-43" d="M4122 4306v-665q-319 297-680 443-361 147-767 147-800 0-1225-489t-425-1414q0-922 425-1411t1225-489q406 0 767 147t680 444V359q-331-225-702-338-370-112-782-112-1060 0-1670 648-609 649-609 1771 0 1125 609 1773 610 649 1670 649 418 0 788-111 371-111 696-333z" transform="scale(.01563)"/><path id="DejaVuSans-68" d="M3513 2113V0h-575v2094q0 497-194 743-194 247-581 247-466 0-735-297-269-296-269-809V0H581v4863h578V2956q207 316 486 472 280 156 646 156 603 0 912-373 310-373 310-1098z" transform="scale(.01563)"/><path id="DejaVuSans-2d" d="M313 2009h1684v-512H313v512z" transform="scale(.01563)"/><path id="DejaVuSans-53" d="M3425 4513v-616q-359 172-678 256-319 85-616 85-515 0-795-200t-280-569q0-310 186-468 186-157 705-254l381-78q706-135 1042-474t336-907q0-679-455-1029Q2797-91 1919-91q-331 0-705 75-373 75-773 222v650q384-215 753-325 369-109 725-109 540 0 834 212 294 213 294 607 0 343-211 537t-692 291l-385 75q-706 140-1022 440-315 300-315 835 0 619 436 975t1201 356q329 0 669-60 341-59 697-177z" transform="scale(.01563)"/><path id="DejaVuSans-71" d="M947 1747q0-634 261-995t717-361q456 0 718 361 263 361 263 995t-263 995q-262 361-718 361t-717-361q-261-361-261-995zM2906 525q-181-312-458-464-276-152-664-152-634 0-1033 506-398 507-398 1332t398 1331q399 506 1033 506 388 0 664-152 277-151 458-463v531h575v-4831h-575V525z" transform="scale(.01563)"/><path id="DejaVuSans-64" d="M2906 2969v1894h575V0h-575v525q-181-312-458-464-276-152-664-152-634 0-1033 506-398 507-398 1332t398 1331q399 506 1033 506 388 0 664-152 277-151 458-463zM947 1747q0-634 261-995t717-361q456 0 718 361 263 361 263 995t-263 995q-262 361-718 361t-717-361q-261-361-261-995z" transform="scale(.01563)"/><path id="DejaVuSans-66" d="M2375 4863v-479h-550q-309 0-430-125-120-125-120-450v-309h947v-447h-947V0H697v3053H147v447h550v244q0 584 272 851 272 268 862 268h544z" transform="scale(.01563)"/><path id="DejaVuSans-67" d="M2906 1791q0 625-258 968-257 344-723 344-462 0-720-344-258-343-258-968 0-622 258-966t720-344q466 0 723 344 258 344 258 966zm575-1357q0-893-397-1329-396-436-1215-436-303 0-572 45t-522 139v559q253-137 500-202 247-66 503-66 566 0 847 295t281 892v285q-178-310-456-463T1784 0Q1141 0 747 490 353 981 353 1791q0 812 394 1302 394 491 1037 491 388 0 666-153t456-462v531h575V434z" transform="scale(.01563)"/><path id="DejaVuSans-6d" d="M3328 2828q216 388 516 572t706 184q547 0 844-383 297-382 297-1088V0h-578v2094q0 503-179 746-178 244-543 244-447 0-707-297-259-296-259-809V0h-578v2094q0 506-178 748t-550 242q-441 0-701-298-259-298-259-808V0H581v3500h578v-544q197 322 472 475t653 153q382 0 649-194 267-193 395-562z" transform="scale(.01563)"/></defs><use xlink:href="#DejaVuSans-43"/><use xlink:href="#DejaVuSans-68" x="69.824"/><use xlink:href="#DejaVuSans-69" x="133.203"/><use xlink:href="#DejaVuSans-2d" x="160.986"/><use xlink:href="#DejaVuSans-53" x="197.07"/><use xlink:href="#DejaVuSans-71" x="260.547"/><use xlink:href="#DejaVuSans-75" x="324.023"/><use xlink:href="#DejaVuSans-61" x="387.402"/><use xlink:href="#DejaVuSans-72" x="448.682"/><use xlink:href="#DejaVuSans-65" x="487.545"/><use xlink:href="#DejaVuSans-64" x="549.068"/><use xlink:href="#DejaVuSans-20" x="612.545"/><use xlink:href="#DejaVuSans-44" x="644.332"/><use xlink:href="#DejaVuSans-69" x="721.334"/><use xlink:href="#DejaVuSans-73" x="749.117"/><use xlink:href="#DejaVuSans-74" x="801.217"/><use xlink:href="#DejaVuSans-72" x="840.426"/><use xlink:href="#DejaVuSans-69" x="881.539"/><use xlink:href="#DejaVuSans-62" x="909.322"/><use xlink:href="#DejaVuSans-75" x="972.799"/><use xlink:href="#DejaVuSans-74" x="1036.178"/><use xlink:href="#DejaVuSans-69" x="1075.387"/><use xlink:href="#DejaVuSans-6f" x="1103.17"/><use xlink:href="#DejaVuSans-6e" x="1164.352"/><use xlink:href="#DejaVuSans-20" x="1227.73"/><use xlink:href="#DejaVuSans-66" x="1259.518"/><use xlink:href="#DejaVuSans-6f" x="1294.723"/><use xlink:href="#DejaVuSans-72" x="1355.904"/><use xlink:href="#DejaVuSans-20" x="1397.018"/><use xlink:href="#DejaVuSans-44" x="1428.805"/><use xlink:href="#DejaVuSans-69" x="1505.807"/><use xlink:href="#DejaVuSans-66" x="1533.59"/><use xlink:href="#DejaVuSans-66" x="1568.795"/><use xlink:href="#DejaVuSans-65" x="1604"/><use xlink:href="#DejaVuSans-72" x="1665.523"/><use xlink:href="#DejaVuSans-65" x="1704.387"/><use xlink:href="#DejaVuSans-6e" x="1765.91"/><use xlink:href="#DejaVuSans-74" x="1829.289"/><use xlink:href="#DejaVuSans-20" x="1868.498"/><use xlink:href="#DejaVuSans-44" x="1900.285"/><use xlink:href="#DejaVuSans-65" x="1977.287"/><use xlink:href="#DejaVuSans-67" x="2038.811"/><use xlink:href="#DejaVuSans-72" x="2102.287"/><use xlink:href="#DejaVuSans-65" x="2141.15"/><use xlink:href="#DejaVuSans-65" x="2202.674"/><use xlink:href="#DejaVuSans-73" x="2264.197"/><use xlink:href="#DejaVuSans-20" x="2316.297"/><use xlink:href="#DejaVuSans-6f" x="2348.084"/><use xlink:href="#DejaVuSans-66" x="2409.266"/><use xlink:href="#DejaVuSans-20" x="2444.471"/><use xlink:href="#DejaVuSans-46" x="2476.258"/><use xlink:href="#DejaVuSans-72" x="2526.527"/><use xlink:href="#DejaVuSans-65" x="2565.391"/><use xlink:href="#DejaVuSans-65" x="2626.914"/><use xlink:href="#DejaVuSans-64" x="2688.438"/><use xlink:href="#DejaVuSans-6f" x="2751.914"/><use xlink:href="#DejaVuSans-6d" x="2813.096"/></g><g id="legend_1"><path d="M451.958 103.874H511.4q2 0 2-2V58.84q0-2-2-2h-59.442q-2 0-2 2v43.034q0 2 2 2z" style="fill:#fff;opacity:.8;stroke:#ccc;stroke-linejoin:miter" id="patch_7"/><path d="M453.958 64.938h20" style="fill:none;stroke:#1f77b4;stroke-width:1.5;stroke-linecap:square" id="line2d_34"/><g transform="matrix(.1 0 0 -.1 481.958 68.438)" id="text_19"><defs><path id="DejaVuSans-3d" d="M678 2906h4006v-525H678v525zm0-1275h4006v-531H678v531z" transform="scale(.01563)"/></defs><use xlink:href="#DejaVuSans-6e"/><use xlink:href="#DejaVuSans-3d" x="63.379"/><use xlink:href="#DejaVuSans-35" x="147.168"/></g><path d="M453.958 79.617h20" style="fill:none;stroke:#ff7f0e;stroke-width:1.5;stroke-linecap:square" id="line2d_35"/><g transform="matrix(.1 0 0 -.1 481.958 83.117)" id="text_20"><use xlink:href="#DejaVuSans-6e"/><use xlink:href="#DejaVuSans-3d" x="63.379"/><use xlink:href="#DejaVuSans-31" x="147.168"/><use xlink:href="#DejaVuSans-30" x="210.791"/></g><path d="M453.958 94.295h20" style="fill:none;stroke:#2ca02c;stroke-width:1.5;stroke-linecap:square" id="line2d_36"/><g transform="matrix(.1 0 0 -.1 481.958 97.795)" id="text_21"><use xlink:href="#DejaVuSans-6e"/><use xlink:href="#DejaVuSans-3d" x="63.379"/><use xlink:href="#DejaVuSans-32" x="147.168"/><use xlink:href="#DejaVuSans-30" x="210.791"/></g></g></g></g><defs><clipPath id="p024b44b1ee"><path d="M72 51.84h446.4v332.64H72z"/></clipPath></defs></svg>