<?xml version="1.0" encoding="utf-8" standalone="no"?>
<!DOCTYPE svg PUBLIC "-//W3C//DTD SVG 1.1//EN"
  "http://www.w3.org/Graphics/SVG/1.1/DTD/svg11.dtd">
<svg xmlns:xlink="http://www.w3.org/1999/xlink" width="576pt" height="432pt" viewBox="0 0 576 432" xmlns="http://www.w3.org/2000/svg" version="1.1">
 <metadata>
  <rdf:RDF xmlns:dc="http://purl.org/dc/elements/1.1/" xmlns:cc="http://creativecommons.org/ns#" xmlns:rdf="http://www.w3.org/1999/02/22-rdf-syntax-ns#">
   <cc:Work>
    <dc:type rdf:resource="http://purl.org/dc/dcmitype/StillImage"/>
    <dc:date>2023-10-04T20:27:13.469669</dc:date>
    <dc:format>image/svg+xml</dc:format>
    <dc:creator>
     <cc:Agent>
      <dc:title>Matplotlib v3.8.0, https://matplotlib.org/</dc:title>
     </cc:Agent>
    </dc:creator>
   </cc:Work>
  </rdf:RDF>
 </metadata>
 <defs>
  <style type="text/css">*{stroke-linejoin: round; stroke-linecap: butt}</style>
 </defs>
 <g id="figure_1">
  <g id="patch_1">
   <path d="M 0 432 
L 576 432 
L 576 0 
L 0 0 
z
" style="fill: #ffffff"/>
  </g>
  <g id="axes_1">
   <g id="patch_2">
    <path d="M 72 384.48 
L 518.4 384.48 
L 518.4 51.84 
L 72 51.84 
z
" style="fill: #ffffff"/>
   </g>
   <g id="matplotlib.axis_1">
    <g id="xtick_1">
     <g id="line2d_1">
      <path d="M 132.872727 384.48 
L 132.872727 51.84 
" clip-path="url(#p6bdf5ab90f)" style="fill: none; stroke: #b0b0b0; stroke-width: 0.8; stroke-linecap: square"/>
     </g>
     <g id="line2d_2">
      <defs>
       <path id="md5a94ec5be" d="M 0 0 
L 0 3.5 
" style="stroke: #000000; stroke-width: 0.8"/>
      </defs>
      <g>
       <use xlink:href="#md5a94ec5be" x="132.872727" y="384.48" style="stroke: #000000; stroke-width: 0.8"/>
      </g>
     </g>
     <g id="text_1">
      <!-- −4 -->
      <g transform="translate(125.501634 399.078438) scale(0.1 -0.1)">
       <defs>
        <path id="DejaVuSans-2212" d="M 678 2272 
L 4684 2272 
L 4684 1741 
L 678 1741 
L 678 2272 
z
" transform="scale(0.015625)"/>
        <path id="DejaVuSans-34" d="M 2419 4116 
L 825 1625 
L 2419 1625 
L 2419 4116 
z
M 2253 4666 
L 3047 4666 
L 3047 1625 
L 3713 1625 
L 3713 1100 
L 3047 1100 
L 3047 0 
L 2419 0 
L 2419 1100 
L 313 1100 
L 313 1709 
L 2253 4666 
z
" transform="scale(0.015625)"/>
       </defs>
       <use xlink:href="#DejaVuSans-2212"/>
       <use xlink:href="#DejaVuSans-34" x="83.789062"/>
      </g>
     </g>
    </g>
    <g id="xtick_2">
     <g id="line2d_3">
      <path d="M 214.036364 384.48 
L 214.036364 51.84 
" clip-path="url(#p6bdf5ab90f)" style="fill: none; stroke: #b0b0b0; stroke-width: 0.8; stroke-linecap: square"/>
     </g>
     <g id="line2d_4">
      <g>
       <use xlink:href="#md5a94ec5be" x="214.036364" y="384.48" style="stroke: #000000; stroke-width: 0.8"/>
      </g>
     </g>
     <g id="text_2">
      <!-- −2 -->
      <g transform="translate(206.66527 399.078438) scale(0.1 -0.1)">
       <defs>
        <path id="DejaVuSans-32" d="M 1228 531 
L 3431 531 
L 3431 0 
L 469 0 
L 469 531 
Q 828 903 1448 1529 
Q 2069 2156 2228 2338 
Q 2531 2678 2651 2914 
Q 2772 3150 2772 3378 
Q 2772 3750 2511 3984 
Q 2250 4219 1831 4219 
Q 1534 4219 1204 4116 
Q 875 4013 500 3803 
L 500 4441 
Q 881 4594 1212 4672 
Q 1544 4750 1819 4750 
Q 2544 4750 2975 4387 
Q 3406 4025 3406 3419 
Q 3406 3131 3298 2873 
Q 3191 2616 2906 2266 
Q 2828 2175 2409 1742 
Q 1991 1309 1228 531 
z
" transform="scale(0.015625)"/>
       </defs>
       <use xlink:href="#DejaVuSans-2212"/>
       <use xlink:href="#DejaVuSans-32" x="83.789062"/>
      </g>
     </g>
    </g>
    <g id="xtick_3">
     <g id="line2d_5">
      <path d="M 295.2 384.48 
L 295.2 51.84 
" clip-path="url(#p6bdf5ab90f)" style="fill: none; stroke: #b0b0b0; stroke-width: 0.8; stroke-linecap: square"/>
     </g>
     <g id="line2d_6">
      <g>
       <use xlink:href="#md5a94ec5be" x="295.2" y="384.48" style="stroke: #000000; stroke-width: 0.8"/>
      </g>
     </g>
     <g id="text_3">
      <!-- 0 -->
      <g transform="translate(292.01875 399.078438) scale(0.1 -0.1)">
       <defs>
        <path id="DejaVuSans-30" d="M 2034 4250 
Q 1547 4250 1301 3770 
Q 1056 3291 1056 2328 
Q 1056 1369 1301 889 
Q 1547 409 2034 409 
Q 2525 409 2770 889 
Q 3016 1369 3016 2328 
Q 3016 3291 2770 3770 
Q 2525 4250 2034 4250 
z
M 2034 4750 
Q 2819 4750 3233 4129 
Q 3647 3509 3647 2328 
Q 3647 1150 3233 529 
Q 2819 -91 2034 -91 
Q 1250 -91 836 529 
Q 422 1150 422 2328 
Q 422 3509 836 4129 
Q 1250 4750 2034 4750 
z
" transform="scale(0.015625)"/>
       </defs>
       <use xlink:href="#DejaVuSans-30"/>
      </g>
     </g>
    </g>
    <g id="xtick_4">
     <g id="line2d_7">
      <path d="M 376.363636 384.48 
L 376.363636 51.84 
" clip-path="url(#p6bdf5ab90f)" style="fill: none; stroke: #b0b0b0; stroke-width: 0.8; stroke-linecap: square"/>
     </g>
     <g id="line2d_8">
      <g>
       <use xlink:href="#md5a94ec5be" x="376.363636" y="384.48" style="stroke: #000000; stroke-width: 0.8"/>
      </g>
     </g>
     <g id="text_4">
      <!-- 2 -->
      <g transform="translate(373.182386 399.078438) scale(0.1 -0.1)">
       <use xlink:href="#DejaVuSans-32"/>
      </g>
     </g>
    </g>
    <g id="xtick_5">
     <g id="line2d_9">
      <path d="M 457.527273 384.48 
L 457.527273 51.84 
" clip-path="url(#p6bdf5ab90f)" style="fill: none; stroke: #b0b0b0; stroke-width: 0.8; stroke-linecap: square"/>
     </g>
     <g id="line2d_10">
      <g>
       <use xlink:href="#md5a94ec5be" x="457.527273" y="384.48" style="stroke: #000000; stroke-width: 0.8"/>
      </g>
     </g>
     <g id="text_5">
      <!-- 4 -->
      <g transform="translate(454.346023 399.078438) scale(0.1 -0.1)">
       <use xlink:href="#DejaVuSans-34"/>
      </g>
     </g>
    </g>
    <g id="text_6">
     <!-- X -->
     <g transform="translate(291.775 412.756563) scale(0.1 -0.1)">
      <defs>
       <path id="DejaVuSans-58" d="M 403 4666 
L 1081 4666 
L 2241 2931 
L 3406 4666 
L 4084 4666 
L 2584 2425 
L 4184 0 
L 3506 0 
L 2194 1984 
L 872 0 
L 191 0 
L 1856 2491 
L 403 4666 
z
" transform="scale(0.015625)"/>
      </defs>
      <use xlink:href="#DejaVuSans-58"/>
     </g>
    </g>
   </g>
   <g id="matplotlib.axis_2">
    <g id="ytick_1">
     <g id="line2d_11">
      <path d="M 72 369.42064 
L 518.4 369.42064 
" clip-path="url(#p6bdf5ab90f)" style="fill: none; stroke: #b0b0b0; stroke-width: 0.8; stroke-linecap: square"/>
     </g>
     <g id="line2d_12">
      <defs>
       <path id="m728238e4a4" d="M 0 0 
L -3.5 0 
" style="stroke: #000000; stroke-width: 0.8"/>
      </defs>
      <g>
       <use xlink:href="#m728238e4a4" x="72" y="369.42064" style="stroke: #000000; stroke-width: 0.8"/>
      </g>
     </g>
     <g id="text_7">
      <!-- 0.00 -->
      <g transform="translate(42.734375 373.219859) scale(0.1 -0.1)">
       <defs>
        <path id="DejaVuSans-2e" d="M 684 794 
L 1344 794 
L 1344 0 
L 684 0 
L 684 794 
z
" transform="scale(0.015625)"/>
       </defs>
       <use xlink:href="#DejaVuSans-30"/>
       <use xlink:href="#DejaVuSans-2e" x="63.623047"/>
       <use xlink:href="#DejaVuSans-30" x="95.410156"/>
       <use xlink:href="#DejaVuSans-30" x="159.033203"/>
      </g>
     </g>
    </g>
    <g id="ytick_2">
     <g id="line2d_13">
      <path d="M 72 331.035693 
L 518.4 331.035693 
" clip-path="url(#p6bdf5ab90f)" style="fill: none; stroke: #b0b0b0; stroke-width: 0.8; stroke-linecap: square"/>
     </g>
     <g id="line2d_14">
      <g>
       <use xlink:href="#m728238e4a4" x="72" y="331.035693" style="stroke: #000000; stroke-width: 0.8"/>
      </g>
     </g>
     <g id="text_8">
      <!-- 0.05 -->
      <g transform="translate(42.734375 334.834912) scale(0.1 -0.1)">
       <defs>
        <path id="DejaVuSans-35" d="M 691 4666 
L 3169 4666 
L 3169 4134 
L 1269 4134 
L 1269 2991 
Q 1406 3038 1543 3061 
Q 1681 3084 1819 3084 
Q 2600 3084 3056 2656 
Q 3513 2228 3513 1497 
Q 3513 744 3044 326 
Q 2575 -91 1722 -91 
Q 1428 -91 1123 -41 
Q 819 9 494 109 
L 494 744 
Q 775 591 1075 516 
Q 1375 441 1709 441 
Q 2250 441 2565 725 
Q 2881 1009 2881 1497 
Q 2881 1984 2565 2268 
Q 2250 2553 1709 2553 
Q 1456 2553 1204 2497 
Q 953 2441 691 2322 
L 691 4666 
z
" transform="scale(0.015625)"/>
       </defs>
       <use xlink:href="#DejaVuSans-30"/>
       <use xlink:href="#DejaVuSans-2e" x="63.623047"/>
       <use xlink:href="#DejaVuSans-30" x="95.410156"/>
       <use xlink:href="#DejaVuSans-35" x="159.033203"/>
      </g>
     </g>
    </g>
    <g id="ytick_3">
     <g id="line2d_15">
      <path d="M 72 292.650746 
L 518.4 292.650746 
" clip-path="url(#p6bdf5ab90f)" style="fill: none; stroke: #b0b0b0; stroke-width: 0.8; stroke-linecap: square"/>
     </g>
     <g id="line2d_16">
      <g>
       <use xlink:href="#m728238e4a4" x="72" y="292.650746" style="stroke: #000000; stroke-width: 0.8"/>
      </g>
     </g>
     <g id="text_9">
      <!-- 0.10 -->
      <g transform="translate(42.734375 296.449965) scale(0.1 -0.1)">
       <defs>
        <path id="DejaVuSans-31" d="M 794 531 
L 1825 531 
L 1825 4091 
L 703 3866 
L 703 4441 
L 1819 4666 
L 2450 4666 
L 2450 531 
L 3481 531 
L 3481 0 
L 794 0 
L 794 531 
z
" transform="scale(0.015625)"/>
       </defs>
       <use xlink:href="#DejaVuSans-30"/>
       <use xlink:href="#DejaVuSans-2e" x="63.623047"/>
       <use xlink:href="#DejaVuSans-31" x="95.410156"/>
       <use xlink:href="#DejaVuSans-30" x="159.033203"/>
      </g>
     </g>
    </g>
    <g id="ytick_4">
     <g id="line2d_17">
      <path d="M 72 254.2658 
L 518.4 254.2658 
" clip-path="url(#p6bdf5ab90f)" style="fill: none; stroke: #b0b0b0; stroke-width: 0.8; stroke-linecap: square"/>
     </g>
     <g id="line2d_18">
      <g>
       <use xlink:href="#m728238e4a4" x="72" y="254.2658" style="stroke: #000000; stroke-width: 0.8"/>
      </g>
     </g>
     <g id="text_10">
      <!-- 0.15 -->
      <g transform="translate(42.734375 258.065018) scale(0.1 -0.1)">
       <use xlink:href="#DejaVuSans-30"/>
       <use xlink:href="#DejaVuSans-2e" x="63.623047"/>
       <use xlink:href="#DejaVuSans-31" x="95.410156"/>
       <use xlink:href="#DejaVuSans-35" x="159.033203"/>
      </g>
     </g>
    </g>
    <g id="ytick_5">
     <g id="line2d_19">
      <path d="M 72 215.880853 
L 518.4 215.880853 
" clip-path="url(#p6bdf5ab90f)" style="fill: none; stroke: #b0b0b0; stroke-width: 0.8; stroke-linecap: square"/>
     </g>
     <g id="line2d_20">
      <g>
       <use xlink:href="#m728238e4a4" x="72" y="215.880853" style="stroke: #000000; stroke-width: 0.8"/>
      </g>
     </g>
     <g id="text_11">
      <!-- 0.20 -->
      <g transform="translate(42.734375 219.680072) scale(0.1 -0.1)">
       <use xlink:href="#DejaVuSans-30"/>
       <use xlink:href="#DejaVuSans-2e" x="63.623047"/>
       <use xlink:href="#DejaVuSans-32" x="95.410156"/>
       <use xlink:href="#DejaVuSans-30" x="159.033203"/>
      </g>
     </g>
    </g>
    <g id="ytick_6">
     <g id="line2d_21">
      <path d="M 72 177.495906 
L 518.4 177.495906 
" clip-path="url(#p6bdf5ab90f)" style="fill: none; stroke: #b0b0b0; stroke-width: 0.8; stroke-linecap: square"/>
     </g>
     <g id="line2d_22">
      <g>
       <use xlink:href="#m728238e4a4" x="72" y="177.495906" style="stroke: #000000; stroke-width: 0.8"/>
      </g>
     </g>
     <g id="text_12">
      <!-- 0.25 -->
      <g transform="translate(42.734375 181.295125) scale(0.1 -0.1)">
       <use xlink:href="#DejaVuSans-30"/>
       <use xlink:href="#DejaVuSans-2e" x="63.623047"/>
       <use xlink:href="#DejaVuSans-32" x="95.410156"/>
       <use xlink:href="#DejaVuSans-35" x="159.033203"/>
      </g>
     </g>
    </g>
    <g id="ytick_7">
     <g id="line2d_23">
      <path d="M 72 139.110959 
L 518.4 139.110959 
" clip-path="url(#p6bdf5ab90f)" style="fill: none; stroke: #b0b0b0; stroke-width: 0.8; stroke-linecap: square"/>
     </g>
     <g id="line2d_24">
      <g>
       <use xlink:href="#m728238e4a4" x="72" y="139.110959" style="stroke: #000000; stroke-width: 0.8"/>
      </g>
     </g>
     <g id="text_13">
      <!-- 0.30 -->
      <g transform="translate(42.734375 142.910178) scale(0.1 -0.1)">
       <defs>
        <path id="DejaVuSans-33" d="M 2597 2516 
Q 3050 2419 3304 2112 
Q 3559 1806 3559 1356 
Q 3559 666 3084 287 
Q 2609 -91 1734 -91 
Q 1441 -91 1130 -33 
Q 819 25 488 141 
L 488 750 
Q 750 597 1062 519 
Q 1375 441 1716 441 
Q 2309 441 2620 675 
Q 2931 909 2931 1356 
Q 2931 1769 2642 2001 
Q 2353 2234 1838 2234 
L 1294 2234 
L 1294 2753 
L 1863 2753 
Q 2328 2753 2575 2939 
Q 2822 3125 2822 3475 
Q 2822 3834 2567 4026 
Q 2313 4219 1838 4219 
Q 1578 4219 1281 4162 
Q 984 4106 628 3988 
L 628 4550 
Q 988 4650 1302 4700 
Q 1616 4750 1894 4750 
Q 2613 4750 3031 4423 
Q 3450 4097 3450 3541 
Q 3450 3153 3228 2886 
Q 3006 2619 2597 2516 
z
" transform="scale(0.015625)"/>
       </defs>
       <use xlink:href="#DejaVuSans-30"/>
       <use xlink:href="#DejaVuSans-2e" x="63.623047"/>
       <use xlink:href="#DejaVuSans-33" x="95.410156"/>
       <use xlink:href="#DejaVuSans-30" x="159.033203"/>
      </g>
     </g>
    </g>
    <g id="ytick_8">
     <g id="line2d_25">
      <path d="M 72 100.726013 
L 518.4 100.726013 
" clip-path="url(#p6bdf5ab90f)" style="fill: none; stroke: #b0b0b0; stroke-width: 0.8; stroke-linecap: square"/>
     </g>
     <g id="line2d_26">
      <g>
       <use xlink:href="#m728238e4a4" x="72" y="100.726013" style="stroke: #000000; stroke-width: 0.8"/>
      </g>
     </g>
     <g id="text_14">
      <!-- 0.35 -->
      <g transform="translate(42.734375 104.525231) scale(0.1 -0.1)">
       <use xlink:href="#DejaVuSans-30"/>
       <use xlink:href="#DejaVuSans-2e" x="63.623047"/>
       <use xlink:href="#DejaVuSans-33" x="95.410156"/>
       <use xlink:href="#DejaVuSans-35" x="159.033203"/>
      </g>
     </g>
    </g>
    <g id="ytick_9">
     <g id="line2d_27">
      <path d="M 72 62.341066 
L 518.4 62.341066 
" clip-path="url(#p6bdf5ab90f)" style="fill: none; stroke: #b0b0b0; stroke-width: 0.8; stroke-linecap: square"/>
     </g>
     <g id="line2d_28">
      <g>
       <use xlink:href="#m728238e4a4" x="72" y="62.341066" style="stroke: #000000; stroke-width: 0.8"/>
      </g>
     </g>
     <g id="text_15">
      <!-- 0.40 -->
      <g transform="translate(42.734375 66.140285) scale(0.1 -0.1)">
       <use xlink:href="#DejaVuSans-30"/>
       <use xlink:href="#DejaVuSans-2e" x="63.623047"/>
       <use xlink:href="#DejaVuSans-34" x="95.410156"/>
       <use xlink:href="#DejaVuSans-30" x="159.033203"/>
      </g>
     </g>
    </g>
    <g id="text_16">
     <!-- Probability Density Function -->
     <g transform="translate(36.654687 288.040469) rotate(-90) scale(0.1 -0.1)">
      <defs>
       <path id="DejaVuSans-50" d="M 1259 4147 
L 1259 2394 
L 2053 2394 
Q 2494 2394 2734 2622 
Q 2975 2850 2975 3272 
Q 2975 3691 2734 3919 
Q 2494 4147 2053 4147 
L 1259 4147 
z
M 628 4666 
L 2053 4666 
Q 2838 4666 3239 4311 
Q 3641 3956 3641 3272 
Q 3641 2581 3239 2228 
Q 2838 1875 2053 1875 
L 1259 1875 
L 1259 0 
L 628 0 
L 628 4666 
z
" transform="scale(0.015625)"/>
       <path id="DejaVuSans-72" d="M 2631 2963 
Q 2534 3019 2420 3045 
Q 2306 3072 2169 3072 
Q 1681 3072 1420 2755 
Q 1159 2438 1159 1844 
L 1159 0 
L 581 0 
L 581 3500 
L 1159 3500 
L 1159 2956 
Q 1341 3275 1631 3429 
Q 1922 3584 2338 3584 
Q 2397 3584 2469 3576 
Q 2541 3569 2628 3553 
L 2631 2963 
z
" transform="scale(0.015625)"/>
       <path id="DejaVuSans-6f" d="M 1959 3097 
Q 1497 3097 1228 2736 
Q 959 2375 959 1747 
Q 959 1119 1226 758 
Q 1494 397 1959 397 
Q 2419 397 2687 759 
Q 2956 1122 2956 1747 
Q 2956 2369 2687 2733 
Q 2419 3097 1959 3097 
z
M 1959 3584 
Q 2709 3584 3137 3096 
Q 3566 2609 3566 1747 
Q 3566 888 3137 398 
Q 2709 -91 1959 -91 
Q 1206 -91 779 398 
Q 353 888 353 1747 
Q 353 2609 779 3096 
Q 1206 3584 1959 3584 
z
" transform="scale(0.015625)"/>
       <path id="DejaVuSans-62" d="M 3116 1747 
Q 3116 2381 2855 2742 
Q 2594 3103 2138 3103 
Q 1681 3103 1420 2742 
Q 1159 2381 1159 1747 
Q 1159 1113 1420 752 
Q 1681 391 2138 391 
Q 2594 391 2855 752 
Q 3116 1113 3116 1747 
z
M 1159 2969 
Q 1341 3281 1617 3432 
Q 1894 3584 2278 3584 
Q 2916 3584 3314 3078 
Q 3713 2572 3713 1747 
Q 3713 922 3314 415 
Q 2916 -91 2278 -91 
Q 1894 -91 1617 61 
Q 1341 213 1159 525 
L 1159 0 
L 581 0 
L 581 4863 
L 1159 4863 
L 1159 2969 
z
" transform="scale(0.015625)"/>
       <path id="DejaVuSans-61" d="M 2194 1759 
Q 1497 1759 1228 1600 
Q 959 1441 959 1056 
Q 959 750 1161 570 
Q 1363 391 1709 391 
Q 2188 391 2477 730 
Q 2766 1069 2766 1631 
L 2766 1759 
L 2194 1759 
z
M 3341 1997 
L 3341 0 
L 2766 0 
L 2766 531 
Q 2569 213 2275 61 
Q 1981 -91 1556 -91 
Q 1019 -91 701 211 
Q 384 513 384 1019 
Q 384 1609 779 1909 
Q 1175 2209 1959 2209 
L 2766 2209 
L 2766 2266 
Q 2766 2663 2505 2880 
Q 2244 3097 1772 3097 
Q 1472 3097 1187 3025 
Q 903 2953 641 2809 
L 641 3341 
Q 956 3463 1253 3523 
Q 1550 3584 1831 3584 
Q 2591 3584 2966 3190 
Q 3341 2797 3341 1997 
z
" transform="scale(0.015625)"/>
       <path id="DejaVuSans-69" d="M 603 3500 
L 1178 3500 
L 1178 0 
L 603 0 
L 603 3500 
z
M 603 4863 
L 1178 4863 
L 1178 4134 
L 603 4134 
L 603 4863 
z
" transform="scale(0.015625)"/>
       <path id="DejaVuSans-6c" d="M 603 4863 
L 1178 4863 
L 1178 0 
L 603 0 
L 603 4863 
z
" transform="scale(0.015625)"/>
       <path id="DejaVuSans-74" d="M 1172 4494 
L 1172 3500 
L 2356 3500 
L 2356 3053 
L 1172 3053 
L 1172 1153 
Q 1172 725 1289 603 
Q 1406 481 1766 481 
L 2356 481 
L 2356 0 
L 1766 0 
Q 1100 0 847 248 
Q 594 497 594 1153 
L 594 3053 
L 172 3053 
L 172 3500 
L 594 3500 
L 594 4494 
L 1172 4494 
z
" transform="scale(0.015625)"/>
       <path id="DejaVuSans-79" d="M 2059 -325 
Q 1816 -950 1584 -1140 
Q 1353 -1331 966 -1331 
L 506 -1331 
L 506 -850 
L 844 -850 
Q 1081 -850 1212 -737 
Q 1344 -625 1503 -206 
L 1606 56 
L 191 3500 
L 800 3500 
L 1894 763 
L 2988 3500 
L 3597 3500 
L 2059 -325 
z
" transform="scale(0.015625)"/>
       <path id="DejaVuSans-20" transform="scale(0.015625)"/>
       <path id="DejaVuSans-44" d="M 1259 4147 
L 1259 519 
L 2022 519 
Q 2988 519 3436 956 
Q 3884 1394 3884 2338 
Q 3884 3275 3436 3711 
Q 2988 4147 2022 4147 
L 1259 4147 
z
M 628 4666 
L 1925 4666 
Q 3281 4666 3915 4102 
Q 4550 3538 4550 2338 
Q 4550 1131 3912 565 
Q 3275 0 1925 0 
L 628 0 
L 628 4666 
z
" transform="scale(0.015625)"/>
       <path id="DejaVuSans-65" d="M 3597 1894 
L 3597 1613 
L 953 1613 
Q 991 1019 1311 708 
Q 1631 397 2203 397 
Q 2534 397 2845 478 
Q 3156 559 3463 722 
L 3463 178 
Q 3153 47 2828 -22 
Q 2503 -91 2169 -91 
Q 1331 -91 842 396 
Q 353 884 353 1716 
Q 353 2575 817 3079 
Q 1281 3584 2069 3584 
Q 2775 3584 3186 3129 
Q 3597 2675 3597 1894 
z
M 3022 2063 
Q 3016 2534 2758 2815 
Q 2500 3097 2075 3097 
Q 1594 3097 1305 2825 
Q 1016 2553 972 2059 
L 3022 2063 
z
" transform="scale(0.015625)"/>
       <path id="DejaVuSans-6e" d="M 3513 2113 
L 3513 0 
L 2938 0 
L 2938 2094 
Q 2938 2591 2744 2837 
Q 2550 3084 2163 3084 
Q 1697 3084 1428 2787 
Q 1159 2491 1159 1978 
L 1159 0 
L 581 0 
L 581 3500 
L 1159 3500 
L 1159 2956 
Q 1366 3272 1645 3428 
Q 1925 3584 2291 3584 
Q 2894 3584 3203 3211 
Q 3513 2838 3513 2113 
z
" transform="scale(0.015625)"/>
       <path id="DejaVuSans-73" d="M 2834 3397 
L 2834 2853 
Q 2591 2978 2328 3040 
Q 2066 3103 1784 3103 
Q 1356 3103 1142 2972 
Q 928 2841 928 2578 
Q 928 2378 1081 2264 
Q 1234 2150 1697 2047 
L 1894 2003 
Q 2506 1872 2764 1633 
Q 3022 1394 3022 966 
Q 3022 478 2636 193 
Q 2250 -91 1575 -91 
Q 1294 -91 989 -36 
Q 684 19 347 128 
L 347 722 
Q 666 556 975 473 
Q 1284 391 1588 391 
Q 1994 391 2212 530 
Q 2431 669 2431 922 
Q 2431 1156 2273 1281 
Q 2116 1406 1581 1522 
L 1381 1569 
Q 847 1681 609 1914 
Q 372 2147 372 2553 
Q 372 3047 722 3315 
Q 1072 3584 1716 3584 
Q 2034 3584 2315 3537 
Q 2597 3491 2834 3397 
z
" transform="scale(0.015625)"/>
       <path id="DejaVuSans-46" d="M 628 4666 
L 3309 4666 
L 3309 4134 
L 1259 4134 
L 1259 2759 
L 3109 2759 
L 3109 2228 
L 1259 2228 
L 1259 0 
L 628 0 
L 628 4666 
z
" transform="scale(0.015625)"/>
       <path id="DejaVuSans-75" d="M 544 1381 
L 544 3500 
L 1119 3500 
L 1119 1403 
Q 1119 906 1312 657 
Q 1506 409 1894 409 
Q 2359 409 2629 706 
Q 2900 1003 2900 1516 
L 2900 3500 
L 3475 3500 
L 3475 0 
L 2900 0 
L 2900 538 
Q 2691 219 2414 64 
Q 2138 -91 1772 -91 
Q 1169 -91 856 284 
Q 544 659 544 1381 
z
M 1991 3584 
L 1991 3584 
z
" transform="scale(0.015625)"/>
       <path id="DejaVuSans-63" d="M 3122 3366 
L 3122 2828 
Q 2878 2963 2633 3030 
Q 2388 3097 2138 3097 
Q 1578 3097 1268 2742 
Q 959 2388 959 1747 
Q 959 1106 1268 751 
Q 1578 397 2138 397 
Q 2388 397 2633 464 
Q 2878 531 3122 666 
L 3122 134 
Q 2881 22 2623 -34 
Q 2366 -91 2075 -91 
Q 1284 -91 818 406 
Q 353 903 353 1747 
Q 353 2603 823 3093 
Q 1294 3584 2113 3584 
Q 2378 3584 2631 3529 
Q 2884 3475 3122 3366 
z
" transform="scale(0.015625)"/>
      </defs>
      <use xlink:href="#DejaVuSans-50"/>
      <use xlink:href="#DejaVuSans-72" x="58.552734"/>
      <use xlink:href="#DejaVuSans-6f" x="97.416016"/>
      <use xlink:href="#DejaVuSans-62" x="158.597656"/>
      <use xlink:href="#DejaVuSans-61" x="222.074219"/>
      <use xlink:href="#DejaVuSans-62" x="283.353516"/>
      <use xlink:href="#DejaVuSans-69" x="346.830078"/>
      <use xlink:href="#DejaVuSans-6c" x="374.613281"/>
      <use xlink:href="#DejaVuSans-69" x="402.396484"/>
      <use xlink:href="#DejaVuSans-74" x="430.179688"/>
      <use xlink:href="#DejaVuSans-79" x="469.388672"/>
      <use xlink:href="#DejaVuSans-20" x="528.568359"/>
      <use xlink:href="#DejaVuSans-44" x="560.355469"/>
      <use xlink:href="#DejaVuSans-65" x="637.357422"/>
      <use xlink:href="#DejaVuSans-6e" x="698.880859"/>
      <use xlink:href="#DejaVuSans-73" x="762.259766"/>
      <use xlink:href="#DejaVuSans-69" x="814.359375"/>
      <use xlink:href="#DejaVuSans-74" x="842.142578"/>
      <use xlink:href="#DejaVuSans-79" x="881.351562"/>
      <use xlink:href="#DejaVuSans-20" x="940.53125"/>
      <use xlink:href="#DejaVuSans-46" x="972.318359"/>
      <use xlink:href="#DejaVuSans-75" x="1024.337891"/>
      <use xlink:href="#DejaVuSans-6e" x="1087.716797"/>
      <use xlink:href="#DejaVuSans-63" x="1151.095703"/>
      <use xlink:href="#DejaVuSans-74" x="1206.076172"/>
      <use xlink:href="#DejaVuSans-69" x="1245.285156"/>
      <use xlink:href="#DejaVuSans-6f" x="1273.068359"/>
      <use xlink:href="#DejaVuSans-6e" x="1334.25"/>
     </g>
    </g>
   </g>
   <g id="line2d_29">
    <path d="M 92.290909 368.071456 
L 106.508763 367.489349 
L 117.883047 366.81539 
L 127.632432 366.022617 
L 135.756921 365.152719 
L 143.06896 364.153963 
L 149.56855 363.045638 
L 155.255692 361.862633 
L 160.536609 360.545807 
L 165.411302 359.10572 
L 169.879771 357.560925 
L 173.942015 355.938408 
L 178.004259 354.075267 
L 181.660278 352.16261 
L 185.316298 349.99533 
L 188.566093 347.827822 
L 191.815889 345.406066 
L 195.065684 342.701119 
L 198.315479 339.681396 
L 201.15905 336.754063 
L 204.002621 333.534971 
L 206.846192 329.998109 
L 209.689762 326.116185 
L 212.533333 321.860854 
L 215.376904 317.203046 
L 218.220475 312.113402 
L 221.064046 306.56285 
L 223.907617 300.523326 
L 226.751188 293.96867 
L 229.594758 286.875705 
L 232.438329 279.22551 
L 235.688124 269.783507 
L 238.93792 259.589024 
L 242.187715 248.650541 
L 245.843735 235.491742 
L 249.499754 221.504836 
L 253.968223 203.466349 
L 260.061589 177.777233 
L 268.186077 143.532573 
L 271.842097 129.018371 
L 275.091892 117.031762 
L 277.529238 108.785994 
L 279.966585 101.309012 
L 281.997707 95.746299 
L 284.028829 90.855131 
L 285.653726 87.462375 
L 287.278624 84.558877 
L 288.903522 82.166065 
L 290.122195 80.717502 
L 291.340868 79.572506 
L 292.559541 78.735975 
L 293.778215 78.211508 
L 294.996888 78.001368 
L 296.215561 78.106464 
L 297.434234 78.52634 
L 298.652907 79.259184 
L 299.871581 80.301839 
L 301.090254 81.649836 
L 302.308927 83.297431 
L 303.933825 85.948051 
L 305.558722 89.099064 
L 307.18362 92.7274 
L 309.214742 97.894041 
L 311.245864 103.708867 
L 313.68321 111.454879 
L 316.120557 119.930978 
L 318.964128 130.58391 
L 322.620147 145.195994 
L 327.901065 167.376811 
L 337.65045 208.473945 
L 342.118919 226.252635 
L 345.774939 239.974675 
L 349.430958 252.838334 
L 352.680753 263.499994 
L 355.930549 273.412341 
L 359.180344 282.573393 
L 362.023915 289.98279 
L 364.867486 296.842455 
L 367.711057 303.173301 
L 370.554627 308.999929 
L 373.398198 314.349435 
L 376.241769 319.250415 
L 379.08534 323.732143 
L 381.928911 327.823916 
L 384.772482 331.554541 
L 387.616052 334.951945 
L 390.459623 338.042893 
L 393.709419 341.232683 
L 396.959214 344.090903 
L 400.209009 346.650472 
L 403.458804 348.94165 
L 407.114824 351.232734 
L 410.770844 353.254619 
L 414.426863 355.039085 
L 418.489107 356.777648 
L 422.957576 358.432384 
L 427.426044 359.855203 
L 432.300737 361.182371 
L 437.581654 362.396853 
L 443.67502 363.559415 
L 450.174611 364.570301 
L 457.48665 365.482657 
L 466.017363 366.313531 
L 475.766749 367.031697 
L 487.141032 367.644022 
L 498.109091 368.071456 
L 498.109091 368.071456 
" clip-path="url(#p6bdf5ab90f)" style="fill: none; stroke: #1f77b4; stroke-width: 1.5; stroke-linecap: square"/>
   </g>
   <g id="line2d_30">
    <path d="M 92.290909 369.11663 
L 110.977232 368.784995 
L 123.976413 368.342042 
L 134.132023 367.777271 
L 142.256511 367.109001 
L 149.162326 366.323464 
L 155.255692 365.405379 
L 160.536609 364.388211 
L 165.411302 363.219598 
L 169.879771 361.910807 
L 173.942015 360.483956 
L 177.598034 358.972294 
L 181.254054 357.210106 
L 184.503849 355.40259 
L 187.753645 353.33707 
L 191.00344 350.980661 
L 193.847011 348.652048 
L 196.690581 346.047409 
L 199.534152 343.139221 
L 202.377723 339.898482 
L 205.221294 336.294936 
L 208.064865 332.297393 
L 210.908436 327.874146 
L 213.752007 322.993521 
L 216.595577 317.624536 
L 219.439148 311.737711 
L 222.282719 305.306022 
L 225.12629 298.305998 
L 227.969861 290.71896 
L 230.813432 282.53238 
L 234.063227 272.436275 
L 237.313022 261.558491 
L 240.562817 249.925158 
L 244.218837 235.994802 
L 248.281081 219.595204 
L 253.155774 198.921411 
L 268.998526 130.799253 
L 272.248321 118.200429 
L 275.091892 108.008664 
L 277.529238 100.021418 
L 279.966585 92.828901 
L 281.997707 87.508331 
L 284.028829 82.851354 
L 285.653726 79.632646 
L 287.278624 76.885595 
L 288.903522 74.626882 
L 290.122195 73.261761 
L 291.340868 72.183923 
L 292.559541 71.397128 
L 293.778215 70.904132 
L 294.996888 70.706663 
L 296.215561 70.805417 
L 297.434234 71.200045 
L 298.652907 71.889163 
L 299.871581 72.870355 
L 301.090254 74.140194 
L 302.308927 75.694262 
L 303.933825 78.199056 
L 305.558722 81.184191 
L 307.18362 84.631637 
L 309.214742 89.559517 
L 311.245864 95.132305 
L 313.68321 102.600255 
L 316.120557 110.830886 
L 318.964128 121.263763 
L 322.213923 134.079876 
L 326.276167 151.074002 
L 332.775758 179.407832 
L 340.494021 212.805917 
L 344.96249 231.169286 
L 349.024734 246.903844 
L 352.680753 260.144885 
L 355.930549 271.118955 
L 359.180344 281.313534 
L 362.430139 290.71896 
L 365.27371 298.305998 
L 368.117281 305.306022 
L 370.960852 311.737711 
L 373.804423 317.624536 
L 376.647993 322.993521 
L 379.491564 327.874146 
L 382.335135 332.297393 
L 385.178706 336.294936 
L 388.022277 339.898482 
L 390.865848 343.139221 
L 393.709419 346.047409 
L 396.552989 348.652048 
L 399.39656 350.980661 
L 402.646355 353.33707 
L 405.896151 355.40259 
L 409.145946 357.210106 
L 412.801966 358.972294 
L 416.457985 360.483956 
L 420.520229 361.910807 
L 424.988698 363.219598 
L 429.457166 364.299926 
L 434.738084 365.335119 
L 440.425225 366.214608 
L 446.924816 366.986903 
L 454.236855 367.631534 
L 463.173792 368.187336 
L 474.141851 368.633831 
L 488.359705 368.975481 
L 498.109091 369.11663 
L 498.109091 369.11663 
" clip-path="url(#p6bdf5ab90f)" style="fill: none; stroke: #ff7f0e; stroke-width: 1.5; stroke-linecap: square"/>
   </g>
   <g id="line2d_31">
    <path d="M 92.290909 369.36 
L 117.476822 369.160963 
L 131.288452 368.844229 
L 141.037838 368.412466 
L 148.756102 367.857325 
L 155.255692 367.167126 
L 160.536609 366.396937 
L 165.411302 365.465885 
L 169.879771 364.376903 
L 173.942015 363.145335 
L 177.598034 361.79988 
L 180.84783 360.382138 
L 184.097625 358.722927 
L 187.34742 356.787309 
L 190.190991 354.836823 
L 193.034562 352.617576 
L 195.878133 350.099899 
L 198.721704 347.252449 
L 201.565274 344.04247 
L 204.002621 340.976914 
L 206.439967 337.598537 
L 208.877314 333.885645 
L 211.31466 329.816813 
L 213.752007 325.371255 
L 216.595577 319.682396 
L 219.439148 313.42537 
L 222.282719 306.575533 
L 225.12629 299.113452 
L 227.969861 291.026223 
L 230.813432 282.308849 
L 234.063227 271.580521 
L 237.313022 260.05872 
L 240.969042 246.204176 
L 245.031286 229.818676 
L 249.499754 210.812536 
L 255.999345 182.033664 
L 264.123833 146.116961 
L 268.186077 129.124817 
L 271.435872 116.402237 
L 274.279443 106.102985 
L 276.71679 98.013681 
L 279.154136 90.701045 
L 281.185258 85.260781 
L 283.21638 80.461823 
L 284.841278 77.111074 
L 286.466175 74.213971 
L 288.091073 71.786111 
L 289.715971 69.840671 
L 290.934644 68.704673 
L 292.153317 67.849579 
L 293.37199 67.278036 
L 294.590663 66.99182 
L 295.809337 66.99182 
L 297.02801 67.278036 
L 298.246683 67.849579 
L 299.465356 68.704673 
L 300.684029 69.840671 
L 301.902703 71.254064 
L 303.5276 73.562457 
L 305.152498 76.34362 
L 306.777396 79.582546 
L 308.402293 83.261924 
L 310.433415 88.450703 
L 312.464537 94.254905 
L 314.901884 101.966724 
L 317.33923 110.41107 
L 320.182801 121.065415 
L 323.432596 134.112936 
L 327.49484 151.388629 
L 333.994431 180.215792 
L 342.118919 216.081146 
L 346.587387 234.834287 
L 350.649631 250.922417 
L 354.305651 264.47005 
L 357.555446 275.698323 
L 360.805242 286.12198 
L 363.648812 294.569245 
L 366.492383 302.387449 
L 369.335954 309.585148 
L 372.179525 316.17821 
L 375.023096 322.188459 
L 377.866667 327.642387 
L 380.710238 332.56996 
L 383.553808 337.003536 
L 386.397379 340.976914 
L 389.24095 344.524507 
L 392.084521 347.680646 
L 394.928092 350.47901 
L 397.771663 352.952171 
L 400.615233 355.131249 
L 403.458804 357.045655 
L 406.7086 358.944695 
L 409.958395 360.571882 
L 413.20819 361.961727 
L 416.86421 363.280205 
L 420.926454 364.486607 
L 424.988698 365.465885 
L 429.863391 366.396937 
L 435.144308 367.167126 
L 441.237674 367.821009 
L 448.549713 368.364621 
L 457.48665 368.787751 
L 468.860934 369.092207 
L 485.516134 369.295294 
L 498.109091 369.36 
L 498.109091 369.36 
" clip-path="url(#p6bdf5ab90f)" style="fill: none; stroke: #2ca02c; stroke-width: 1.5; stroke-linecap: square"/>
   </g>
   <g id="patch_3">
    <path d="M 72 384.48 
L 72 51.84 
" style="fill: none; stroke: #000000; stroke-width: 0.8; stroke-linejoin: miter; stroke-linecap: square"/>
   </g>
   <g id="patch_4">
    <path d="M 518.4 384.48 
L 518.4 51.84 
" style="fill: none; stroke: #000000; stroke-width: 0.8; stroke-linejoin: miter; stroke-linecap: square"/>
   </g>
   <g id="patch_5">
    <path d="M 72 384.48 
L 518.4 384.48 
" style="fill: none; stroke: #000000; stroke-width: 0.8; stroke-linejoin: miter; stroke-linecap: square"/>
   </g>
   <g id="patch_6">
    <path d="M 72 51.84 
L 518.4 51.84 
" style="fill: none; stroke: #000000; stroke-width: 0.8; stroke-linejoin: miter; stroke-linecap: square"/>
   </g>
   <g id="text_17">
    <!-- t-Distribution for Different Degrees of Freedom -->
    <g transform="translate(154.71375 45.84) scale(0.12 -0.12)">
     <defs>
      <path id="DejaVuSans-2d" d="M 313 2009 
L 1997 2009 
L 1997 1497 
L 313 1497 
L 313 2009 
z
" transform="scale(0.015625)"/>
      <path id="DejaVuSans-66" d="M 2375 4863 
L 2375 4384 
L 1825 4384 
Q 1516 4384 1395 4259 
Q 1275 4134 1275 3809 
L 1275 3500 
L 2222 3500 
L 2222 3053 
L 1275 3053 
L 1275 0 
L 697 0 
L 697 3053 
L 147 3053 
L 147 3500 
L 697 3500 
L 697 3744 
Q 697 4328 969 4595 
Q 1241 4863 1831 4863 
L 2375 4863 
z
" transform="scale(0.015625)"/>
      <path id="DejaVuSans-67" d="M 2906 1791 
Q 2906 2416 2648 2759 
Q 2391 3103 1925 3103 
Q 1463 3103 1205 2759 
Q 947 2416 947 1791 
Q 947 1169 1205 825 
Q 1463 481 1925 481 
Q 2391 481 2648 825 
Q 2906 1169 2906 1791 
z
M 3481 434 
Q 3481 -459 3084 -895 
Q 2688 -1331 1869 -1331 
Q 1566 -1331 1297 -1286 
Q 1028 -1241 775 -1147 
L 775 -588 
Q 1028 -725 1275 -790 
Q 1522 -856 1778 -856 
Q 2344 -856 2625 -561 
Q 2906 -266 2906 331 
L 2906 616 
Q 2728 306 2450 153 
Q 2172 0 1784 0 
Q 1141 0 747 490 
Q 353 981 353 1791 
Q 353 2603 747 3093 
Q 1141 3584 1784 3584 
Q 2172 3584 2450 3431 
Q 2728 3278 2906 2969 
L 2906 3500 
L 3481 3500 
L 3481 434 
z
" transform="scale(0.015625)"/>
      <path id="DejaVuSans-64" d="M 2906 2969 
L 2906 4863 
L 3481 4863 
L 3481 0 
L 2906 0 
L 2906 525 
Q 2725 213 2448 61 
Q 2172 -91 1784 -91 
Q 1150 -91 751 415 
Q 353 922 353 1747 
Q 353 2572 751 3078 
Q 1150 3584 1784 3584 
Q 2172 3584 2448 3432 
Q 2725 3281 2906 2969 
z
M 947 1747 
Q 947 1113 1208 752 
Q 1469 391 1925 391 
Q 2381 391 2643 752 
Q 2906 1113 2906 1747 
Q 2906 2381 2643 2742 
Q 2381 3103 1925 3103 
Q 1469 3103 1208 2742 
Q 947 2381 947 1747 
z
" transform="scale(0.015625)"/>
      <path id="DejaVuSans-6d" d="M 3328 2828 
Q 3544 3216 3844 3400 
Q 4144 3584 4550 3584 
Q 5097 3584 5394 3201 
Q 5691 2819 5691 2113 
L 5691 0 
L 5113 0 
L 5113 2094 
Q 5113 2597 4934 2840 
Q 4756 3084 4391 3084 
Q 3944 3084 3684 2787 
Q 3425 2491 3425 1978 
L 3425 0 
L 2847 0 
L 2847 2094 
Q 2847 2600 2669 2842 
Q 2491 3084 2119 3084 
Q 1678 3084 1418 2786 
Q 1159 2488 1159 1978 
L 1159 0 
L 581 0 
L 581 3500 
L 1159 3500 
L 1159 2956 
Q 1356 3278 1631 3431 
Q 1906 3584 2284 3584 
Q 2666 3584 2933 3390 
Q 3200 3197 3328 2828 
z
" transform="scale(0.015625)"/>
     </defs>
     <use xlink:href="#DejaVuSans-74"/>
     <use xlink:href="#DejaVuSans-2d" x="39.208984"/>
     <use xlink:href="#DejaVuSans-44" x="75.292969"/>
     <use xlink:href="#DejaVuSans-69" x="152.294922"/>
     <use xlink:href="#DejaVuSans-73" x="180.078125"/>
     <use xlink:href="#DejaVuSans-74" x="232.177734"/>
     <use xlink:href="#DejaVuSans-72" x="271.386719"/>
     <use xlink:href="#DejaVuSans-69" x="312.5"/>
     <use xlink:href="#DejaVuSans-62" x="340.283203"/>
     <use xlink:href="#DejaVuSans-75" x="403.759766"/>
     <use xlink:href="#DejaVuSans-74" x="467.138672"/>
     <use xlink:href="#DejaVuSans-69" x="506.347656"/>
     <use xlink:href="#DejaVuSans-6f" x="534.130859"/>
     <use xlink:href="#DejaVuSans-6e" x="595.3125"/>
     <use xlink:href="#DejaVuSans-20" x="658.691406"/>
     <use xlink:href="#DejaVuSans-66" x="690.478516"/>
     <use xlink:href="#DejaVuSans-6f" x="725.683594"/>
     <use xlink:href="#DejaVuSans-72" x="786.865234"/>
     <use xlink:href="#DejaVuSans-20" x="827.978516"/>
     <use xlink:href="#DejaVuSans-44" x="859.765625"/>
     <use xlink:href="#DejaVuSans-69" x="936.767578"/>
     <use xlink:href="#DejaVuSans-66" x="964.550781"/>
     <use xlink:href="#DejaVuSans-66" x="999.755859"/>
     <use xlink:href="#DejaVuSans-65" x="1034.960938"/>
     <use xlink:href="#DejaVuSans-72" x="1096.484375"/>
     <use xlink:href="#DejaVuSans-65" x="1135.347656"/>
     <use xlink:href="#DejaVuSans-6e" x="1196.871094"/>
     <use xlink:href="#DejaVuSans-74" x="1260.25"/>
     <use xlink:href="#DejaVuSans-20" x="1299.458984"/>
     <use xlink:href="#DejaVuSans-44" x="1331.246094"/>
     <use xlink:href="#DejaVuSans-65" x="1408.248047"/>
     <use xlink:href="#DejaVuSans-67" x="1469.771484"/>
     <use xlink:href="#DejaVuSans-72" x="1533.248047"/>
     <use xlink:href="#DejaVuSans-65" x="1572.111328"/>
     <use xlink:href="#DejaVuSans-65" x="1633.634766"/>
     <use xlink:href="#DejaVuSans-73" x="1695.158203"/>
     <use xlink:href="#DejaVuSans-20" x="1747.257812"/>
     <use xlink:href="#DejaVuSans-6f" x="1779.044922"/>
     <use xlink:href="#DejaVuSans-66" x="1840.226562"/>
     <use xlink:href="#DejaVuSans-20" x="1875.431641"/>
     <use xlink:href="#DejaVuSans-46" x="1907.21875"/>
     <use xlink:href="#DejaVuSans-72" x="1957.488281"/>
     <use xlink:href="#DejaVuSans-65" x="1996.351562"/>
     <use xlink:href="#DejaVuSans-65" x="2057.875"/>
     <use xlink:href="#DejaVuSans-64" x="2119.398438"/>
     <use xlink:href="#DejaVuSans-6f" x="2182.875"/>
     <use xlink:href="#DejaVuSans-6d" x="2244.056641"/>
    </g>
   </g>
   <g id="legend_1">
    <g id="patch_7">
     <path d="M 448.426562 103.874375 
L 511.4 103.874375 
Q 513.4 103.874375 513.4 101.874375 
L 513.4 58.84 
Q 513.4 56.84 511.4 56.84 
L 448.426562 56.84 
Q 446.426562 56.84 446.426562 58.84 
L 446.426562 101.874375 
Q 446.426562 103.874375 448.426562 103.874375 
z
" style="fill: #ffffff; opacity: 0.8; stroke: #cccccc; stroke-linejoin: miter"/>
    </g>
    <g id="line2d_32">
     <path d="M 450.426562 64.938437 
L 460.426562 64.938437 
L 470.426562 64.938437 
" style="fill: none; stroke: #1f77b4; stroke-width: 1.5; stroke-linecap: square"/>
    </g>
    <g id="text_18">
     <!-- df=5 -->
     <g transform="translate(478.426562 68.438437) scale(0.1 -0.1)">
      <defs>
       <path id="DejaVuSans-3d" d="M 678 2906 
L 4684 2906 
L 4684 2381 
L 678 2381 
L 678 2906 
z
M 678 1631 
L 4684 1631 
L 4684 1100 
L 678 1100 
L 678 1631 
z
" transform="scale(0.015625)"/>
      </defs>
      <use xlink:href="#DejaVuSans-64"/>
      <use xlink:href="#DejaVuSans-66" x="63.476562"/>
      <use xlink:href="#DejaVuSans-3d" x="98.681641"/>
      <use xlink:href="#DejaVuSans-35" x="182.470703"/>
     </g>
    </g>
    <g id="line2d_33">
     <path d="M 450.426562 79.616562 
L 460.426562 79.616562 
L 470.426562 79.616562 
" style="fill: none; stroke: #ff7f0e; stroke-width: 1.5; stroke-linecap: square"/>
    </g>
    <g id="text_19">
     <!-- df=10 -->
     <g transform="translate(478.426562 83.116562) scale(0.1 -0.1)">
      <use xlink:href="#DejaVuSans-64"/>
      <use xlink:href="#DejaVuSans-66" x="63.476562"/>
      <use xlink:href="#DejaVuSans-3d" x="98.681641"/>
      <use xlink:href="#DejaVuSans-31" x="182.470703"/>
      <use xlink:href="#DejaVuSans-30" x="246.09375"/>
     </g>
    </g>
    <g id="line2d_34">
     <path d="M 450.426562 94.294687 
L 460.426562 94.294687 
L 470.426562 94.294687 
" style="fill: none; stroke: #2ca02c; stroke-width: 1.5; stroke-linecap: square"/>
    </g>
    <g id="text_20">
     <!-- df=20 -->
     <g transform="translate(478.426562 97.794687) scale(0.1 -0.1)">
      <use xlink:href="#DejaVuSans-64"/>
      <use xlink:href="#DejaVuSans-66" x="63.476562"/>
      <use xlink:href="#DejaVuSans-3d" x="98.681641"/>
      <use xlink:href="#DejaVuSans-32" x="182.470703"/>
      <use xlink:href="#DejaVuSans-30" x="246.09375"/>
     </g>
    </g>
   </g>
  </g>
 </g>
 <defs>
  <clipPath id="p6bdf5ab90f">
   <rect x="72" y="51.84" width="446.4" height="332.64"/>
  </clipPath>
 </defs>
</svg>
