<svg xmlns:xlink="http://www.w3.org/1999/xlink" width="768" height="576" viewBox="0 0 576 432" xmlns="http://www.w3.org/2000/svg"><defs><style>*{stroke-linejoin:round;stroke-linecap:butt}</style></defs><g id="figure_1"><path d="M0 432h576V0H0z" style="fill:#fff" id="patch_1"/><g id="axes_1"><path d="M72 384.48h446.4V51.84H72z" style="fill:#fff" id="patch_2"/><g id="matplotlib.axis_1"><g id="xtick_1"><path d="M132.873 384.48V51.84" clip-path="url(#p6bdf5ab90f)" style="fill:none;stroke:#b0b0b0;stroke-width:.8;stroke-linecap:square" id="line2d_1"/><g id="line2d_2"><defs><path id="md5a94ec5be" d="M0 0v3.5" style="stroke:#000;stroke-width:.8"/></defs><use xlink:href="#md5a94ec5be" x="132.873" y="384.48" style="stroke:#000;stroke-width:.8"/></g><g transform="matrix(.1 0 0 -.1 125.502 399.078)" id="text_1"><defs><path id="DejaVuSans-2212" d="M678 2272h4006v-531H678v531z" transform="scale(.01563)"/><path id="DejaVuSans-34" d="M2419 4116 825 1625h1594v2491zm-166 550h794V1625h666v-525h-666V0h-628v1100H313v609l1940 2957z" transform="scale(.01563)"/></defs><use xlink:href="#DejaVuSans-2212"/><use xlink:href="#DejaVuSans-34" x="83.789"/></g></g><g id="xtick_2"><path d="M214.036 384.48V51.84" clip-path="url(#p6bdf5ab90f)" style="fill:none;stroke:#b0b0b0;stroke-width:.8;stroke-linecap:square" id="line2d_3"/><use xlink:href="#md5a94ec5be" x="214.036" y="384.48" style="stroke:#000;stroke-width:.8" id="line2d_4"/><g transform="matrix(.1 0 0 -.1 206.665 399.078)" id="text_2"><defs><path id="DejaVuSans-32" d="M1228 531h2203V0H469v531q359 372 979 998 621 627 780 809 303 340 423 576 121 236 121 464 0 372-261 606-261 235-680 235-297 0-627-103-329-103-704-313v638q381 153 712 231 332 78 607 78 725 0 1156-363 431-362 431-968 0-288-108-546-107-257-392-607-78-91-497-524-418-433-1181-1211z" transform="scale(.01563)"/></defs><use xlink:href="#DejaVuSans-2212"/><use xlink:href="#DejaVuSans-32" x="83.789"/></g></g><g id="xtick_3"><path d="M295.2 384.48V51.84" clip-path="url(#p6bdf5ab90f)" style="fill:none;stroke:#b0b0b0;stroke-width:.8;stroke-linecap:square" id="line2d_5"/><use xlink:href="#md5a94ec5be" x="295.2" y="384.48" style="stroke:#000;stroke-width:.8" id="line2d_6"/><g transform="matrix(.1 0 0 -.1 292.019 399.078)" id="text_3"><defs><path id="DejaVuSans-30" d="M2034 4250q-487 0-733-480-245-479-245-1442 0-959 245-1439 246-480 733-480 491 0 736 480 246 480 246 1439 0 963-246 1442-245 480-736 480zm0 500q785 0 1199-621 414-620 414-1801 0-1178-414-1799Q2819-91 2034-91q-784 0-1198 620-414 621-414 1799 0 1181 414 1801 414 621 1198 621z" transform="scale(.01563)"/></defs><use xlink:href="#DejaVuSans-30"/></g></g><g id="xtick_4"><path d="M376.364 384.48V51.84" clip-path="url(#p6bdf5ab90f)" style="fill:none;stroke:#b0b0b0;stroke-width:.8;stroke-linecap:square" id="line2d_7"/><use xlink:href="#md5a94ec5be" x="376.364" y="384.48" style="stroke:#000;stroke-width:.8" id="line2d_8"/><use xlink:href="#DejaVuSans-32" transform="matrix(.1 0 0 -.1 373.182 399.078)" id="text_4"/></g><g id="xtick_5"><path d="M457.527 384.48V51.84" clip-path="url(#p6bdf5ab90f)" style="fill:none;stroke:#b0b0b0;stroke-width:.8;stroke-linecap:square" id="line2d_9"/><use xlink:href="#md5a94ec5be" x="457.527" y="384.48" style="stroke:#000;stroke-width:.8" id="line2d_10"/><use xlink:href="#DejaVuSans-34" transform="matrix(.1 0 0 -.1 454.346 399.078)" id="text_5"/></g><g transform="matrix(.1 0 0 -.1 291.775 412.757)" id="text_6"><defs><path id="DejaVuSans-58" d="M403 4666h678l1160-1735 1165 1735h678L2584 2425 4184 0h-678L2194 1984 872 0H191l1665 2491L403 4666z" transform="scale(.01563)"/></defs><use xlink:href="#DejaVuSans-58"/></g></g><g id="matplotlib.axis_2"><g id="ytick_1"><path d="M72 369.42h446.4" clip-path="url(#p6bdf5ab90f)" style="fill:none;stroke:#b0b0b0;stroke-width:.8;stroke-linecap:square" id="line2d_11"/><g id="line2d_12"><defs><path id="m728238e4a4" d="M0 0h-3.5" style="stroke:#000;stroke-width:.8"/></defs><use xlink:href="#m728238e4a4" x="72" y="369.421" style="stroke:#000;stroke-width:.8"/></g><g transform="matrix(.1 0 0 -.1 42.734 373.22)" id="text_7"><defs><path id="DejaVuSans-2e" d="M684 794h660V0H684v794z" transform="scale(.01563)"/></defs><use xlink:href="#DejaVuSans-30"/><use xlink:href="#DejaVuSans-2e" x="63.623"/><use xlink:href="#DejaVuSans-30" x="95.41"/><use xlink:href="#DejaVuSans-30" x="159.033"/></g></g><g id="ytick_2"><path d="M72 331.036h446.4" clip-path="url(#p6bdf5ab90f)" style="fill:none;stroke:#b0b0b0;stroke-width:.8;stroke-linecap:square" id="line2d_13"/><use xlink:href="#m728238e4a4" x="72" y="331.036" style="stroke:#000;stroke-width:.8" id="line2d_14"/><g transform="matrix(.1 0 0 -.1 42.734 334.835)" id="text_8"><defs><path id="DejaVuSans-35" d="M691 4666h2478v-532H1269V2991q137 47 274 70 138 23 276 23 781 0 1237-428 457-428 457-1159 0-753-469-1171Q2575-91 1722-91q-294 0-599 50Q819 9 494 109v635q281-153 581-228t634-75q541 0 856 284 316 284 316 772 0 487-316 771-315 285-856 285-253 0-505-56-251-56-513-175v2344z" transform="scale(.01563)"/></defs><use xlink:href="#DejaVuSans-30"/><use xlink:href="#DejaVuSans-2e" x="63.623"/><use xlink:href="#DejaVuSans-30" x="95.41"/><use xlink:href="#DejaVuSans-35" x="159.033"/></g></g><g id="ytick_3"><path d="M72 292.65h446.4" clip-path="url(#p6bdf5ab90f)" style="fill:none;stroke:#b0b0b0;stroke-width:.8;stroke-linecap:square" id="line2d_15"/><use xlink:href="#m728238e4a4" x="72" y="292.651" style="stroke:#000;stroke-width:.8" id="line2d_16"/><g transform="matrix(.1 0 0 -.1 42.734 296.45)" id="text_9"><defs><path id="DejaVuSans-31" d="M794 531h1031v3560L703 3866v575l1116 225h631V531h1031V0H794v531z" transform="scale(.01563)"/></defs><use xlink:href="#DejaVuSans-30"/><use xlink:href="#DejaVuSans-2e" x="63.623"/><use xlink:href="#DejaVuSans-31" x="95.41"/><use xlink:href="#DejaVuSans-30" x="159.033"/></g></g><g id="ytick_4"><path d="M72 254.266h446.4" clip-path="url(#p6bdf5ab90f)" style="fill:none;stroke:#b0b0b0;stroke-width:.8;stroke-linecap:square" id="line2d_17"/><use xlink:href="#m728238e4a4" x="72" y="254.266" style="stroke:#000;stroke-width:.8" id="line2d_18"/><g transform="matrix(.1 0 0 -.1 42.734 258.065)" id="text_10"><use xlink:href="#DejaVuSans-30"/><use xlink:href="#DejaVuSans-2e" x="63.623"/><use xlink:href="#DejaVuSans-31" x="95.41"/><use xlink:href="#DejaVuSans-35" x="159.033"/></g></g><g id="ytick_5"><path d="M72 215.88h446.4" clip-path="url(#p6bdf5ab90f)" style="fill:none;stroke:#b0b0b0;stroke-width:.8;stroke-linecap:square" id="line2d_19"/><use xlink:href="#m728238e4a4" x="72" y="215.881" style="stroke:#000;stroke-width:.8" id="line2d_20"/><g transform="matrix(.1 0 0 -.1 42.734 219.68)" id="text_11"><use xlink:href="#DejaVuSans-30"/><use xlink:href="#DejaVuSans-2e" x="63.623"/><use xlink:href="#DejaVuSans-32" x="95.41"/><use xlink:href="#DejaVuSans-30" x="159.033"/></g></g><g id="ytick_6"><path d="M72 177.496h446.4" clip-path="url(#p6bdf5ab90f)" style="fill:none;stroke:#b0b0b0;stroke-width:.8;stroke-linecap:square" id="line2d_21"/><use xlink:href="#m728238e4a4" x="72" y="177.496" style="stroke:#000;stroke-width:.8" id="line2d_22"/><g transform="matrix(.1 0 0 -.1 42.734 181.295)" id="text_12"><use xlink:href="#DejaVuSans-30"/><use xlink:href="#DejaVuSans-2e" x="63.623"/><use xlink:href="#DejaVuSans-32" x="95.41"/><use xlink:href="#DejaVuSans-35" x="159.033"/></g></g><g id="ytick_7"><path d="M72 139.111h446.4" clip-path="url(#p6bdf5ab90f)" style="fill:none;stroke:#b0b0b0;stroke-width:.8;stroke-linecap:square" id="line2d_23"/><use xlink:href="#m728238e4a4" x="72" y="139.111" style="stroke:#000;stroke-width:.8" id="line2d_24"/><g transform="matrix(.1 0 0 -.1 42.734 142.91)" id="text_13"><defs><path id="DejaVuSans-33" d="M2597 2516q453-97 707-404 255-306 255-756 0-690-475-1069Q2609-91 1734-91q-293 0-604 58T488 141v609q262-153 574-231 313-78 654-78 593 0 904 234t311 681q0 413-289 645-289 233-804 233h-544v519h569q465 0 712 186t247 536q0 359-255 551-254 193-729 193-260 0-557-57-297-56-653-174v562q360 100 674 150t592 50q719 0 1137-327 419-326 419-882 0-388-222-655t-631-370z" transform="scale(.01563)"/></defs><use xlink:href="#DejaVuSans-30"/><use xlink:href="#DejaVuSans-2e" x="63.623"/><use xlink:href="#DejaVuSans-33" x="95.41"/><use xlink:href="#DejaVuSans-30" x="159.033"/></g></g><g id="ytick_8"><path d="M72 100.726h446.4" clip-path="url(#p6bdf5ab90f)" style="fill:none;stroke:#b0b0b0;stroke-width:.8;stroke-linecap:square" id="line2d_25"/><use xlink:href="#m728238e4a4" x="72" y="100.726" style="stroke:#000;stroke-width:.8" id="line2d_26"/><g transform="matrix(.1 0 0 -.1 42.734 104.525)" id="text_14"><use xlink:href="#DejaVuSans-30"/><use xlink:href="#DejaVuSans-2e" x="63.623"/><use xlink:href="#DejaVuSans-33" x="95.41"/><use xlink:href="#DejaVuSans-35" x="159.033"/></g></g><g id="ytick_9"><path d="M72 62.341h446.4" clip-path="url(#p6bdf5ab90f)" style="fill:none;stroke:#b0b0b0;stroke-width:.8;stroke-linecap:square" id="line2d_27"/><use xlink:href="#m728238e4a4" x="72" y="62.341" style="stroke:#000;stroke-width:.8" id="line2d_28"/><g transform="matrix(.1 0 0 -.1 42.734 66.14)" id="text_15"><use xlink:href="#DejaVuSans-30"/><use xlink:href="#DejaVuSans-2e" x="63.623"/><use xlink:href="#DejaVuSans-34" x="95.41"/><use xlink:href="#DejaVuSans-30" x="159.033"/></g></g><g transform="matrix(0 -.1 -.1 0 36.655 288.04)" id="text_16"><defs><path id="DejaVuSans-50" d="M1259 4147V2394h794q441 0 681 228 241 228 241 650 0 419-241 647-240 228-681 228h-794zm-631 519h1425q785 0 1186-355 402-355 402-1039 0-691-402-1044-401-353-1186-353h-794V0H628v4666z" transform="scale(.01563)"/><path id="DejaVuSans-72" d="M2631 2963q-97 56-211 82-114 27-251 27-488 0-749-317t-261-911V0H581v3500h578v-544q182 319 472 473 291 155 707 155 59 0 131-8 72-7 159-23l3-590z" transform="scale(.01563)"/><path id="DejaVuSans-6f" d="M1959 3097q-462 0-731-361t-269-989q0-628 267-989 268-361 733-361 460 0 728 362 269 363 269 988 0 622-269 986-268 364-728 364zm0 487q750 0 1178-488 429-487 429-1349 0-859-429-1349Q2709-91 1959-91q-753 0-1180 489-426 490-426 1349 0 862 426 1349 427 488 1180 488z" transform="scale(.01563)"/><path id="DejaVuSans-62" d="M3116 1747q0 634-261 995t-717 361q-457 0-718-361t-261-995q0-634 261-995t718-361q456 0 717 361t261 995zM1159 2969q182 312 458 463 277 152 661 152 638 0 1036-506 399-506 399-1331T3314 415Q2916-91 2278-91q-384 0-661 152-276 152-458 464V0H581v4863h578V2969z" transform="scale(.01563)"/><path id="DejaVuSans-61" d="M2194 1759q-697 0-966-159t-269-544q0-306 202-486 202-179 548-179 479 0 768 339t289 901v128h-572zm1147 238V0h-575v531q-197-318-491-470T1556-91q-537 0-855 302-317 302-317 808 0 590 395 890 396 300 1180 300h807v57q0 397-261 614t-733 217q-300 0-585-72-284-72-546-216v532q315 122 612 182 297 61 578 61 760 0 1135-394 375-393 375-1193z" transform="scale(.01563)"/><path id="DejaVuSans-69" d="M603 3500h575V0H603v3500zm0 1363h575v-729H603v729z" transform="scale(.01563)"/><path id="DejaVuSans-6c" d="M603 4863h575V0H603v4863z" transform="scale(.01563)"/><path id="DejaVuSans-74" d="M1172 4494v-994h1184v-447H1172V1153q0-428 117-550t477-122h590V0h-590q-666 0-919 248-253 249-253 905v1900H172v447h422v994h578z" transform="scale(.01563)"/><path id="DejaVuSans-79" d="M2059-325q-243-625-475-815-231-191-618-191H506v481h338q237 0 368 113 132 112 291 531l103 262L191 3500h609L1894 763l1094 2737h609L2059-325z" transform="scale(.01563)"/><path id="DejaVuSans-44" d="M1259 4147V519h763q966 0 1414 437 448 438 448 1382 0 937-448 1373t-1414 436h-763zm-631 519h1297q1356 0 1990-564 635-564 635-1764 0-1207-638-1773Q3275 0 1925 0H628v4666z" transform="scale(.01563)"/><path id="DejaVuSans-65" d="M3597 1894v-281H953q38-594 358-905t892-311q331 0 642 81t618 244V178Q3153 47 2828-22t-659-69q-838 0-1327 487-489 488-489 1320 0 859 464 1363 464 505 1252 505 706 0 1117-455 411-454 411-1235zm-575 169q-6 471-264 752-258 282-683 282-481 0-770-272t-333-766l2050 4z" transform="scale(.01563)"/><path id="DejaVuSans-6e" d="M3513 2113V0h-575v2094q0 497-194 743-194 247-581 247-466 0-735-297-269-296-269-809V0H581v3500h578v-544q207 316 486 472 280 156 646 156 603 0 912-373 310-373 310-1098z" transform="scale(.01563)"/><path id="DejaVuSans-73" d="M2834 3397v-544q-243 125-506 187-262 63-544 63-428 0-642-131t-214-394q0-200 153-314t616-217l197-44q612-131 870-370t258-667q0-488-386-773Q2250-91 1575-91q-281 0-586 55T347 128v594q319-166 628-249 309-82 613-82 406 0 624 139 219 139 219 392 0 234-158 359-157 125-692 241l-200 47q-534 112-772 345-237 233-237 639 0 494 350 762 350 269 994 269 318 0 599-47 282-46 519-140z" transform="scale(.01563)"/><path id="DejaVuSans-46" d="M628 4666h2681v-532H1259V2759h1850v-531H1259V0H628v4666z" transform="scale(.01563)"/><path id="DejaVuSans-75" d="M544 1381v2119h575V1403q0-497 193-746 194-248 582-248 465 0 735 297 271 297 271 810v1984h575V0h-575v538q-209-319-486-474-276-155-642-155-603 0-916 375-312 375-312 1097zm1447 2203z" transform="scale(.01563)"/><path id="DejaVuSans-63" d="M3122 3366v-538q-244 135-489 202t-495 67q-560 0-870-355-309-354-309-995t309-996q310-354 870-354 250 0 495 67t489 202V134Q2881 22 2623-34q-257-57-548-57-791 0-1257 497-465 497-465 1341 0 856 470 1346 471 491 1290 491 265 0 518-55 253-54 491-163z" transform="scale(.01563)"/></defs><use xlink:href="#DejaVuSans-50"/><use xlink:href="#DejaVuSans-72" x="58.553"/><use xlink:href="#DejaVuSans-6f" x="97.416"/><use xlink:href="#DejaVuSans-62" x="158.598"/><use xlink:href="#DejaVuSans-61" x="222.074"/><use xlink:href="#DejaVuSans-62" x="283.354"/><use xlink:href="#DejaVuSans-69" x="346.83"/><use xlink:href="#DejaVuSans-6c" x="374.613"/><use xlink:href="#DejaVuSans-69" x="402.396"/><use xlink:href="#DejaVuSans-74" x="430.18"/><use xlink:href="#DejaVuSans-79" x="469.389"/><use xlink:href="#DejaVuSans-20" x="528.568"/><use xlink:href="#DejaVuSans-44" x="560.355"/><use xlink:href="#DejaVuSans-65" x="637.357"/><use xlink:href="#DejaVuSans-6e" x="698.881"/><use xlink:href="#DejaVuSans-73" x="762.26"/><use xlink:href="#DejaVuSans-69" x="814.359"/><use xlink:href="#DejaVuSans-74" x="842.143"/><use xlink:href="#DejaVuSans-79" x="881.352"/><use xlink:href="#DejaVuSans-20" x="940.531"/><use xlink:href="#DejaVuSans-46" x="972.318"/><use xlink:href="#DejaVuSans-75" x="1024.338"/><use xlink:href="#DejaVuSans-6e" x="1087.717"/><use xlink:href="#DejaVuSans-63" x="1151.096"/><use xlink:href="#DejaVuSans-74" x="1206.076"/><use xlink:href="#DejaVuSans-69" x="1245.285"/><use xlink:href="#DejaVuSans-6f" x="1273.068"/><use xlink:href="#DejaVuSans-6e" x="1334.25"/></g></g><path d="m92.29 368.071 14.219-.582 11.374-.674 9.75-.792 8.124-.87 7.312-.999 6.5-1.108 5.687-1.183 5.28-1.317 4.875-1.44 4.469-1.545 4.062-1.623 4.062-1.863 3.656-1.912 3.656-2.168 3.25-2.167 3.25-2.422 3.25-2.705 3.25-3.02 2.843-2.927 2.844-3.219 2.843-3.537 2.844-3.882 2.843-4.255 2.844-4.658 2.843-5.09 2.844-5.55 2.844-6.04 2.843-6.554 2.844-7.093 2.843-7.65 3.25-9.442 3.25-10.195 3.25-10.938 3.656-13.16 3.656-13.986 4.468-18.039 6.094-25.689 8.124-34.244 3.656-14.515 3.25-11.986 2.437-8.246 2.438-7.477 2.03-5.563 2.032-4.89 1.625-3.394 1.625-2.903 1.625-2.393 1.218-1.448 1.219-1.145 1.219-.837 1.218-.524 1.219-.21 1.219.104 1.218.42 1.219.733 1.219 1.043 1.218 1.348 1.219 1.647 1.625 2.651 1.625 3.151 1.625 3.628 2.03 5.167 2.032 5.815 2.437 7.746 2.438 8.476 2.843 10.653 3.656 14.612 5.281 22.18 9.75 41.098 4.468 17.779 3.656 13.722 3.656 12.863 3.25 10.662 3.25 9.912 3.25 9.161 2.843 7.41 2.843 6.86 2.844 6.33 2.844 5.827 2.843 5.35 2.844 4.9 2.843 4.482 2.844 4.092 2.843 3.73 2.844 3.398 2.844 3.09 3.25 3.19 3.25 2.859 3.249 2.56 3.25 2.29 3.656 2.292 3.656 2.022 3.656 1.784 4.062 1.739 4.469 1.654 4.468 1.423 4.875 1.327 5.28 1.215 6.094 1.162 6.5 1.011 7.312.913 8.53.83 9.75.719 11.374.612 10.968.427h0" clip-path="url(#p6bdf5ab90f)" style="fill:none;stroke:#1f77b4;stroke-width:1.5;stroke-linecap:square" id="line2d_29"/><path d="m92.29 369.117 18.687-.332 13-.443 10.155-.565 8.125-.668 6.905-.786 6.094-.918 5.28-1.017 4.875-1.168 4.469-1.31 4.062-1.426 3.656-1.512 3.656-1.762 3.25-1.807 3.25-2.066 3.25-2.356 2.843-2.329 2.844-2.605 2.843-2.908 2.844-3.24 2.843-3.604 2.844-3.998 2.843-4.423 2.844-4.88 2.844-5.37 2.843-5.886 2.844-6.432 2.843-7 2.844-7.587 2.843-8.187 3.25-10.096 3.25-10.878 3.25-11.633 3.656-13.93 4.062-16.4 4.875-20.674 15.843-68.122 3.25-12.599 2.843-10.191 2.437-7.988 2.438-7.192 2.03-5.32 2.032-4.658 1.625-3.218 1.625-2.747 1.625-2.26 1.218-1.364 1.219-1.078 1.219-.787 1.218-.493 1.219-.197 1.219.098 1.218.395 1.219.69 1.219.98 1.218 1.27 1.219 1.554 1.625 2.505 1.625 2.985 1.625 3.448 2.03 4.928 2.032 5.572 2.437 7.468 2.438 8.23 2.843 10.434 3.25 12.816 4.062 16.994 6.5 28.334 7.718 33.398 4.468 18.363 4.063 15.735 3.656 13.24 3.25 10.975 3.25 10.195 3.25 9.405 2.843 7.587 2.843 7 2.844 6.432 2.843 5.887 2.844 5.369 2.844 4.88 2.843 4.423 2.844 3.998 2.843 3.603 2.844 3.241 2.843 2.908 2.844 2.605 2.844 2.329 3.25 2.356 3.25 2.066 3.249 1.807 3.656 1.762 3.656 1.512 4.062 1.427 4.469 1.309 4.468 1.08 5.281 1.035 5.687.88 6.5.772 7.312.645 8.937.555 10.968.447 14.218.341 9.75.142h0" clip-path="url(#p6bdf5ab90f)" style="fill:none;stroke:#ff7f0e;stroke-width:1.5;stroke-linecap:square" id="line2d_30"/><path d="m92.29 369.36 25.187-.199 13.811-.317 9.75-.432 7.718-.555 6.5-.69 5.28-.77 4.875-.931 4.469-1.09 4.062-1.23 3.656-1.346 3.25-1.418 3.25-1.66 3.25-1.935 2.843-1.95 2.844-2.22 2.843-2.517 2.844-2.848 2.843-3.21 2.438-3.065 2.437-3.378 2.437-3.713 2.438-4.07 2.437-4.445 2.844-5.689 2.843-6.257 2.844-6.85 2.843-7.462 2.844-8.087 2.843-8.717 3.25-10.728 3.25-11.522 3.656-13.855 4.062-16.385 4.469-19.006 6.5-28.78 8.124-35.916 4.062-16.992 3.25-12.723 2.843-10.299 2.438-8.09 2.437-7.312 2.031-5.44 2.031-4.8 1.625-3.35 1.625-2.897 1.625-2.428 1.625-1.945 1.219-1.136 1.218-.855 1.219-.572 1.219-.286h1.218l1.219.286 1.219.572 1.218.855 1.219 1.136 1.219 1.413 1.625 2.308 1.624 2.782 1.625 3.239 1.625 3.679 2.031 5.189 2.032 5.804 2.437 7.712 2.437 8.444 2.844 10.654 3.25 13.048 4.062 17.276 6.5 28.827 8.124 35.865 4.468 18.753 4.063 16.088 3.656 13.548 3.25 11.228 3.25 10.424 2.843 8.447 2.843 7.818 2.844 7.198 2.844 6.593 2.843 6.01 2.844 5.454 2.843 4.928 2.844 4.434 2.843 3.973 2.844 3.548 2.844 3.156 2.843 2.798 2.844 2.473 2.843 2.18 2.844 1.914 3.25 1.899 3.25 1.627 3.25 1.39 3.655 1.318 4.062 1.207 4.063.979 4.874.93 5.281.771 6.094.654 7.312.544 8.937.423 11.374.304 16.655.203 12.593.065h0" clip-path="url(#p6bdf5ab90f)" style="fill:none;stroke:#2ca02c;stroke-width:1.5;stroke-linecap:square" id="line2d_31"/><path d="M72 384.48V51.84" style="fill:none;stroke:#000;stroke-width:.8;stroke-linejoin:miter;stroke-linecap:square" id="patch_3"/><path d="M518.4 384.48V51.84" style="fill:none;stroke:#000;stroke-width:.8;stroke-linejoin:miter;stroke-linecap:square" id="patch_4"/><path d="M72 384.48h446.4" style="fill:none;stroke:#000;stroke-width:.8;stroke-linejoin:miter;stroke-linecap:square" id="patch_5"/><path d="M72 51.84h446.4" style="fill:none;stroke:#000;stroke-width:.8;stroke-linejoin:miter;stroke-linecap:square" id="patch_6"/><g transform="matrix(.12 0 0 -.12 154.714 45.84)" id="text_17"><defs><path id="DejaVuSans-2d" d="M313 2009h1684v-512H313v512z" transform="scale(.01563)"/><path id="DejaVuSans-66" d="M2375 4863v-479h-550q-309 0-430-125-120-125-120-450v-309h947v-447h-947V0H697v3053H147v447h550v244q0 584 272 851 272 268 862 268h544z" transform="scale(.01563)"/><path id="DejaVuSans-67" d="M2906 1791q0 625-258 968-257 344-723 344-462 0-720-344-258-343-258-968 0-622 258-966t720-344q466 0 723 344 258 344 258 966zm575-1357q0-893-397-1329-396-436-1215-436-303 0-572 45t-522 139v559q253-137 500-202 247-66 503-66 566 0 847 295t281 892v285q-178-310-456-463T1784 0Q1141 0 747 490 353 981 353 1791q0 812 394 1302 394 491 1037 491 388 0 666-153t456-462v531h575V434z" transform="scale(.01563)"/><path id="DejaVuSans-64" d="M2906 2969v1894h575V0h-575v525q-181-312-458-464-276-152-664-152-634 0-1033 506-398 507-398 1332t398 1331q399 506 1033 506 388 0 664-152 277-151 458-463zM947 1747q0-634 261-995t717-361q456 0 718 361 263 361 263 995t-263 995q-262 361-718 361t-717-361q-261-361-261-995z" transform="scale(.01563)"/><path id="DejaVuSans-6d" d="M3328 2828q216 388 516 572t706 184q547 0 844-383 297-382 297-1088V0h-578v2094q0 503-179 746-178 244-543 244-447 0-707-297-259-296-259-809V0h-578v2094q0 506-178 748t-550 242q-441 0-701-298-259-298-259-808V0H581v3500h578v-544q197 322 472 475t653 153q382 0 649-194 267-193 395-562z" transform="scale(.01563)"/></defs><use xlink:href="#DejaVuSans-74"/><use xlink:href="#DejaVuSans-2d" x="39.209"/><use xlink:href="#DejaVuSans-44" x="75.293"/><use xlink:href="#DejaVuSans-69" x="152.295"/><use xlink:href="#DejaVuSans-73" x="180.078"/><use xlink:href="#DejaVuSans-74" x="232.178"/><use xlink:href="#DejaVuSans-72" x="271.387"/><use xlink:href="#DejaVuSans-69" x="312.5"/><use xlink:href="#DejaVuSans-62" x="340.283"/><use xlink:href="#DejaVuSans-75" x="403.76"/><use xlink:href="#DejaVuSans-74" x="467.139"/><use xlink:href="#DejaVuSans-69" x="506.348"/><use xlink:href="#DejaVuSans-6f" x="534.131"/><use xlink:href="#DejaVuSans-6e" x="595.313"/><use xlink:href="#DejaVuSans-20" x="658.691"/><use xlink:href="#DejaVuSans-66" x="690.479"/><use xlink:href="#DejaVuSans-6f" x="725.684"/><use xlink:href="#DejaVuSans-72" x="786.865"/><use xlink:href="#DejaVuSans-20" x="827.979"/><use xlink:href="#DejaVuSans-44" x="859.766"/><use xlink:href="#DejaVuSans-69" x="936.768"/><use xlink:href="#DejaVuSans-66" x="964.551"/><use xlink:href="#DejaVuSans-66" x="999.756"/><use xlink:href="#DejaVuSans-65" x="1034.961"/><use xlink:href="#DejaVuSans-72" x="1096.484"/><use xlink:href="#DejaVuSans-65" x="1135.348"/><use xlink:href="#DejaVuSans-6e" x="1196.871"/><use xlink:href="#DejaVuSans-74" x="1260.25"/><use xlink:href="#DejaVuSans-20" x="1299.459"/><use xlink:href="#DejaVuSans-44" x="1331.246"/><use xlink:href="#DejaVuSans-65" x="1408.248"/><use xlink:href="#DejaVuSans-67" x="1469.771"/><use xlink:href="#DejaVuSans-72" x="1533.248"/><use xlink:href="#DejaVuSans-65" x="1572.111"/><use xlink:href="#DejaVuSans-65" x="1633.635"/><use xlink:href="#DejaVuSans-73" x="1695.158"/><use xlink:href="#DejaVuSans-20" x="1747.258"/><use xlink:href="#DejaVuSans-6f" x="1779.045"/><use xlink:href="#DejaVuSans-66" x="1840.227"/><use xlink:href="#DejaVuSans-20" x="1875.432"/><use xlink:href="#DejaVuSans-46" x="1907.219"/><use xlink:href="#DejaVuSans-72" x="1957.488"/><use xlink:href="#DejaVuSans-65" x="1996.352"/><use xlink:href="#DejaVuSans-65" x="2057.875"/><use xlink:href="#DejaVuSans-64" x="2119.398"/><use xlink:href="#DejaVuSans-6f" x="2182.875"/><use xlink:href="#DejaVuSans-6d" x="2244.057"/></g><g id="legend_1"><path d="M448.427 103.874H511.4q2 0 2-2V58.84q0-2-2-2h-62.973q-2 0-2 2v43.034q0 2 2 2z" style="fill:#fff;opacity:.8;stroke:#ccc;stroke-linejoin:miter" id="patch_7"/><path d="M450.427 64.938h20" style="fill:none;stroke:#1f77b4;stroke-width:1.5;stroke-linecap:square" id="line2d_32"/><g transform="matrix(.1 0 0 -.1 478.427 68.438)" id="text_18"><defs><path id="DejaVuSans-3d" d="M678 2906h4006v-525H678v525zm0-1275h4006v-531H678v531z" transform="scale(.01563)"/></defs><use xlink:href="#DejaVuSans-64"/><use xlink:href="#DejaVuSans-66" x="63.477"/><use xlink:href="#DejaVuSans-3d" x="98.682"/><use xlink:href="#DejaVuSans-35" x="182.471"/></g><path d="M450.427 79.617h20" style="fill:none;stroke:#ff7f0e;stroke-width:1.5;stroke-linecap:square" id="line2d_33"/><g transform="matrix(.1 0 0 -.1 478.427 83.117)" id="text_19"><use xlink:href="#DejaVuSans-64"/><use xlink:href="#DejaVuSans-66" x="63.477"/><use xlink:href="#DejaVuSans-3d" x="98.682"/><use xlink:href="#DejaVuSans-31" x="182.471"/><use xlink:href="#DejaVuSans-30" x="246.094"/></g><path d="M450.427 94.295h20" style="fill:none;stroke:#2ca02c;stroke-width:1.5;stroke-linecap:square" id="line2d_34"/><g transform="matrix(.1 0 0 -.1 478.427 97.795)" id="text_20"><use xlink:href="#DejaVuSans-64"/><use xlink:href="#DejaVuSans-66" x="63.477"/><use xlink:href="#DejaVuSans-3d" x="98.682"/><use xlink:href="#DejaVuSans-32" x="182.471"/><use xlink:href="#DejaVuSans-30" x="246.094"/></g></g></g></g><defs><clipPath id="p6bdf5ab90f"><path d="M72 51.84h446.4v332.64H72z"/></clipPath></defs></svg>